%TF.GenerationSoftware,KiCad,Pcbnew,8.0.1*%
%TF.CreationDate,2024-06-15T11:09:31+01:00*%
%TF.ProjectId,MiniFilter3.2,4d696e69-4669-46c7-9465-72332e322e6b,rev?*%
%TF.SameCoordinates,Original*%
%TF.FileFunction,Legend,Top*%
%TF.FilePolarity,Positive*%
%FSLAX46Y46*%
G04 Gerber Fmt 4.6, Leading zero omitted, Abs format (unit mm)*
G04 Created by KiCad (PCBNEW 8.0.1) date 2024-06-15 11:09:31*
%MOMM*%
%LPD*%
G01*
G04 APERTURE LIST*
G04 Aperture macros list*
%AMRoundRect*
0 Rectangle with rounded corners*
0 $1 Rounding radius*
0 $2 $3 $4 $5 $6 $7 $8 $9 X,Y pos of 4 corners*
0 Add a 4 corners polygon primitive as box body*
4,1,4,$2,$3,$4,$5,$6,$7,$8,$9,$2,$3,0*
0 Add four circle primitives for the rounded corners*
1,1,$1+$1,$2,$3*
1,1,$1+$1,$4,$5*
1,1,$1+$1,$6,$7*
1,1,$1+$1,$8,$9*
0 Add four rect primitives between the rounded corners*
20,1,$1+$1,$2,$3,$4,$5,0*
20,1,$1+$1,$4,$5,$6,$7,0*
20,1,$1+$1,$6,$7,$8,$9,0*
20,1,$1+$1,$8,$9,$2,$3,0*%
G04 Aperture macros list end*
%ADD10C,0.150000*%
%ADD11C,0.300000*%
%ADD12C,0.120000*%
%ADD13R,2.400000X1.600000*%
%ADD14O,2.400000X1.600000*%
%ADD15C,1.600000*%
%ADD16RoundRect,0.250000X-0.620000X-0.845000X0.620000X-0.845000X0.620000X0.845000X-0.620000X0.845000X0*%
%ADD17O,1.740000X2.190000*%
%ADD18O,1.600000X1.600000*%
%ADD19RoundRect,0.250000X-0.845000X0.620000X-0.845000X-0.620000X0.845000X-0.620000X0.845000X0.620000X0*%
%ADD20O,2.190000X1.740000*%
%ADD21R,1.500000X1.050000*%
%ADD22O,1.500000X1.050000*%
%ADD23RoundRect,0.250000X0.845000X-0.620000X0.845000X0.620000X-0.845000X0.620000X-0.845000X-0.620000X0*%
%ADD24C,2.700000*%
%ADD25R,1.600000X1.600000*%
%ADD26R,1.600000X2.400000*%
%ADD27O,1.600000X2.400000*%
%ADD28R,1.050000X1.500000*%
%ADD29O,1.050000X1.500000*%
G04 APERTURE END LIST*
D10*
X186915588Y-92135438D02*
X186820350Y-92087819D01*
X186820350Y-92087819D02*
X186677493Y-92087819D01*
X186677493Y-92087819D02*
X186534636Y-92135438D01*
X186534636Y-92135438D02*
X186439398Y-92230676D01*
X186439398Y-92230676D02*
X186391779Y-92325914D01*
X186391779Y-92325914D02*
X186344160Y-92516390D01*
X186344160Y-92516390D02*
X186344160Y-92659247D01*
X186344160Y-92659247D02*
X186391779Y-92849723D01*
X186391779Y-92849723D02*
X186439398Y-92944961D01*
X186439398Y-92944961D02*
X186534636Y-93040200D01*
X186534636Y-93040200D02*
X186677493Y-93087819D01*
X186677493Y-93087819D02*
X186772731Y-93087819D01*
X186772731Y-93087819D02*
X186915588Y-93040200D01*
X186915588Y-93040200D02*
X186963207Y-92992580D01*
X186963207Y-92992580D02*
X186963207Y-92659247D01*
X186963207Y-92659247D02*
X186772731Y-92659247D01*
X187391779Y-93087819D02*
X187391779Y-92087819D01*
X187391779Y-92087819D02*
X187963207Y-93087819D01*
X187963207Y-93087819D02*
X187963207Y-92087819D01*
X188439398Y-93087819D02*
X188439398Y-92087819D01*
X188439398Y-92087819D02*
X188677493Y-92087819D01*
X188677493Y-92087819D02*
X188820350Y-92135438D01*
X188820350Y-92135438D02*
X188915588Y-92230676D01*
X188915588Y-92230676D02*
X188963207Y-92325914D01*
X188963207Y-92325914D02*
X189010826Y-92516390D01*
X189010826Y-92516390D02*
X189010826Y-92659247D01*
X189010826Y-92659247D02*
X188963207Y-92849723D01*
X188963207Y-92849723D02*
X188915588Y-92944961D01*
X188915588Y-92944961D02*
X188820350Y-93040200D01*
X188820350Y-93040200D02*
X188677493Y-93087819D01*
X188677493Y-93087819D02*
X188439398Y-93087819D01*
X186867969Y-90674819D02*
X186391779Y-90674819D01*
X186391779Y-90674819D02*
X186391779Y-89674819D01*
X187201303Y-90151009D02*
X187534636Y-90151009D01*
X187677493Y-90674819D02*
X187201303Y-90674819D01*
X187201303Y-90674819D02*
X187201303Y-89674819D01*
X187201303Y-89674819D02*
X187677493Y-89674819D01*
X188106065Y-90674819D02*
X188106065Y-89674819D01*
X188106065Y-89674819D02*
X188344160Y-89674819D01*
X188344160Y-89674819D02*
X188487017Y-89722438D01*
X188487017Y-89722438D02*
X188582255Y-89817676D01*
X188582255Y-89817676D02*
X188629874Y-89912914D01*
X188629874Y-89912914D02*
X188677493Y-90103390D01*
X188677493Y-90103390D02*
X188677493Y-90246247D01*
X188677493Y-90246247D02*
X188629874Y-90436723D01*
X188629874Y-90436723D02*
X188582255Y-90531961D01*
X188582255Y-90531961D02*
X188487017Y-90627200D01*
X188487017Y-90627200D02*
X188344160Y-90674819D01*
X188344160Y-90674819D02*
X188106065Y-90674819D01*
X190391779Y-89722438D02*
X190296541Y-89674819D01*
X190296541Y-89674819D02*
X190153684Y-89674819D01*
X190153684Y-89674819D02*
X190010827Y-89722438D01*
X190010827Y-89722438D02*
X189915589Y-89817676D01*
X189915589Y-89817676D02*
X189867970Y-89912914D01*
X189867970Y-89912914D02*
X189820351Y-90103390D01*
X189820351Y-90103390D02*
X189820351Y-90246247D01*
X189820351Y-90246247D02*
X189867970Y-90436723D01*
X189867970Y-90436723D02*
X189915589Y-90531961D01*
X189915589Y-90531961D02*
X190010827Y-90627200D01*
X190010827Y-90627200D02*
X190153684Y-90674819D01*
X190153684Y-90674819D02*
X190248922Y-90674819D01*
X190248922Y-90674819D02*
X190391779Y-90627200D01*
X190391779Y-90627200D02*
X190439398Y-90579580D01*
X190439398Y-90579580D02*
X190439398Y-90246247D01*
X190439398Y-90246247D02*
X190248922Y-90246247D01*
X178050819Y-127425220D02*
X177050819Y-127425220D01*
X177050819Y-127425220D02*
X177050819Y-127044268D01*
X177050819Y-127044268D02*
X177098438Y-126949030D01*
X177098438Y-126949030D02*
X177146057Y-126901411D01*
X177146057Y-126901411D02*
X177241295Y-126853792D01*
X177241295Y-126853792D02*
X177384152Y-126853792D01*
X177384152Y-126853792D02*
X177479390Y-126901411D01*
X177479390Y-126901411D02*
X177527009Y-126949030D01*
X177527009Y-126949030D02*
X177574628Y-127044268D01*
X177574628Y-127044268D02*
X177574628Y-127425220D01*
X178050819Y-125853792D02*
X177574628Y-126187125D01*
X178050819Y-126425220D02*
X177050819Y-126425220D01*
X177050819Y-126425220D02*
X177050819Y-126044268D01*
X177050819Y-126044268D02*
X177098438Y-125949030D01*
X177098438Y-125949030D02*
X177146057Y-125901411D01*
X177146057Y-125901411D02*
X177241295Y-125853792D01*
X177241295Y-125853792D02*
X177384152Y-125853792D01*
X177384152Y-125853792D02*
X177479390Y-125901411D01*
X177479390Y-125901411D02*
X177527009Y-125949030D01*
X177527009Y-125949030D02*
X177574628Y-126044268D01*
X177574628Y-126044268D02*
X177574628Y-126425220D01*
X177527009Y-125425220D02*
X177527009Y-125091887D01*
X178050819Y-124949030D02*
X178050819Y-125425220D01*
X178050819Y-125425220D02*
X177050819Y-125425220D01*
X177050819Y-125425220D02*
X177050819Y-124949030D01*
X178003200Y-124568077D02*
X178050819Y-124425220D01*
X178050819Y-124425220D02*
X178050819Y-124187125D01*
X178050819Y-124187125D02*
X178003200Y-124091887D01*
X178003200Y-124091887D02*
X177955580Y-124044268D01*
X177955580Y-124044268D02*
X177860342Y-123996649D01*
X177860342Y-123996649D02*
X177765104Y-123996649D01*
X177765104Y-123996649D02*
X177669866Y-124044268D01*
X177669866Y-124044268D02*
X177622247Y-124091887D01*
X177622247Y-124091887D02*
X177574628Y-124187125D01*
X177574628Y-124187125D02*
X177527009Y-124377601D01*
X177527009Y-124377601D02*
X177479390Y-124472839D01*
X177479390Y-124472839D02*
X177431771Y-124520458D01*
X177431771Y-124520458D02*
X177336533Y-124568077D01*
X177336533Y-124568077D02*
X177241295Y-124568077D01*
X177241295Y-124568077D02*
X177146057Y-124520458D01*
X177146057Y-124520458D02*
X177098438Y-124472839D01*
X177098438Y-124472839D02*
X177050819Y-124377601D01*
X177050819Y-124377601D02*
X177050819Y-124139506D01*
X177050819Y-124139506D02*
X177098438Y-123996649D01*
X177527009Y-123568077D02*
X177527009Y-123234744D01*
X178050819Y-123091887D02*
X178050819Y-123568077D01*
X178050819Y-123568077D02*
X177050819Y-123568077D01*
X177050819Y-123568077D02*
X177050819Y-123091887D01*
X177050819Y-122806172D02*
X177050819Y-122234744D01*
X178050819Y-122520458D02*
X177050819Y-122520458D01*
X178003200Y-121949029D02*
X178050819Y-121806172D01*
X178050819Y-121806172D02*
X178050819Y-121568077D01*
X178050819Y-121568077D02*
X178003200Y-121472839D01*
X178003200Y-121472839D02*
X177955580Y-121425220D01*
X177955580Y-121425220D02*
X177860342Y-121377601D01*
X177860342Y-121377601D02*
X177765104Y-121377601D01*
X177765104Y-121377601D02*
X177669866Y-121425220D01*
X177669866Y-121425220D02*
X177622247Y-121472839D01*
X177622247Y-121472839D02*
X177574628Y-121568077D01*
X177574628Y-121568077D02*
X177527009Y-121758553D01*
X177527009Y-121758553D02*
X177479390Y-121853791D01*
X177479390Y-121853791D02*
X177431771Y-121901410D01*
X177431771Y-121901410D02*
X177336533Y-121949029D01*
X177336533Y-121949029D02*
X177241295Y-121949029D01*
X177241295Y-121949029D02*
X177146057Y-121901410D01*
X177146057Y-121901410D02*
X177098438Y-121853791D01*
X177098438Y-121853791D02*
X177050819Y-121758553D01*
X177050819Y-121758553D02*
X177050819Y-121520458D01*
X177050819Y-121520458D02*
X177098438Y-121377601D01*
X186264779Y-102724009D02*
X186598112Y-102724009D01*
X186740969Y-103247819D02*
X186264779Y-103247819D01*
X186264779Y-103247819D02*
X186264779Y-102247819D01*
X186264779Y-102247819D02*
X186740969Y-102247819D01*
X187169541Y-103247819D02*
X187169541Y-102247819D01*
X187169541Y-102247819D02*
X187740969Y-103247819D01*
X187740969Y-103247819D02*
X187740969Y-102247819D01*
X188788588Y-103152580D02*
X188740969Y-103200200D01*
X188740969Y-103200200D02*
X188598112Y-103247819D01*
X188598112Y-103247819D02*
X188502874Y-103247819D01*
X188502874Y-103247819D02*
X188360017Y-103200200D01*
X188360017Y-103200200D02*
X188264779Y-103104961D01*
X188264779Y-103104961D02*
X188217160Y-103009723D01*
X188217160Y-103009723D02*
X188169541Y-102819247D01*
X188169541Y-102819247D02*
X188169541Y-102676390D01*
X188169541Y-102676390D02*
X188217160Y-102485914D01*
X188217160Y-102485914D02*
X188264779Y-102390676D01*
X188264779Y-102390676D02*
X188360017Y-102295438D01*
X188360017Y-102295438D02*
X188502874Y-102247819D01*
X188502874Y-102247819D02*
X188598112Y-102247819D01*
X188598112Y-102247819D02*
X188740969Y-102295438D01*
X188740969Y-102295438D02*
X188788588Y-102343057D01*
X190312398Y-102724009D02*
X190455255Y-102771628D01*
X190455255Y-102771628D02*
X190502874Y-102819247D01*
X190502874Y-102819247D02*
X190550493Y-102914485D01*
X190550493Y-102914485D02*
X190550493Y-103057342D01*
X190550493Y-103057342D02*
X190502874Y-103152580D01*
X190502874Y-103152580D02*
X190455255Y-103200200D01*
X190455255Y-103200200D02*
X190360017Y-103247819D01*
X190360017Y-103247819D02*
X189979065Y-103247819D01*
X189979065Y-103247819D02*
X189979065Y-102247819D01*
X189979065Y-102247819D02*
X190312398Y-102247819D01*
X190312398Y-102247819D02*
X190407636Y-102295438D01*
X190407636Y-102295438D02*
X190455255Y-102343057D01*
X190455255Y-102343057D02*
X190502874Y-102438295D01*
X190502874Y-102438295D02*
X190502874Y-102533533D01*
X190502874Y-102533533D02*
X190455255Y-102628771D01*
X190455255Y-102628771D02*
X190407636Y-102676390D01*
X190407636Y-102676390D02*
X190312398Y-102724009D01*
X190312398Y-102724009D02*
X189979065Y-102724009D01*
X134353541Y-115328819D02*
X134972588Y-115328819D01*
X134972588Y-115328819D02*
X134639255Y-115709771D01*
X134639255Y-115709771D02*
X134782112Y-115709771D01*
X134782112Y-115709771D02*
X134877350Y-115757390D01*
X134877350Y-115757390D02*
X134924969Y-115805009D01*
X134924969Y-115805009D02*
X134972588Y-115900247D01*
X134972588Y-115900247D02*
X134972588Y-116138342D01*
X134972588Y-116138342D02*
X134924969Y-116233580D01*
X134924969Y-116233580D02*
X134877350Y-116281200D01*
X134877350Y-116281200D02*
X134782112Y-116328819D01*
X134782112Y-116328819D02*
X134496398Y-116328819D01*
X134496398Y-116328819D02*
X134401160Y-116281200D01*
X134401160Y-116281200D02*
X134353541Y-116233580D01*
X135258303Y-115328819D02*
X135591636Y-116328819D01*
X135591636Y-116328819D02*
X135924969Y-115328819D01*
X136163065Y-115328819D02*
X136782112Y-115328819D01*
X136782112Y-115328819D02*
X136448779Y-115709771D01*
X136448779Y-115709771D02*
X136591636Y-115709771D01*
X136591636Y-115709771D02*
X136686874Y-115757390D01*
X136686874Y-115757390D02*
X136734493Y-115805009D01*
X136734493Y-115805009D02*
X136782112Y-115900247D01*
X136782112Y-115900247D02*
X136782112Y-116138342D01*
X136782112Y-116138342D02*
X136734493Y-116233580D01*
X136734493Y-116233580D02*
X136686874Y-116281200D01*
X136686874Y-116281200D02*
X136591636Y-116328819D01*
X136591636Y-116328819D02*
X136305922Y-116328819D01*
X136305922Y-116328819D02*
X136210684Y-116281200D01*
X136210684Y-116281200D02*
X136163065Y-116233580D01*
X134845588Y-112836438D02*
X134750350Y-112788819D01*
X134750350Y-112788819D02*
X134607493Y-112788819D01*
X134607493Y-112788819D02*
X134464636Y-112836438D01*
X134464636Y-112836438D02*
X134369398Y-112931676D01*
X134369398Y-112931676D02*
X134321779Y-113026914D01*
X134321779Y-113026914D02*
X134274160Y-113217390D01*
X134274160Y-113217390D02*
X134274160Y-113360247D01*
X134274160Y-113360247D02*
X134321779Y-113550723D01*
X134321779Y-113550723D02*
X134369398Y-113645961D01*
X134369398Y-113645961D02*
X134464636Y-113741200D01*
X134464636Y-113741200D02*
X134607493Y-113788819D01*
X134607493Y-113788819D02*
X134702731Y-113788819D01*
X134702731Y-113788819D02*
X134845588Y-113741200D01*
X134845588Y-113741200D02*
X134893207Y-113693580D01*
X134893207Y-113693580D02*
X134893207Y-113360247D01*
X134893207Y-113360247D02*
X134702731Y-113360247D01*
X135321779Y-113788819D02*
X135321779Y-112788819D01*
X135321779Y-112788819D02*
X135893207Y-113788819D01*
X135893207Y-113788819D02*
X135893207Y-112788819D01*
X136369398Y-113788819D02*
X136369398Y-112788819D01*
X136369398Y-112788819D02*
X136607493Y-112788819D01*
X136607493Y-112788819D02*
X136750350Y-112836438D01*
X136750350Y-112836438D02*
X136845588Y-112931676D01*
X136845588Y-112931676D02*
X136893207Y-113026914D01*
X136893207Y-113026914D02*
X136940826Y-113217390D01*
X136940826Y-113217390D02*
X136940826Y-113360247D01*
X136940826Y-113360247D02*
X136893207Y-113550723D01*
X136893207Y-113550723D02*
X136845588Y-113645961D01*
X136845588Y-113645961D02*
X136750350Y-113741200D01*
X136750350Y-113741200D02*
X136607493Y-113788819D01*
X136607493Y-113788819D02*
X136369398Y-113788819D01*
X187169588Y-73085438D02*
X187074350Y-73037819D01*
X187074350Y-73037819D02*
X186931493Y-73037819D01*
X186931493Y-73037819D02*
X186788636Y-73085438D01*
X186788636Y-73085438D02*
X186693398Y-73180676D01*
X186693398Y-73180676D02*
X186645779Y-73275914D01*
X186645779Y-73275914D02*
X186598160Y-73466390D01*
X186598160Y-73466390D02*
X186598160Y-73609247D01*
X186598160Y-73609247D02*
X186645779Y-73799723D01*
X186645779Y-73799723D02*
X186693398Y-73894961D01*
X186693398Y-73894961D02*
X186788636Y-73990200D01*
X186788636Y-73990200D02*
X186931493Y-74037819D01*
X186931493Y-74037819D02*
X187026731Y-74037819D01*
X187026731Y-74037819D02*
X187169588Y-73990200D01*
X187169588Y-73990200D02*
X187217207Y-73942580D01*
X187217207Y-73942580D02*
X187217207Y-73609247D01*
X187217207Y-73609247D02*
X187026731Y-73609247D01*
X187645779Y-74037819D02*
X187645779Y-73037819D01*
X187645779Y-73037819D02*
X188217207Y-74037819D01*
X188217207Y-74037819D02*
X188217207Y-73037819D01*
X188693398Y-74037819D02*
X188693398Y-73037819D01*
X188693398Y-73037819D02*
X188931493Y-73037819D01*
X188931493Y-73037819D02*
X189074350Y-73085438D01*
X189074350Y-73085438D02*
X189169588Y-73180676D01*
X189169588Y-73180676D02*
X189217207Y-73275914D01*
X189217207Y-73275914D02*
X189264826Y-73466390D01*
X189264826Y-73466390D02*
X189264826Y-73609247D01*
X189264826Y-73609247D02*
X189217207Y-73799723D01*
X189217207Y-73799723D02*
X189169588Y-73894961D01*
X189169588Y-73894961D02*
X189074350Y-73990200D01*
X189074350Y-73990200D02*
X188931493Y-74037819D01*
X188931493Y-74037819D02*
X188693398Y-74037819D01*
X172859819Y-75291744D02*
X172859819Y-75101268D01*
X172859819Y-75101268D02*
X172907438Y-75006030D01*
X172907438Y-75006030D02*
X173002676Y-74910792D01*
X173002676Y-74910792D02*
X173193152Y-74863173D01*
X173193152Y-74863173D02*
X173526485Y-74863173D01*
X173526485Y-74863173D02*
X173716961Y-74910792D01*
X173716961Y-74910792D02*
X173812200Y-75006030D01*
X173812200Y-75006030D02*
X173859819Y-75101268D01*
X173859819Y-75101268D02*
X173859819Y-75291744D01*
X173859819Y-75291744D02*
X173812200Y-75386982D01*
X173812200Y-75386982D02*
X173716961Y-75482220D01*
X173716961Y-75482220D02*
X173526485Y-75529839D01*
X173526485Y-75529839D02*
X173193152Y-75529839D01*
X173193152Y-75529839D02*
X173002676Y-75482220D01*
X173002676Y-75482220D02*
X172907438Y-75386982D01*
X172907438Y-75386982D02*
X172859819Y-75291744D01*
X172859819Y-74434601D02*
X173669342Y-74434601D01*
X173669342Y-74434601D02*
X173764580Y-74386982D01*
X173764580Y-74386982D02*
X173812200Y-74339363D01*
X173812200Y-74339363D02*
X173859819Y-74244125D01*
X173859819Y-74244125D02*
X173859819Y-74053649D01*
X173859819Y-74053649D02*
X173812200Y-73958411D01*
X173812200Y-73958411D02*
X173764580Y-73910792D01*
X173764580Y-73910792D02*
X173669342Y-73863173D01*
X173669342Y-73863173D02*
X172859819Y-73863173D01*
X172859819Y-73529839D02*
X172859819Y-72958411D01*
X173859819Y-73244125D02*
X172859819Y-73244125D01*
X173859819Y-72625077D02*
X172859819Y-72625077D01*
X172859819Y-72625077D02*
X172859819Y-72244125D01*
X172859819Y-72244125D02*
X172907438Y-72148887D01*
X172907438Y-72148887D02*
X172955057Y-72101268D01*
X172955057Y-72101268D02*
X173050295Y-72053649D01*
X173050295Y-72053649D02*
X173193152Y-72053649D01*
X173193152Y-72053649D02*
X173288390Y-72101268D01*
X173288390Y-72101268D02*
X173336009Y-72148887D01*
X173336009Y-72148887D02*
X173383628Y-72244125D01*
X173383628Y-72244125D02*
X173383628Y-72625077D01*
X172859819Y-71625077D02*
X173669342Y-71625077D01*
X173669342Y-71625077D02*
X173764580Y-71577458D01*
X173764580Y-71577458D02*
X173812200Y-71529839D01*
X173812200Y-71529839D02*
X173859819Y-71434601D01*
X173859819Y-71434601D02*
X173859819Y-71244125D01*
X173859819Y-71244125D02*
X173812200Y-71148887D01*
X173812200Y-71148887D02*
X173764580Y-71101268D01*
X173764580Y-71101268D02*
X173669342Y-71053649D01*
X173669342Y-71053649D02*
X172859819Y-71053649D01*
X172859819Y-70720315D02*
X172859819Y-70148887D01*
X173859819Y-70434601D02*
X172859819Y-70434601D01*
X173812200Y-69863172D02*
X173859819Y-69720315D01*
X173859819Y-69720315D02*
X173859819Y-69482220D01*
X173859819Y-69482220D02*
X173812200Y-69386982D01*
X173812200Y-69386982D02*
X173764580Y-69339363D01*
X173764580Y-69339363D02*
X173669342Y-69291744D01*
X173669342Y-69291744D02*
X173574104Y-69291744D01*
X173574104Y-69291744D02*
X173478866Y-69339363D01*
X173478866Y-69339363D02*
X173431247Y-69386982D01*
X173431247Y-69386982D02*
X173383628Y-69482220D01*
X173383628Y-69482220D02*
X173336009Y-69672696D01*
X173336009Y-69672696D02*
X173288390Y-69767934D01*
X173288390Y-69767934D02*
X173240771Y-69815553D01*
X173240771Y-69815553D02*
X173145533Y-69863172D01*
X173145533Y-69863172D02*
X173050295Y-69863172D01*
X173050295Y-69863172D02*
X172955057Y-69815553D01*
X172955057Y-69815553D02*
X172907438Y-69767934D01*
X172907438Y-69767934D02*
X172859819Y-69672696D01*
X172859819Y-69672696D02*
X172859819Y-69434601D01*
X172859819Y-69434601D02*
X172907438Y-69291744D01*
X167446438Y-67973411D02*
X167398819Y-68068649D01*
X167398819Y-68068649D02*
X167398819Y-68211506D01*
X167398819Y-68211506D02*
X167446438Y-68354363D01*
X167446438Y-68354363D02*
X167541676Y-68449601D01*
X167541676Y-68449601D02*
X167636914Y-68497220D01*
X167636914Y-68497220D02*
X167827390Y-68544839D01*
X167827390Y-68544839D02*
X167970247Y-68544839D01*
X167970247Y-68544839D02*
X168160723Y-68497220D01*
X168160723Y-68497220D02*
X168255961Y-68449601D01*
X168255961Y-68449601D02*
X168351200Y-68354363D01*
X168351200Y-68354363D02*
X168398819Y-68211506D01*
X168398819Y-68211506D02*
X168398819Y-68116268D01*
X168398819Y-68116268D02*
X168351200Y-67973411D01*
X168351200Y-67973411D02*
X168303580Y-67925792D01*
X168303580Y-67925792D02*
X167970247Y-67925792D01*
X167970247Y-67925792D02*
X167970247Y-68116268D01*
X168398819Y-67497220D02*
X167398819Y-67497220D01*
X167398819Y-67497220D02*
X168398819Y-66925792D01*
X168398819Y-66925792D02*
X167398819Y-66925792D01*
X168398819Y-66449601D02*
X167398819Y-66449601D01*
X167398819Y-66449601D02*
X167398819Y-66211506D01*
X167398819Y-66211506D02*
X167446438Y-66068649D01*
X167446438Y-66068649D02*
X167541676Y-65973411D01*
X167541676Y-65973411D02*
X167636914Y-65925792D01*
X167636914Y-65925792D02*
X167827390Y-65878173D01*
X167827390Y-65878173D02*
X167970247Y-65878173D01*
X167970247Y-65878173D02*
X168160723Y-65925792D01*
X168160723Y-65925792D02*
X168255961Y-65973411D01*
X168255961Y-65973411D02*
X168351200Y-66068649D01*
X168351200Y-66068649D02*
X168398819Y-66211506D01*
X168398819Y-66211506D02*
X168398819Y-66449601D01*
X186264779Y-100311009D02*
X186598112Y-100311009D01*
X186740969Y-100834819D02*
X186264779Y-100834819D01*
X186264779Y-100834819D02*
X186264779Y-99834819D01*
X186264779Y-99834819D02*
X186740969Y-99834819D01*
X187169541Y-100834819D02*
X187169541Y-99834819D01*
X187169541Y-99834819D02*
X187740969Y-100834819D01*
X187740969Y-100834819D02*
X187740969Y-99834819D01*
X188788588Y-100739580D02*
X188740969Y-100787200D01*
X188740969Y-100787200D02*
X188598112Y-100834819D01*
X188598112Y-100834819D02*
X188502874Y-100834819D01*
X188502874Y-100834819D02*
X188360017Y-100787200D01*
X188360017Y-100787200D02*
X188264779Y-100691961D01*
X188264779Y-100691961D02*
X188217160Y-100596723D01*
X188217160Y-100596723D02*
X188169541Y-100406247D01*
X188169541Y-100406247D02*
X188169541Y-100263390D01*
X188169541Y-100263390D02*
X188217160Y-100072914D01*
X188217160Y-100072914D02*
X188264779Y-99977676D01*
X188264779Y-99977676D02*
X188360017Y-99882438D01*
X188360017Y-99882438D02*
X188502874Y-99834819D01*
X188502874Y-99834819D02*
X188598112Y-99834819D01*
X188598112Y-99834819D02*
X188740969Y-99882438D01*
X188740969Y-99882438D02*
X188788588Y-99930057D01*
X189931446Y-100787200D02*
X190074303Y-100834819D01*
X190074303Y-100834819D02*
X190312398Y-100834819D01*
X190312398Y-100834819D02*
X190407636Y-100787200D01*
X190407636Y-100787200D02*
X190455255Y-100739580D01*
X190455255Y-100739580D02*
X190502874Y-100644342D01*
X190502874Y-100644342D02*
X190502874Y-100549104D01*
X190502874Y-100549104D02*
X190455255Y-100453866D01*
X190455255Y-100453866D02*
X190407636Y-100406247D01*
X190407636Y-100406247D02*
X190312398Y-100358628D01*
X190312398Y-100358628D02*
X190121922Y-100311009D01*
X190121922Y-100311009D02*
X190026684Y-100263390D01*
X190026684Y-100263390D02*
X189979065Y-100215771D01*
X189979065Y-100215771D02*
X189931446Y-100120533D01*
X189931446Y-100120533D02*
X189931446Y-100025295D01*
X189931446Y-100025295D02*
X189979065Y-99930057D01*
X189979065Y-99930057D02*
X190026684Y-99882438D01*
X190026684Y-99882438D02*
X190121922Y-99834819D01*
X190121922Y-99834819D02*
X190360017Y-99834819D01*
X190360017Y-99834819D02*
X190502874Y-99882438D01*
X190836208Y-99834819D02*
X191074303Y-100834819D01*
X191074303Y-100834819D02*
X191264779Y-100120533D01*
X191264779Y-100120533D02*
X191455255Y-100834819D01*
X191455255Y-100834819D02*
X191693351Y-99834819D01*
X186264779Y-105518009D02*
X186598112Y-105518009D01*
X186740969Y-106041819D02*
X186264779Y-106041819D01*
X186264779Y-106041819D02*
X186264779Y-105041819D01*
X186264779Y-105041819D02*
X186740969Y-105041819D01*
X187169541Y-106041819D02*
X187169541Y-105041819D01*
X187169541Y-105041819D02*
X187740969Y-106041819D01*
X187740969Y-106041819D02*
X187740969Y-105041819D01*
X188788588Y-105946580D02*
X188740969Y-105994200D01*
X188740969Y-105994200D02*
X188598112Y-106041819D01*
X188598112Y-106041819D02*
X188502874Y-106041819D01*
X188502874Y-106041819D02*
X188360017Y-105994200D01*
X188360017Y-105994200D02*
X188264779Y-105898961D01*
X188264779Y-105898961D02*
X188217160Y-105803723D01*
X188217160Y-105803723D02*
X188169541Y-105613247D01*
X188169541Y-105613247D02*
X188169541Y-105470390D01*
X188169541Y-105470390D02*
X188217160Y-105279914D01*
X188217160Y-105279914D02*
X188264779Y-105184676D01*
X188264779Y-105184676D02*
X188360017Y-105089438D01*
X188360017Y-105089438D02*
X188502874Y-105041819D01*
X188502874Y-105041819D02*
X188598112Y-105041819D01*
X188598112Y-105041819D02*
X188740969Y-105089438D01*
X188740969Y-105089438D02*
X188788588Y-105137057D01*
X189931446Y-105756104D02*
X190407636Y-105756104D01*
X189836208Y-106041819D02*
X190169541Y-105041819D01*
X190169541Y-105041819D02*
X190502874Y-106041819D01*
X187868160Y-123663104D02*
X188344350Y-123663104D01*
X187772922Y-123948819D02*
X188106255Y-122948819D01*
X188106255Y-122948819D02*
X188439588Y-123948819D01*
X186518779Y-76323866D02*
X187280684Y-76323866D01*
X186899731Y-76704819D02*
X186899731Y-75942914D01*
X187614017Y-75704819D02*
X187947350Y-76704819D01*
X187947350Y-76704819D02*
X188280683Y-75704819D01*
X187423588Y-120583438D02*
X187328350Y-120535819D01*
X187328350Y-120535819D02*
X187185493Y-120535819D01*
X187185493Y-120535819D02*
X187042636Y-120583438D01*
X187042636Y-120583438D02*
X186947398Y-120678676D01*
X186947398Y-120678676D02*
X186899779Y-120773914D01*
X186899779Y-120773914D02*
X186852160Y-120964390D01*
X186852160Y-120964390D02*
X186852160Y-121107247D01*
X186852160Y-121107247D02*
X186899779Y-121297723D01*
X186899779Y-121297723D02*
X186947398Y-121392961D01*
X186947398Y-121392961D02*
X187042636Y-121488200D01*
X187042636Y-121488200D02*
X187185493Y-121535819D01*
X187185493Y-121535819D02*
X187280731Y-121535819D01*
X187280731Y-121535819D02*
X187423588Y-121488200D01*
X187423588Y-121488200D02*
X187471207Y-121440580D01*
X187471207Y-121440580D02*
X187471207Y-121107247D01*
X187471207Y-121107247D02*
X187280731Y-121107247D01*
X187899779Y-121535819D02*
X187899779Y-120535819D01*
X187899779Y-120535819D02*
X188471207Y-121535819D01*
X188471207Y-121535819D02*
X188471207Y-120535819D01*
X188947398Y-121535819D02*
X188947398Y-120535819D01*
X188947398Y-120535819D02*
X189185493Y-120535819D01*
X189185493Y-120535819D02*
X189328350Y-120583438D01*
X189328350Y-120583438D02*
X189423588Y-120678676D01*
X189423588Y-120678676D02*
X189471207Y-120773914D01*
X189471207Y-120773914D02*
X189518826Y-120964390D01*
X189518826Y-120964390D02*
X189518826Y-121107247D01*
X189518826Y-121107247D02*
X189471207Y-121297723D01*
X189471207Y-121297723D02*
X189423588Y-121392961D01*
X189423588Y-121392961D02*
X189328350Y-121488200D01*
X189328350Y-121488200D02*
X189185493Y-121535819D01*
X189185493Y-121535819D02*
X188947398Y-121535819D01*
X134956779Y-106295819D02*
X134956779Y-105295819D01*
X134956779Y-105295819D02*
X135528207Y-106295819D01*
X135528207Y-106295819D02*
X135528207Y-105295819D01*
X136575826Y-106200580D02*
X136528207Y-106248200D01*
X136528207Y-106248200D02*
X136385350Y-106295819D01*
X136385350Y-106295819D02*
X136290112Y-106295819D01*
X136290112Y-106295819D02*
X136147255Y-106248200D01*
X136147255Y-106248200D02*
X136052017Y-106152961D01*
X136052017Y-106152961D02*
X136004398Y-106057723D01*
X136004398Y-106057723D02*
X135956779Y-105867247D01*
X135956779Y-105867247D02*
X135956779Y-105724390D01*
X135956779Y-105724390D02*
X136004398Y-105533914D01*
X136004398Y-105533914D02*
X136052017Y-105438676D01*
X136052017Y-105438676D02*
X136147255Y-105343438D01*
X136147255Y-105343438D02*
X136290112Y-105295819D01*
X136290112Y-105295819D02*
X136385350Y-105295819D01*
X136385350Y-105295819D02*
X136528207Y-105343438D01*
X136528207Y-105343438D02*
X136575826Y-105391057D01*
X188487207Y-129187580D02*
X188439588Y-129235200D01*
X188439588Y-129235200D02*
X188296731Y-129282819D01*
X188296731Y-129282819D02*
X188201493Y-129282819D01*
X188201493Y-129282819D02*
X188058636Y-129235200D01*
X188058636Y-129235200D02*
X187963398Y-129139961D01*
X187963398Y-129139961D02*
X187915779Y-129044723D01*
X187915779Y-129044723D02*
X187868160Y-128854247D01*
X187868160Y-128854247D02*
X187868160Y-128711390D01*
X187868160Y-128711390D02*
X187915779Y-128520914D01*
X187915779Y-128520914D02*
X187963398Y-128425676D01*
X187963398Y-128425676D02*
X188058636Y-128330438D01*
X188058636Y-128330438D02*
X188201493Y-128282819D01*
X188201493Y-128282819D02*
X188296731Y-128282819D01*
X188296731Y-128282819D02*
X188439588Y-128330438D01*
X188439588Y-128330438D02*
X188487207Y-128378057D01*
X188249112Y-126092009D02*
X188391969Y-126139628D01*
X188391969Y-126139628D02*
X188439588Y-126187247D01*
X188439588Y-126187247D02*
X188487207Y-126282485D01*
X188487207Y-126282485D02*
X188487207Y-126425342D01*
X188487207Y-126425342D02*
X188439588Y-126520580D01*
X188439588Y-126520580D02*
X188391969Y-126568200D01*
X188391969Y-126568200D02*
X188296731Y-126615819D01*
X188296731Y-126615819D02*
X187915779Y-126615819D01*
X187915779Y-126615819D02*
X187915779Y-125615819D01*
X187915779Y-125615819D02*
X188249112Y-125615819D01*
X188249112Y-125615819D02*
X188344350Y-125663438D01*
X188344350Y-125663438D02*
X188391969Y-125711057D01*
X188391969Y-125711057D02*
X188439588Y-125806295D01*
X188439588Y-125806295D02*
X188439588Y-125901533D01*
X188439588Y-125901533D02*
X188391969Y-125996771D01*
X188391969Y-125996771D02*
X188344350Y-126044390D01*
X188344350Y-126044390D02*
X188249112Y-126092009D01*
X188249112Y-126092009D02*
X187915779Y-126092009D01*
X165754207Y-68449819D02*
X165420874Y-67973628D01*
X165182779Y-68449819D02*
X165182779Y-67449819D01*
X165182779Y-67449819D02*
X165563731Y-67449819D01*
X165563731Y-67449819D02*
X165658969Y-67497438D01*
X165658969Y-67497438D02*
X165706588Y-67545057D01*
X165706588Y-67545057D02*
X165754207Y-67640295D01*
X165754207Y-67640295D02*
X165754207Y-67783152D01*
X165754207Y-67783152D02*
X165706588Y-67878390D01*
X165706588Y-67878390D02*
X165658969Y-67926009D01*
X165658969Y-67926009D02*
X165563731Y-67973628D01*
X165563731Y-67973628D02*
X165182779Y-67973628D01*
X132543779Y-111375819D02*
X132543779Y-110375819D01*
X132543779Y-110375819D02*
X132924731Y-110375819D01*
X132924731Y-110375819D02*
X133019969Y-110423438D01*
X133019969Y-110423438D02*
X133067588Y-110471057D01*
X133067588Y-110471057D02*
X133115207Y-110566295D01*
X133115207Y-110566295D02*
X133115207Y-110709152D01*
X133115207Y-110709152D02*
X133067588Y-110804390D01*
X133067588Y-110804390D02*
X133019969Y-110852009D01*
X133019969Y-110852009D02*
X132924731Y-110899628D01*
X132924731Y-110899628D02*
X132543779Y-110899628D01*
X134067588Y-110423438D02*
X133972350Y-110375819D01*
X133972350Y-110375819D02*
X133829493Y-110375819D01*
X133829493Y-110375819D02*
X133686636Y-110423438D01*
X133686636Y-110423438D02*
X133591398Y-110518676D01*
X133591398Y-110518676D02*
X133543779Y-110613914D01*
X133543779Y-110613914D02*
X133496160Y-110804390D01*
X133496160Y-110804390D02*
X133496160Y-110947247D01*
X133496160Y-110947247D02*
X133543779Y-111137723D01*
X133543779Y-111137723D02*
X133591398Y-111232961D01*
X133591398Y-111232961D02*
X133686636Y-111328200D01*
X133686636Y-111328200D02*
X133829493Y-111375819D01*
X133829493Y-111375819D02*
X133924731Y-111375819D01*
X133924731Y-111375819D02*
X134067588Y-111328200D01*
X134067588Y-111328200D02*
X134115207Y-111280580D01*
X134115207Y-111280580D02*
X134115207Y-110947247D01*
X134115207Y-110947247D02*
X133924731Y-110947247D01*
X134543779Y-110852009D02*
X134877112Y-110852009D01*
X135019969Y-111375819D02*
X134543779Y-111375819D01*
X134543779Y-111375819D02*
X134543779Y-110375819D01*
X134543779Y-110375819D02*
X135019969Y-110375819D01*
X135448541Y-111375819D02*
X135448541Y-110375819D01*
X135448541Y-110375819D02*
X135686636Y-110375819D01*
X135686636Y-110375819D02*
X135829493Y-110423438D01*
X135829493Y-110423438D02*
X135924731Y-110518676D01*
X135924731Y-110518676D02*
X135972350Y-110613914D01*
X135972350Y-110613914D02*
X136019969Y-110804390D01*
X136019969Y-110804390D02*
X136019969Y-110947247D01*
X136019969Y-110947247D02*
X135972350Y-111137723D01*
X135972350Y-111137723D02*
X135924731Y-111232961D01*
X135924731Y-111232961D02*
X135829493Y-111328200D01*
X135829493Y-111328200D02*
X135686636Y-111375819D01*
X135686636Y-111375819D02*
X135448541Y-111375819D01*
X136972350Y-111375819D02*
X136400922Y-111375819D01*
X136686636Y-111375819D02*
X136686636Y-110375819D01*
X136686636Y-110375819D02*
X136591398Y-110518676D01*
X136591398Y-110518676D02*
X136496160Y-110613914D01*
X136496160Y-110613914D02*
X136400922Y-110661533D01*
X170738969Y-68576819D02*
X170262779Y-68576819D01*
X170262779Y-68576819D02*
X170262779Y-67576819D01*
X133432779Y-118868819D02*
X133432779Y-117868819D01*
X133432779Y-117868819D02*
X133766112Y-118583104D01*
X133766112Y-118583104D02*
X134099445Y-117868819D01*
X134099445Y-117868819D02*
X134099445Y-118868819D01*
X135147064Y-118773580D02*
X135099445Y-118821200D01*
X135099445Y-118821200D02*
X134956588Y-118868819D01*
X134956588Y-118868819D02*
X134861350Y-118868819D01*
X134861350Y-118868819D02*
X134718493Y-118821200D01*
X134718493Y-118821200D02*
X134623255Y-118725961D01*
X134623255Y-118725961D02*
X134575636Y-118630723D01*
X134575636Y-118630723D02*
X134528017Y-118440247D01*
X134528017Y-118440247D02*
X134528017Y-118297390D01*
X134528017Y-118297390D02*
X134575636Y-118106914D01*
X134575636Y-118106914D02*
X134623255Y-118011676D01*
X134623255Y-118011676D02*
X134718493Y-117916438D01*
X134718493Y-117916438D02*
X134861350Y-117868819D01*
X134861350Y-117868819D02*
X134956588Y-117868819D01*
X134956588Y-117868819D02*
X135099445Y-117916438D01*
X135099445Y-117916438D02*
X135147064Y-117964057D01*
X136051826Y-118868819D02*
X135575636Y-118868819D01*
X135575636Y-118868819D02*
X135575636Y-117868819D01*
X136956588Y-118868819D02*
X136623255Y-118392628D01*
X136385160Y-118868819D02*
X136385160Y-117868819D01*
X136385160Y-117868819D02*
X136766112Y-117868819D01*
X136766112Y-117868819D02*
X136861350Y-117916438D01*
X136861350Y-117916438D02*
X136908969Y-117964057D01*
X136908969Y-117964057D02*
X136956588Y-118059295D01*
X136956588Y-118059295D02*
X136956588Y-118202152D01*
X136956588Y-118202152D02*
X136908969Y-118297390D01*
X136908969Y-118297390D02*
X136861350Y-118345009D01*
X136861350Y-118345009D02*
X136766112Y-118392628D01*
X136766112Y-118392628D02*
X136385160Y-118392628D01*
D11*
G36*
X134695398Y-95516427D02*
G01*
X134827518Y-95531665D01*
X134950479Y-95557986D01*
X135077862Y-95600845D01*
X135193605Y-95657149D01*
X135308499Y-95734802D01*
X135408963Y-95828339D01*
X135436288Y-95859498D01*
X135517909Y-95973328D01*
X135585696Y-96102329D01*
X135639649Y-96246499D01*
X135648780Y-96277153D01*
X135682724Y-96423586D01*
X135705559Y-96585088D01*
X135716531Y-96741296D01*
X135719000Y-96866267D01*
X135719000Y-97430468D01*
X135692743Y-97520593D01*
X135598710Y-97562359D01*
X133611794Y-97562359D01*
X133518371Y-97520593D01*
X133491505Y-97430468D01*
X133491505Y-97207718D01*
X133735748Y-97207718D01*
X135464987Y-97207718D01*
X135464987Y-96843552D01*
X135459799Y-96691597D01*
X135442109Y-96542628D01*
X135411864Y-96412708D01*
X135359330Y-96279974D01*
X135281792Y-96158399D01*
X135248832Y-96120349D01*
X135142026Y-96028486D01*
X135023802Y-95963529D01*
X134973448Y-95943762D01*
X134852122Y-95910388D01*
X134729428Y-95892070D01*
X134594927Y-95885200D01*
X134580828Y-95885143D01*
X134448879Y-95892665D01*
X134324144Y-95915231D01*
X134244994Y-95938632D01*
X134125538Y-95992129D01*
X134012671Y-96072192D01*
X133976327Y-96106427D01*
X133886534Y-96218085D01*
X133820318Y-96342614D01*
X133799251Y-96395855D01*
X133760553Y-96541416D01*
X133740771Y-96699830D01*
X133735748Y-96847216D01*
X133735748Y-97207718D01*
X133491505Y-97207718D01*
X133491505Y-96826699D01*
X133496199Y-96660462D01*
X133510281Y-96507596D01*
X133537345Y-96351607D01*
X133566609Y-96241982D01*
X133619608Y-96099887D01*
X133685487Y-95973105D01*
X133772830Y-95851331D01*
X133781543Y-95841180D01*
X133885094Y-95739115D01*
X133991378Y-95662407D01*
X134109230Y-95601013D01*
X134121651Y-95595715D01*
X134251453Y-95551666D01*
X134376840Y-95525970D01*
X134510341Y-95513490D01*
X134572279Y-95512184D01*
X134695398Y-95516427D01*
G37*
G36*
X135665877Y-94679805D02*
G01*
X135689080Y-94687865D01*
X135705566Y-94714976D01*
X135715946Y-94766267D01*
X135719000Y-94850531D01*
X135715946Y-94933329D01*
X135705566Y-94986085D01*
X135689080Y-95012464D01*
X135665877Y-95019791D01*
X134130810Y-95019791D01*
X134108829Y-95012464D01*
X134091732Y-94986085D01*
X134081351Y-94933329D01*
X134077688Y-94850531D01*
X134081351Y-94766267D01*
X134091732Y-94714976D01*
X134108829Y-94687865D01*
X134130810Y-94679805D01*
X135665877Y-94679805D01*
G37*
G36*
X133592255Y-94640237D02*
G01*
X133713060Y-94670228D01*
X133729031Y-94685667D01*
X133764740Y-94830592D01*
X133765057Y-94852729D01*
X133741677Y-94997471D01*
X133729642Y-95016860D01*
X133607961Y-95060652D01*
X133595919Y-95060824D01*
X133475517Y-95030833D01*
X133459753Y-95015394D01*
X133423439Y-94870469D01*
X133423117Y-94848332D01*
X133446496Y-94704074D01*
X133458532Y-94684934D01*
X133580212Y-94640412D01*
X133592255Y-94640237D01*
G37*
G36*
X134284683Y-92528514D02*
G01*
X134312161Y-92578339D01*
X134312161Y-92844320D01*
X134412501Y-92756172D01*
X134437946Y-92743936D01*
X134558293Y-92715342D01*
X134581438Y-92714627D01*
X134706308Y-92727633D01*
X134815912Y-92766651D01*
X134925514Y-92843316D01*
X134988103Y-92913929D01*
X135059865Y-93039960D01*
X135095570Y-93141075D01*
X135124633Y-93289274D01*
X135132817Y-93433434D01*
X135121272Y-93584401D01*
X135108392Y-93649588D01*
X135059649Y-93784619D01*
X135046110Y-93807125D01*
X135120605Y-93867942D01*
X135216470Y-93891389D01*
X135322105Y-93824711D01*
X135356699Y-93711870D01*
X135601763Y-93711870D01*
X135682974Y-93820314D01*
X135755636Y-93886993D01*
X135824635Y-93921431D01*
X135894854Y-93930224D01*
X136012015Y-93877272D01*
X136062161Y-93794669D01*
X136101397Y-93654941D01*
X136117540Y-93502579D01*
X136119558Y-93415115D01*
X136112492Y-93265116D01*
X136094523Y-93156462D01*
X136046297Y-93018485D01*
X136029188Y-92988667D01*
X135935154Y-92897076D01*
X135824635Y-92869233D01*
X135706344Y-92919955D01*
X135672593Y-92967418D01*
X135626436Y-93107683D01*
X135615196Y-93231933D01*
X135601763Y-93711870D01*
X135356699Y-93711870D01*
X135364585Y-93686145D01*
X135367290Y-93645925D01*
X135384387Y-93161591D01*
X135396430Y-93013806D01*
X135416749Y-92908800D01*
X135464934Y-92770419D01*
X135498570Y-92708765D01*
X135587552Y-92606266D01*
X135629240Y-92576874D01*
X135747149Y-92533898D01*
X135808759Y-92529247D01*
X135933226Y-92548104D01*
X136013923Y-92582736D01*
X136121328Y-92666403D01*
X136184893Y-92746867D01*
X136250991Y-92872163D01*
X136298817Y-93017579D01*
X136301519Y-93028235D01*
X136329193Y-93177228D01*
X136342216Y-93333008D01*
X136344261Y-93431968D01*
X136339710Y-93590856D01*
X136324509Y-93742054D01*
X136311899Y-93814452D01*
X136274194Y-93957884D01*
X136224582Y-94073106D01*
X136138630Y-94185159D01*
X136092691Y-94218919D01*
X135975155Y-94260754D01*
X135925385Y-94264348D01*
X135814865Y-94248228D01*
X135712893Y-94197669D01*
X135620081Y-94112673D01*
X135535474Y-94000276D01*
X135532764Y-93996169D01*
X135457017Y-94114270D01*
X135421023Y-94145646D01*
X135303629Y-94192306D01*
X135274478Y-94194006D01*
X135148206Y-94173970D01*
X135080915Y-94142715D01*
X134976342Y-94064666D01*
X134927653Y-94015220D01*
X134824384Y-94096003D01*
X134785992Y-94116337D01*
X134661812Y-94149395D01*
X134594872Y-94152973D01*
X134471071Y-94139601D01*
X134361009Y-94099484D01*
X134254663Y-94026325D01*
X134186376Y-93951473D01*
X134113379Y-93825184D01*
X134077077Y-93723594D01*
X134047061Y-93575285D01*
X134039002Y-93440028D01*
X134263312Y-93440028D01*
X134282004Y-93588695D01*
X134289568Y-93612219D01*
X134362230Y-93733852D01*
X134468476Y-93805660D01*
X134589573Y-93829084D01*
X134593651Y-93829107D01*
X134717352Y-93806245D01*
X134824460Y-93725060D01*
X134889732Y-93590934D01*
X134908032Y-93445076D01*
X134908113Y-93433434D01*
X134891183Y-93287724D01*
X134882468Y-93259044D01*
X134811637Y-93135946D01*
X134707224Y-93064138D01*
X134583881Y-93039958D01*
X134456673Y-93062820D01*
X134348187Y-93144006D01*
X134284531Y-93270035D01*
X134263644Y-93416375D01*
X134263312Y-93440028D01*
X134039002Y-93440028D01*
X134038609Y-93433434D01*
X134047732Y-93285099D01*
X134048989Y-93275897D01*
X134077688Y-93138877D01*
X134077688Y-92578339D01*
X134106997Y-92526316D01*
X134195535Y-92508730D01*
X134284683Y-92528514D01*
G37*
G36*
X135665877Y-91743029D02*
G01*
X135689080Y-91751089D01*
X135705566Y-91778200D01*
X135715946Y-91829491D01*
X135719000Y-91913755D01*
X135715946Y-91996553D01*
X135705566Y-92049309D01*
X135689080Y-92075688D01*
X135665877Y-92083015D01*
X134130810Y-92083015D01*
X134108829Y-92075688D01*
X134091732Y-92049309D01*
X134081351Y-91996553D01*
X134077688Y-91913755D01*
X134081351Y-91829491D01*
X134091732Y-91778200D01*
X134108829Y-91751089D01*
X134130810Y-91743029D01*
X135665877Y-91743029D01*
G37*
G36*
X133592255Y-91703461D02*
G01*
X133713060Y-91733452D01*
X133729031Y-91748891D01*
X133764740Y-91893816D01*
X133765057Y-91915953D01*
X133741677Y-92060695D01*
X133729642Y-92080084D01*
X133607961Y-92123876D01*
X133595919Y-92124048D01*
X133475517Y-92094057D01*
X133459753Y-92078618D01*
X133423439Y-91933693D01*
X133423117Y-91911556D01*
X133446496Y-91767298D01*
X133458532Y-91748158D01*
X133580212Y-91703636D01*
X133592255Y-91703461D01*
G37*
G36*
X133620343Y-89681131D02*
G01*
X133677740Y-89685527D01*
X133716819Y-89699449D01*
X133738801Y-89723629D01*
X133745517Y-89750740D01*
X133745517Y-90727467D01*
X134497785Y-90727467D01*
X134497785Y-89804229D01*
X134503891Y-89777118D01*
X134523431Y-89752938D01*
X134560067Y-89739016D01*
X134619296Y-89734620D01*
X134674861Y-89739016D01*
X134712108Y-89752938D01*
X134734701Y-89777118D01*
X134742028Y-89804229D01*
X134742028Y-90727467D01*
X135664045Y-90727467D01*
X135687248Y-90736260D01*
X135704345Y-90764836D01*
X135714725Y-90818325D01*
X135719000Y-90904787D01*
X135714725Y-90989784D01*
X135704345Y-91045471D01*
X135687248Y-91074048D01*
X135664045Y-91082108D01*
X133611184Y-91082108D01*
X133518371Y-91040342D01*
X133491505Y-90950217D01*
X133491505Y-89750740D01*
X133498832Y-89723629D01*
X133521424Y-89699449D01*
X133562335Y-89685527D01*
X133620343Y-89681131D01*
G37*
G36*
X135665877Y-88853147D02*
G01*
X135689080Y-88861207D01*
X135705566Y-88888318D01*
X135715946Y-88939609D01*
X135719000Y-89023873D01*
X135715946Y-89106672D01*
X135705566Y-89159428D01*
X135689080Y-89185806D01*
X135665877Y-89193133D01*
X134130810Y-89193133D01*
X134108829Y-89185806D01*
X134091732Y-89159428D01*
X134081351Y-89106672D01*
X134077688Y-89023873D01*
X134081351Y-88939609D01*
X134091732Y-88888318D01*
X134108829Y-88861207D01*
X134130810Y-88853147D01*
X135665877Y-88853147D01*
G37*
G36*
X133592255Y-88813580D02*
G01*
X133713060Y-88843570D01*
X133729031Y-88859009D01*
X133764740Y-89003935D01*
X133765057Y-89026071D01*
X133741677Y-89170814D01*
X133729642Y-89190203D01*
X133607961Y-89233995D01*
X133595919Y-89234166D01*
X133475517Y-89204176D01*
X133459753Y-89188737D01*
X133423439Y-89043811D01*
X133423117Y-89021675D01*
X133446496Y-88877416D01*
X133458532Y-88858277D01*
X133580212Y-88813755D01*
X133592255Y-88813580D01*
G37*
G36*
X135665877Y-87891808D02*
G01*
X135689690Y-87899868D01*
X135705566Y-87926979D01*
X135715946Y-87978270D01*
X135719000Y-88062533D01*
X135715946Y-88145332D01*
X135705566Y-88198088D01*
X135689690Y-88224466D01*
X135665877Y-88231794D01*
X133389533Y-88231794D01*
X133365720Y-88224466D01*
X133348623Y-88198088D01*
X133338853Y-88145332D01*
X133335189Y-88062533D01*
X133338853Y-87978270D01*
X133348623Y-87926979D01*
X133365720Y-87899868D01*
X133389533Y-87891808D01*
X135665877Y-87891808D01*
G37*
G36*
X135571233Y-86305450D02*
G01*
X135650612Y-86314243D01*
X135693965Y-86339156D01*
X135719610Y-86388249D01*
X135739760Y-86463720D01*
X135752583Y-86553113D01*
X135758078Y-86647635D01*
X135747839Y-86797042D01*
X135725716Y-86895297D01*
X135662724Y-87023832D01*
X135628630Y-87063824D01*
X135522343Y-87137529D01*
X135463155Y-87159812D01*
X135339293Y-87184103D01*
X135227461Y-87189854D01*
X134312161Y-87189854D01*
X134312161Y-87449240D01*
X134284683Y-87499065D01*
X134195535Y-87517383D01*
X134141191Y-87512254D01*
X134104554Y-87499065D01*
X134083794Y-87477816D01*
X134077688Y-87447774D01*
X134077688Y-87189854D01*
X133703996Y-87189854D01*
X133681404Y-87182526D01*
X133662475Y-87156148D01*
X133651484Y-87103392D01*
X133647820Y-87020593D01*
X133651484Y-86936330D01*
X133662475Y-86885039D01*
X133681404Y-86857928D01*
X133703996Y-86849868D01*
X134077688Y-86849868D01*
X134077688Y-86373594D01*
X134083794Y-86345018D01*
X134104554Y-86323769D01*
X134141191Y-86309847D01*
X134195535Y-86305450D01*
X134284683Y-86324501D01*
X134312161Y-86373594D01*
X134312161Y-86849868D01*
X135186550Y-86849868D01*
X135313058Y-86839068D01*
X135431404Y-86793448D01*
X135505786Y-86672957D01*
X135513836Y-86590482D01*
X135506508Y-86506218D01*
X135490022Y-86440272D01*
X135473535Y-86390447D01*
X135465598Y-86353078D01*
X135470482Y-86334027D01*
X135486969Y-86319372D01*
X135519331Y-86309847D01*
X135571233Y-86305450D01*
G37*
G36*
X134909334Y-84368116D02*
G01*
X134937422Y-84459707D01*
X134937422Y-85675304D01*
X135065039Y-85667610D01*
X135179223Y-85644529D01*
X135296292Y-85593519D01*
X135364237Y-85541947D01*
X135449964Y-85428436D01*
X135482695Y-85354369D01*
X135515775Y-85207897D01*
X135523605Y-85071535D01*
X135516688Y-84918120D01*
X135505898Y-84837062D01*
X135474667Y-84692627D01*
X135464987Y-84658277D01*
X135424687Y-84534445D01*
X135406369Y-84461173D01*
X135412475Y-84436260D01*
X135430793Y-84418674D01*
X135464987Y-84409149D01*
X135518110Y-84406218D01*
X135557799Y-84408416D01*
X135587719Y-84413545D01*
X135610922Y-84423803D01*
X135631072Y-84442122D01*
X135662824Y-84508800D01*
X135703657Y-84647638D01*
X135704956Y-84653147D01*
X135733120Y-84801800D01*
X135741592Y-84858311D01*
X135755760Y-85009952D01*
X135758078Y-85106706D01*
X135751729Y-85257210D01*
X135730320Y-85406188D01*
X135704345Y-85507509D01*
X135646976Y-85647658D01*
X135569973Y-85766769D01*
X135544366Y-85796937D01*
X135441116Y-85888579D01*
X135326823Y-85954086D01*
X135278141Y-85974257D01*
X135150858Y-86010424D01*
X135021359Y-86028913D01*
X134906281Y-86033608D01*
X134772584Y-86026335D01*
X134648555Y-86004516D01*
X134544191Y-85972059D01*
X134430161Y-85918169D01*
X134322131Y-85842347D01*
X134270639Y-85794006D01*
X134182383Y-85682808D01*
X134114229Y-85553098D01*
X134098448Y-85512638D01*
X134059704Y-85372156D01*
X134040712Y-85218614D01*
X134039018Y-85157997D01*
X134263312Y-85157997D01*
X134279353Y-85309842D01*
X134300559Y-85378549D01*
X134370168Y-85503433D01*
X134399478Y-85537551D01*
X134502746Y-85617098D01*
X134542360Y-85636469D01*
X134663201Y-85670454D01*
X134712719Y-85675304D01*
X134712719Y-84670000D01*
X134590264Y-84678687D01*
X134466616Y-84722926D01*
X134382991Y-84787969D01*
X134305504Y-84909131D01*
X134269039Y-85056392D01*
X134263312Y-85157997D01*
X134039018Y-85157997D01*
X134038609Y-85143343D01*
X134046766Y-84988749D01*
X134074014Y-84841969D01*
X134096616Y-84771849D01*
X134159719Y-84639669D01*
X134246254Y-84525294D01*
X134252321Y-84519058D01*
X134358567Y-84433329D01*
X134473700Y-84376915D01*
X134481909Y-84373978D01*
X134609582Y-84340844D01*
X134736007Y-84328222D01*
X134764010Y-84327816D01*
X134814690Y-84327816D01*
X134909334Y-84368116D01*
G37*
G36*
X134214464Y-82736330D02*
G01*
X134277356Y-82738528D01*
X134317046Y-82747321D01*
X134339027Y-82762708D01*
X134346965Y-82788353D01*
X134339027Y-82828653D01*
X134323762Y-82882143D01*
X134309108Y-82948821D01*
X134302391Y-83029421D01*
X134320709Y-83130538D01*
X134379938Y-83234585D01*
X134472569Y-83333961D01*
X134489237Y-83348891D01*
X134591606Y-83432469D01*
X134655933Y-83480782D01*
X135665877Y-83480782D01*
X135689080Y-83488842D01*
X135705566Y-83515953D01*
X135715946Y-83567244D01*
X135719000Y-83651508D01*
X135715946Y-83734306D01*
X135705566Y-83787062D01*
X135689080Y-83813441D01*
X135665877Y-83820768D01*
X134130810Y-83820768D01*
X134107607Y-83814906D01*
X134090510Y-83789993D01*
X134080130Y-83742366D01*
X134077688Y-83666162D01*
X134080130Y-83590691D01*
X134090510Y-83544529D01*
X134107607Y-83521082D01*
X134130810Y-83513755D01*
X134354293Y-83513755D01*
X134251918Y-83426621D01*
X134196756Y-83370872D01*
X134112408Y-83262854D01*
X134100891Y-83244110D01*
X134052042Y-83125408D01*
X134038609Y-83006706D01*
X134041051Y-82945890D01*
X134050210Y-82874815D01*
X134065475Y-82808137D01*
X134082572Y-82765639D01*
X134099059Y-82749519D01*
X134118598Y-82742191D01*
X134152792Y-82737795D01*
X134214464Y-82736330D01*
G37*
D10*
X186915588Y-87182438D02*
X186820350Y-87134819D01*
X186820350Y-87134819D02*
X186677493Y-87134819D01*
X186677493Y-87134819D02*
X186534636Y-87182438D01*
X186534636Y-87182438D02*
X186439398Y-87277676D01*
X186439398Y-87277676D02*
X186391779Y-87372914D01*
X186391779Y-87372914D02*
X186344160Y-87563390D01*
X186344160Y-87563390D02*
X186344160Y-87706247D01*
X186344160Y-87706247D02*
X186391779Y-87896723D01*
X186391779Y-87896723D02*
X186439398Y-87991961D01*
X186439398Y-87991961D02*
X186534636Y-88087200D01*
X186534636Y-88087200D02*
X186677493Y-88134819D01*
X186677493Y-88134819D02*
X186772731Y-88134819D01*
X186772731Y-88134819D02*
X186915588Y-88087200D01*
X186915588Y-88087200D02*
X186963207Y-88039580D01*
X186963207Y-88039580D02*
X186963207Y-87706247D01*
X186963207Y-87706247D02*
X186772731Y-87706247D01*
X187391779Y-88134819D02*
X187391779Y-87134819D01*
X187391779Y-87134819D02*
X187963207Y-88134819D01*
X187963207Y-88134819D02*
X187963207Y-87134819D01*
X188439398Y-88134819D02*
X188439398Y-87134819D01*
X188439398Y-87134819D02*
X188677493Y-87134819D01*
X188677493Y-87134819D02*
X188820350Y-87182438D01*
X188820350Y-87182438D02*
X188915588Y-87277676D01*
X188915588Y-87277676D02*
X188963207Y-87372914D01*
X188963207Y-87372914D02*
X189010826Y-87563390D01*
X189010826Y-87563390D02*
X189010826Y-87706247D01*
X189010826Y-87706247D02*
X188963207Y-87896723D01*
X188963207Y-87896723D02*
X188915588Y-87991961D01*
X188915588Y-87991961D02*
X188820350Y-88087200D01*
X188820350Y-88087200D02*
X188677493Y-88134819D01*
X188677493Y-88134819D02*
X188439398Y-88134819D01*
X134845588Y-128965438D02*
X134750350Y-128917819D01*
X134750350Y-128917819D02*
X134607493Y-128917819D01*
X134607493Y-128917819D02*
X134464636Y-128965438D01*
X134464636Y-128965438D02*
X134369398Y-129060676D01*
X134369398Y-129060676D02*
X134321779Y-129155914D01*
X134321779Y-129155914D02*
X134274160Y-129346390D01*
X134274160Y-129346390D02*
X134274160Y-129489247D01*
X134274160Y-129489247D02*
X134321779Y-129679723D01*
X134321779Y-129679723D02*
X134369398Y-129774961D01*
X134369398Y-129774961D02*
X134464636Y-129870200D01*
X134464636Y-129870200D02*
X134607493Y-129917819D01*
X134607493Y-129917819D02*
X134702731Y-129917819D01*
X134702731Y-129917819D02*
X134845588Y-129870200D01*
X134845588Y-129870200D02*
X134893207Y-129822580D01*
X134893207Y-129822580D02*
X134893207Y-129489247D01*
X134893207Y-129489247D02*
X134702731Y-129489247D01*
X135321779Y-129917819D02*
X135321779Y-128917819D01*
X135321779Y-128917819D02*
X135893207Y-129917819D01*
X135893207Y-129917819D02*
X135893207Y-128917819D01*
X136369398Y-129917819D02*
X136369398Y-128917819D01*
X136369398Y-128917819D02*
X136607493Y-128917819D01*
X136607493Y-128917819D02*
X136750350Y-128965438D01*
X136750350Y-128965438D02*
X136845588Y-129060676D01*
X136845588Y-129060676D02*
X136893207Y-129155914D01*
X136893207Y-129155914D02*
X136940826Y-129346390D01*
X136940826Y-129346390D02*
X136940826Y-129489247D01*
X136940826Y-129489247D02*
X136893207Y-129679723D01*
X136893207Y-129679723D02*
X136845588Y-129774961D01*
X136845588Y-129774961D02*
X136750350Y-129870200D01*
X136750350Y-129870200D02*
X136607493Y-129917819D01*
X136607493Y-129917819D02*
X136369398Y-129917819D01*
X132543779Y-108708819D02*
X132543779Y-107708819D01*
X132543779Y-107708819D02*
X132924731Y-107708819D01*
X132924731Y-107708819D02*
X133019969Y-107756438D01*
X133019969Y-107756438D02*
X133067588Y-107804057D01*
X133067588Y-107804057D02*
X133115207Y-107899295D01*
X133115207Y-107899295D02*
X133115207Y-108042152D01*
X133115207Y-108042152D02*
X133067588Y-108137390D01*
X133067588Y-108137390D02*
X133019969Y-108185009D01*
X133019969Y-108185009D02*
X132924731Y-108232628D01*
X132924731Y-108232628D02*
X132543779Y-108232628D01*
X134067588Y-107756438D02*
X133972350Y-107708819D01*
X133972350Y-107708819D02*
X133829493Y-107708819D01*
X133829493Y-107708819D02*
X133686636Y-107756438D01*
X133686636Y-107756438D02*
X133591398Y-107851676D01*
X133591398Y-107851676D02*
X133543779Y-107946914D01*
X133543779Y-107946914D02*
X133496160Y-108137390D01*
X133496160Y-108137390D02*
X133496160Y-108280247D01*
X133496160Y-108280247D02*
X133543779Y-108470723D01*
X133543779Y-108470723D02*
X133591398Y-108565961D01*
X133591398Y-108565961D02*
X133686636Y-108661200D01*
X133686636Y-108661200D02*
X133829493Y-108708819D01*
X133829493Y-108708819D02*
X133924731Y-108708819D01*
X133924731Y-108708819D02*
X134067588Y-108661200D01*
X134067588Y-108661200D02*
X134115207Y-108613580D01*
X134115207Y-108613580D02*
X134115207Y-108280247D01*
X134115207Y-108280247D02*
X133924731Y-108280247D01*
X134543779Y-108185009D02*
X134877112Y-108185009D01*
X135019969Y-108708819D02*
X134543779Y-108708819D01*
X134543779Y-108708819D02*
X134543779Y-107708819D01*
X134543779Y-107708819D02*
X135019969Y-107708819D01*
X136019969Y-108613580D02*
X135972350Y-108661200D01*
X135972350Y-108661200D02*
X135829493Y-108708819D01*
X135829493Y-108708819D02*
X135734255Y-108708819D01*
X135734255Y-108708819D02*
X135591398Y-108661200D01*
X135591398Y-108661200D02*
X135496160Y-108565961D01*
X135496160Y-108565961D02*
X135448541Y-108470723D01*
X135448541Y-108470723D02*
X135400922Y-108280247D01*
X135400922Y-108280247D02*
X135400922Y-108137390D01*
X135400922Y-108137390D02*
X135448541Y-107946914D01*
X135448541Y-107946914D02*
X135496160Y-107851676D01*
X135496160Y-107851676D02*
X135591398Y-107756438D01*
X135591398Y-107756438D02*
X135734255Y-107708819D01*
X135734255Y-107708819D02*
X135829493Y-107708819D01*
X135829493Y-107708819D02*
X135972350Y-107756438D01*
X135972350Y-107756438D02*
X136019969Y-107804057D01*
X136972350Y-108708819D02*
X136400922Y-108708819D01*
X136686636Y-108708819D02*
X136686636Y-107708819D01*
X136686636Y-107708819D02*
X136591398Y-107851676D01*
X136591398Y-107851676D02*
X136496160Y-107946914D01*
X136496160Y-107946914D02*
X136400922Y-107994533D01*
X133258160Y-127092104D02*
X133734350Y-127092104D01*
X133162922Y-127377819D02*
X133496255Y-126377819D01*
X133496255Y-126377819D02*
X133829588Y-127377819D01*
X134496255Y-126854009D02*
X134162922Y-126854009D01*
X134162922Y-127377819D02*
X134162922Y-126377819D01*
X134162922Y-126377819D02*
X134639112Y-126377819D01*
X135781970Y-127377819D02*
X135781970Y-126377819D01*
X136258160Y-127377819D02*
X136258160Y-126377819D01*
X136258160Y-126377819D02*
X136829588Y-127377819D01*
X136829588Y-127377819D02*
X136829588Y-126377819D01*
X186740969Y-95500819D02*
X186264779Y-95500819D01*
X186264779Y-95500819D02*
X186264779Y-94500819D01*
X187074303Y-94977009D02*
X187407636Y-94977009D01*
X187550493Y-95500819D02*
X187074303Y-95500819D01*
X187074303Y-95500819D02*
X187074303Y-94500819D01*
X187074303Y-94500819D02*
X187550493Y-94500819D01*
X187979065Y-95500819D02*
X187979065Y-94500819D01*
X187979065Y-94500819D02*
X188217160Y-94500819D01*
X188217160Y-94500819D02*
X188360017Y-94548438D01*
X188360017Y-94548438D02*
X188455255Y-94643676D01*
X188455255Y-94643676D02*
X188502874Y-94738914D01*
X188502874Y-94738914D02*
X188550493Y-94929390D01*
X188550493Y-94929390D02*
X188550493Y-95072247D01*
X188550493Y-95072247D02*
X188502874Y-95262723D01*
X188502874Y-95262723D02*
X188455255Y-95357961D01*
X188455255Y-95357961D02*
X188360017Y-95453200D01*
X188360017Y-95453200D02*
X188217160Y-95500819D01*
X188217160Y-95500819D02*
X187979065Y-95500819D01*
X190312398Y-95500819D02*
X189979065Y-95024628D01*
X189740970Y-95500819D02*
X189740970Y-94500819D01*
X189740970Y-94500819D02*
X190121922Y-94500819D01*
X190121922Y-94500819D02*
X190217160Y-94548438D01*
X190217160Y-94548438D02*
X190264779Y-94596057D01*
X190264779Y-94596057D02*
X190312398Y-94691295D01*
X190312398Y-94691295D02*
X190312398Y-94834152D01*
X190312398Y-94834152D02*
X190264779Y-94929390D01*
X190264779Y-94929390D02*
X190217160Y-94977009D01*
X190217160Y-94977009D02*
X190121922Y-95024628D01*
X190121922Y-95024628D02*
X189740970Y-95024628D01*
X186788588Y-97342438D02*
X186693350Y-97294819D01*
X186693350Y-97294819D02*
X186550493Y-97294819D01*
X186550493Y-97294819D02*
X186407636Y-97342438D01*
X186407636Y-97342438D02*
X186312398Y-97437676D01*
X186312398Y-97437676D02*
X186264779Y-97532914D01*
X186264779Y-97532914D02*
X186217160Y-97723390D01*
X186217160Y-97723390D02*
X186217160Y-97866247D01*
X186217160Y-97866247D02*
X186264779Y-98056723D01*
X186264779Y-98056723D02*
X186312398Y-98151961D01*
X186312398Y-98151961D02*
X186407636Y-98247200D01*
X186407636Y-98247200D02*
X186550493Y-98294819D01*
X186550493Y-98294819D02*
X186645731Y-98294819D01*
X186645731Y-98294819D02*
X186788588Y-98247200D01*
X186788588Y-98247200D02*
X186836207Y-98199580D01*
X186836207Y-98199580D02*
X186836207Y-97866247D01*
X186836207Y-97866247D02*
X186645731Y-97866247D01*
X187264779Y-98294819D02*
X187264779Y-97294819D01*
X187264779Y-97294819D02*
X187836207Y-98294819D01*
X187836207Y-98294819D02*
X187836207Y-97294819D01*
X188312398Y-98294819D02*
X188312398Y-97294819D01*
X188312398Y-97294819D02*
X188550493Y-97294819D01*
X188550493Y-97294819D02*
X188693350Y-97342438D01*
X188693350Y-97342438D02*
X188788588Y-97437676D01*
X188788588Y-97437676D02*
X188836207Y-97532914D01*
X188836207Y-97532914D02*
X188883826Y-97723390D01*
X188883826Y-97723390D02*
X188883826Y-97866247D01*
X188883826Y-97866247D02*
X188836207Y-98056723D01*
X188836207Y-98056723D02*
X188788588Y-98151961D01*
X188788588Y-98151961D02*
X188693350Y-98247200D01*
X188693350Y-98247200D02*
X188550493Y-98294819D01*
X188550493Y-98294819D02*
X188312398Y-98294819D01*
X187956866Y-84372220D02*
X187956866Y-83610316D01*
X188337819Y-83991268D02*
X187575914Y-83991268D01*
X187337819Y-82657935D02*
X187337819Y-83134125D01*
X187337819Y-83134125D02*
X187814009Y-83181744D01*
X187814009Y-83181744D02*
X187766390Y-83134125D01*
X187766390Y-83134125D02*
X187718771Y-83038887D01*
X187718771Y-83038887D02*
X187718771Y-82800792D01*
X187718771Y-82800792D02*
X187766390Y-82705554D01*
X187766390Y-82705554D02*
X187814009Y-82657935D01*
X187814009Y-82657935D02*
X187909247Y-82610316D01*
X187909247Y-82610316D02*
X188147342Y-82610316D01*
X188147342Y-82610316D02*
X188242580Y-82657935D01*
X188242580Y-82657935D02*
X188290200Y-82705554D01*
X188290200Y-82705554D02*
X188337819Y-82800792D01*
X188337819Y-82800792D02*
X188337819Y-83038887D01*
X188337819Y-83038887D02*
X188290200Y-83134125D01*
X188290200Y-83134125D02*
X188242580Y-83181744D01*
X187337819Y-82324601D02*
X188337819Y-81991268D01*
X188337819Y-81991268D02*
X187337819Y-81657935D01*
X188242580Y-81324601D02*
X188290200Y-81276982D01*
X188290200Y-81276982D02*
X188337819Y-81324601D01*
X188337819Y-81324601D02*
X188290200Y-81372220D01*
X188290200Y-81372220D02*
X188242580Y-81324601D01*
X188242580Y-81324601D02*
X188337819Y-81324601D01*
X188242580Y-80848411D02*
X188290200Y-80800792D01*
X188290200Y-80800792D02*
X188337819Y-80848411D01*
X188337819Y-80848411D02*
X188290200Y-80896030D01*
X188290200Y-80896030D02*
X188242580Y-80848411D01*
X188242580Y-80848411D02*
X188337819Y-80848411D01*
X188337819Y-79848412D02*
X188337819Y-80419840D01*
X188337819Y-80134126D02*
X187337819Y-80134126D01*
X187337819Y-80134126D02*
X187480676Y-80229364D01*
X187480676Y-80229364D02*
X187575914Y-80324602D01*
X187575914Y-80324602D02*
X187623533Y-80419840D01*
X187337819Y-78991269D02*
X187337819Y-79181745D01*
X187337819Y-79181745D02*
X187385438Y-79276983D01*
X187385438Y-79276983D02*
X187433057Y-79324602D01*
X187433057Y-79324602D02*
X187575914Y-79419840D01*
X187575914Y-79419840D02*
X187766390Y-79467459D01*
X187766390Y-79467459D02*
X188147342Y-79467459D01*
X188147342Y-79467459D02*
X188242580Y-79419840D01*
X188242580Y-79419840D02*
X188290200Y-79372221D01*
X188290200Y-79372221D02*
X188337819Y-79276983D01*
X188337819Y-79276983D02*
X188337819Y-79086507D01*
X188337819Y-79086507D02*
X188290200Y-78991269D01*
X188290200Y-78991269D02*
X188242580Y-78943650D01*
X188242580Y-78943650D02*
X188147342Y-78896031D01*
X188147342Y-78896031D02*
X187909247Y-78896031D01*
X187909247Y-78896031D02*
X187814009Y-78943650D01*
X187814009Y-78943650D02*
X187766390Y-78991269D01*
X187766390Y-78991269D02*
X187718771Y-79086507D01*
X187718771Y-79086507D02*
X187718771Y-79276983D01*
X187718771Y-79276983D02*
X187766390Y-79372221D01*
X187766390Y-79372221D02*
X187814009Y-79419840D01*
X187814009Y-79419840D02*
X187909247Y-79467459D01*
X187337819Y-78610316D02*
X188337819Y-78276983D01*
X188337819Y-78276983D02*
X187337819Y-77943650D01*
G36*
X137652398Y-97153020D02*
G01*
X137729858Y-97187951D01*
X137808091Y-97219378D01*
X137887097Y-97247302D01*
X137966876Y-97271722D01*
X138047427Y-97292640D01*
X138074450Y-97298833D01*
X138155735Y-97315144D01*
X138237201Y-97328080D01*
X138318847Y-97337641D01*
X138400674Y-97343828D01*
X138482681Y-97346640D01*
X138510057Y-97346827D01*
X138592360Y-97345101D01*
X138674405Y-97339923D01*
X138756193Y-97331294D01*
X138837724Y-97319212D01*
X138918997Y-97303679D01*
X138946030Y-97297734D01*
X139026668Y-97277753D01*
X139106738Y-97254629D01*
X139186242Y-97228363D01*
X139265179Y-97198953D01*
X139343550Y-97166401D01*
X139369547Y-97154852D01*
X139390430Y-97149357D01*
X139404718Y-97156318D01*
X139413145Y-97178300D01*
X139415709Y-97218966D01*
X139414610Y-97250840D01*
X139410580Y-97274287D01*
X139403253Y-97290041D01*
X139394094Y-97299200D01*
X139328585Y-97332716D01*
X139255946Y-97366609D01*
X139182702Y-97397385D01*
X139108930Y-97424793D01*
X139034205Y-97449083D01*
X138965448Y-97468460D01*
X138889121Y-97486461D01*
X138812276Y-97501172D01*
X138741965Y-97511691D01*
X138663833Y-97519826D01*
X138585094Y-97524584D01*
X138512988Y-97525979D01*
X138433785Y-97524118D01*
X138355361Y-97518533D01*
X138284743Y-97510226D01*
X138207590Y-97497585D01*
X138130784Y-97481827D01*
X138061260Y-97464796D01*
X137985167Y-97442923D01*
X137910025Y-97418105D01*
X137842541Y-97392989D01*
X137768958Y-97362768D01*
X137695808Y-97330036D01*
X137629683Y-97298101D01*
X137622722Y-97292605D01*
X137616494Y-97279782D01*
X137611732Y-97257068D01*
X137610266Y-97220065D01*
X137613563Y-97181963D01*
X137621623Y-97159249D01*
X137634812Y-97150090D01*
X137652398Y-97153020D01*
G37*
G36*
X138902799Y-96202672D02*
G01*
X138933940Y-96203771D01*
X138955556Y-96207434D01*
X138970943Y-96213662D01*
X138990360Y-96230149D01*
X139021501Y-96273746D01*
X139053921Y-96340936D01*
X139054840Y-96343355D01*
X139075918Y-96416004D01*
X139078288Y-96427253D01*
X139087009Y-96500025D01*
X139087447Y-96521042D01*
X139081945Y-96598557D01*
X139063712Y-96673651D01*
X139054108Y-96698362D01*
X139016090Y-96765279D01*
X138964549Y-96821087D01*
X138956655Y-96827689D01*
X138894695Y-96868511D01*
X138827240Y-96898004D01*
X138798752Y-96907190D01*
X138724615Y-96923711D01*
X138649504Y-96932156D01*
X138582963Y-96934301D01*
X138507960Y-96931664D01*
X138431896Y-96922548D01*
X138357070Y-96904999D01*
X138344460Y-96900962D01*
X138274771Y-96872231D01*
X138210669Y-96833315D01*
X138181062Y-96809004D01*
X138131594Y-96754107D01*
X138092600Y-96686573D01*
X138086540Y-96671984D01*
X138065502Y-96600608D01*
X138056246Y-96524322D01*
X138055765Y-96501625D01*
X138062497Y-96426011D01*
X138064558Y-96415529D01*
X138085509Y-96343337D01*
X138087272Y-96338959D01*
X138119512Y-96276677D01*
X138151020Y-96236743D01*
X138171536Y-96219891D01*
X138189122Y-96212197D01*
X138212203Y-96207801D01*
X138244443Y-96206702D01*
X138303061Y-96216227D01*
X138319547Y-96238575D01*
X138301229Y-96274479D01*
X138260929Y-96325404D01*
X138224096Y-96392015D01*
X138220629Y-96400142D01*
X138203456Y-96474605D01*
X138202311Y-96503457D01*
X138213653Y-96581081D01*
X138251898Y-96650359D01*
X138298298Y-96691768D01*
X138366469Y-96726157D01*
X138442200Y-96746218D01*
X138520951Y-96755389D01*
X138575636Y-96756981D01*
X138651110Y-96753755D01*
X138726718Y-96742169D01*
X138735371Y-96740128D01*
X138805374Y-96715772D01*
X138850043Y-96689936D01*
X138902102Y-96637672D01*
X138918553Y-96609336D01*
X138938719Y-96536764D01*
X138940901Y-96499427D01*
X138932243Y-96425580D01*
X138922583Y-96396478D01*
X138888705Y-96330278D01*
X138881916Y-96319908D01*
X138841616Y-96265320D01*
X138823665Y-96230515D01*
X138828061Y-96218059D01*
X138841983Y-96209266D01*
X138866896Y-96204137D01*
X138902799Y-96202672D01*
G37*
G36*
X138512988Y-95637005D02*
G01*
X138592277Y-95638737D01*
X138670961Y-95643932D01*
X138741965Y-95651660D01*
X138819283Y-95663214D01*
X138896082Y-95678233D01*
X138965448Y-95694891D01*
X139041038Y-95716304D01*
X139115675Y-95740748D01*
X139182702Y-95765599D01*
X139255946Y-95795749D01*
X139328585Y-95829276D01*
X139394094Y-95862685D01*
X139403253Y-95872211D01*
X139410580Y-95887965D01*
X139414610Y-95911412D01*
X139415709Y-95943286D01*
X139413145Y-95985051D01*
X139404718Y-96006667D01*
X139390430Y-96012895D01*
X139369547Y-96007033D01*
X139291713Y-95973086D01*
X139213184Y-95942410D01*
X139133959Y-95915005D01*
X139054039Y-95890873D01*
X138973423Y-95870011D01*
X138946397Y-95863785D01*
X138865085Y-95847350D01*
X138783542Y-95834315D01*
X138701767Y-95824681D01*
X138619760Y-95818447D01*
X138537521Y-95815613D01*
X138510057Y-95815424D01*
X138427990Y-95817125D01*
X138346103Y-95822225D01*
X138264397Y-95830726D01*
X138182871Y-95842627D01*
X138101525Y-95857928D01*
X138074450Y-95863785D01*
X137993641Y-95883633D01*
X137913604Y-95906907D01*
X137834341Y-95933607D01*
X137755850Y-95963733D01*
X137678132Y-95997286D01*
X137652398Y-96009231D01*
X137634812Y-96012162D01*
X137621623Y-96003003D01*
X137613563Y-95980288D01*
X137610266Y-95942187D01*
X137611732Y-95906283D01*
X137616494Y-95882836D01*
X137622722Y-95870013D01*
X137629683Y-95863785D01*
X137695572Y-95831710D01*
X137775393Y-95796195D01*
X137856039Y-95763927D01*
X137937510Y-95734904D01*
X138019804Y-95709127D01*
X138061260Y-95697455D01*
X138144564Y-95676912D01*
X138228512Y-95660618D01*
X138313103Y-95648576D01*
X138398339Y-95640783D01*
X138484218Y-95637241D01*
X138512988Y-95637005D01*
G37*
G36*
X139045315Y-94439727D02*
G01*
X139055939Y-94452916D01*
X139062168Y-94481859D01*
X139064000Y-94531318D01*
X139062168Y-94575281D01*
X139055207Y-94602392D01*
X139042384Y-94618512D01*
X139021501Y-94628038D01*
X138705695Y-94750770D01*
X138635800Y-94781184D01*
X138606777Y-94795466D01*
X138543969Y-94837121D01*
X138529108Y-94850787D01*
X138485797Y-94910080D01*
X138478549Y-94925892D01*
X138461376Y-95000630D01*
X138460231Y-95029939D01*
X138460231Y-95148275D01*
X139031027Y-95148275D01*
X139045315Y-95153038D01*
X139055207Y-95167692D01*
X139061435Y-95194437D01*
X139064000Y-95236935D01*
X139061435Y-95279800D01*
X139055207Y-95307277D01*
X139045681Y-95321565D01*
X139031027Y-95325595D01*
X137799310Y-95325595D01*
X137743623Y-95304713D01*
X137727503Y-95259650D01*
X137727503Y-95148275D01*
X137874048Y-95148275D01*
X138313685Y-95148275D01*
X138313685Y-94975351D01*
X138307873Y-94898971D01*
X138297199Y-94854451D01*
X138264707Y-94787406D01*
X138250671Y-94769454D01*
X138190604Y-94723573D01*
X138180695Y-94719263D01*
X138107472Y-94703536D01*
X138092768Y-94703143D01*
X138018133Y-94713069D01*
X137963441Y-94738314D01*
X137913183Y-94792835D01*
X137887237Y-94855916D01*
X137877346Y-94914168D01*
X137874077Y-94989453D01*
X137874048Y-94999165D01*
X137874048Y-95148275D01*
X137727503Y-95148275D01*
X137727503Y-94976450D01*
X137729466Y-94901157D01*
X137730067Y-94892553D01*
X137735563Y-94832103D01*
X137752599Y-94759379D01*
X137777328Y-94695815D01*
X137816687Y-94632052D01*
X137849868Y-94596164D01*
X137909689Y-94553803D01*
X137950252Y-94536080D01*
X138025500Y-94518764D01*
X138075182Y-94515930D01*
X138149020Y-94522259D01*
X138193884Y-94533882D01*
X138260206Y-94566185D01*
X138286575Y-94585906D01*
X138339017Y-94641698D01*
X138356550Y-94667239D01*
X138391232Y-94734318D01*
X138406376Y-94773484D01*
X138443378Y-94713767D01*
X138496501Y-94663575D01*
X138560767Y-94623847D01*
X138568309Y-94619978D01*
X138634735Y-94588860D01*
X138659533Y-94578579D01*
X138955189Y-94459144D01*
X139007579Y-94440826D01*
X139030660Y-94436429D01*
X139045315Y-94439727D01*
G37*
G36*
X138638430Y-93390346D02*
G01*
X138717281Y-93402315D01*
X138773106Y-93416838D01*
X138841662Y-93443267D01*
X138907559Y-93481318D01*
X138939436Y-93505864D01*
X138990975Y-93558808D01*
X139032476Y-93621788D01*
X139048246Y-93654242D01*
X139072134Y-93724979D01*
X139084997Y-93803650D01*
X139087447Y-93860505D01*
X139083377Y-93935835D01*
X139069656Y-94010015D01*
X139053009Y-94060173D01*
X139016915Y-94129146D01*
X138968899Y-94187319D01*
X138952991Y-94201956D01*
X138889959Y-94245854D01*
X138821886Y-94276821D01*
X138793256Y-94286220D01*
X138719359Y-94303187D01*
X138645375Y-94311861D01*
X138580399Y-94314064D01*
X138503726Y-94310600D01*
X138425021Y-94298923D01*
X138369373Y-94284755D01*
X138300645Y-94258548D01*
X138234795Y-94220623D01*
X138203043Y-94196094D01*
X138151388Y-94143035D01*
X138110133Y-94080300D01*
X138094600Y-94048083D01*
X138070935Y-93977415D01*
X138058192Y-93898401D01*
X138056075Y-93848415D01*
X138202311Y-93848415D01*
X138209962Y-93922320D01*
X138229422Y-93977741D01*
X138271725Y-94037762D01*
X138305625Y-94066768D01*
X138370381Y-94101899D01*
X138422129Y-94118792D01*
X138497269Y-94131941D01*
X138569408Y-94135644D01*
X138643963Y-94132164D01*
X138713755Y-94121722D01*
X138784260Y-94100264D01*
X138831725Y-94075561D01*
X138886450Y-94026216D01*
X138911592Y-93988366D01*
X138935291Y-93918492D01*
X138940901Y-93852445D01*
X138933353Y-93779008D01*
X138914157Y-93723484D01*
X138871824Y-93662977D01*
X138838319Y-93634092D01*
X138773869Y-93598913D01*
X138722182Y-93582434D01*
X138646732Y-93569570D01*
X138573804Y-93565948D01*
X138500073Y-93569428D01*
X138430556Y-93579870D01*
X138359935Y-93601212D01*
X138312220Y-93625665D01*
X138257008Y-93674380D01*
X138231986Y-93712127D01*
X138207991Y-93782117D01*
X138202311Y-93848415D01*
X138056075Y-93848415D01*
X138055765Y-93841087D01*
X138059834Y-93765966D01*
X138073556Y-93691914D01*
X138090203Y-93641785D01*
X138126367Y-93572813D01*
X138174593Y-93514640D01*
X138190587Y-93500002D01*
X138253368Y-93455784D01*
X138321335Y-93424519D01*
X138349956Y-93415006D01*
X138423698Y-93397815D01*
X138497269Y-93389027D01*
X138561714Y-93386796D01*
X138638430Y-93390346D01*
G37*
G36*
X139032126Y-92344123D02*
G01*
X139046048Y-92348153D01*
X139055939Y-92361709D01*
X139062168Y-92387354D01*
X139064000Y-92428753D01*
X139062168Y-92470885D01*
X139055939Y-92496897D01*
X139046048Y-92510086D01*
X139031759Y-92514116D01*
X138486609Y-92514116D01*
X138410928Y-92517632D01*
X138358748Y-92526572D01*
X138288517Y-92554312D01*
X138274851Y-92562842D01*
X138224644Y-92617075D01*
X138220995Y-92624025D01*
X138202767Y-92695693D01*
X138202311Y-92710854D01*
X138216685Y-92782866D01*
X138247740Y-92838715D01*
X138295625Y-92895756D01*
X138349618Y-92946658D01*
X138381096Y-92972804D01*
X139031759Y-92972804D01*
X139046048Y-92976834D01*
X139055939Y-92990390D01*
X139062168Y-93016035D01*
X139064000Y-93058167D01*
X139062168Y-93099566D01*
X139055939Y-93125944D01*
X139046048Y-93139133D01*
X139032126Y-93142797D01*
X138111086Y-93142797D01*
X138097164Y-93139866D01*
X138086906Y-93127410D01*
X138080678Y-93103596D01*
X138079212Y-93065494D01*
X138080678Y-93027759D01*
X138086906Y-93004678D01*
X138097164Y-92992954D01*
X138111086Y-92989290D01*
X138232719Y-92989290D01*
X138175551Y-92935476D01*
X138126418Y-92876966D01*
X138098630Y-92833219D01*
X138069328Y-92764728D01*
X138056142Y-92690877D01*
X138055765Y-92676049D01*
X138061796Y-92600375D01*
X138083457Y-92527972D01*
X138087272Y-92519978D01*
X138129441Y-92456325D01*
X138171536Y-92417396D01*
X138236567Y-92380366D01*
X138295001Y-92361342D01*
X138367569Y-92348983D01*
X138446629Y-92344274D01*
X138464994Y-92344123D01*
X139032126Y-92344123D01*
G37*
G36*
X137804806Y-90709039D02*
G01*
X137839244Y-90711237D01*
X137862691Y-90718198D01*
X137875880Y-90729189D01*
X137879910Y-90744210D01*
X137879910Y-91119367D01*
X139031027Y-91119367D01*
X139045681Y-91123397D01*
X139055207Y-91137685D01*
X139061435Y-91165163D01*
X139064000Y-91208027D01*
X139061435Y-91250159D01*
X139055207Y-91278003D01*
X139045681Y-91292291D01*
X139031027Y-91296321D01*
X137879910Y-91296321D01*
X137879910Y-91671478D01*
X137875880Y-91686499D01*
X137862691Y-91697490D01*
X137839244Y-91704085D01*
X137804806Y-91706649D01*
X137770001Y-91704085D01*
X137745454Y-91697490D01*
X137731899Y-91686499D01*
X137727503Y-91671478D01*
X137727503Y-90744210D01*
X137731899Y-90729189D01*
X137745454Y-90718198D01*
X137770001Y-90711237D01*
X137804806Y-90709039D01*
G37*
G36*
X139051543Y-90015512D02*
G01*
X139061069Y-90038226D01*
X139064000Y-90079992D01*
X139061069Y-90123223D01*
X139051543Y-90146304D01*
X139032859Y-90153265D01*
X138940168Y-90153265D01*
X138992601Y-90209144D01*
X139035778Y-90270352D01*
X139046414Y-90288819D01*
X139075866Y-90360819D01*
X139087287Y-90436682D01*
X139087447Y-90447089D01*
X139081967Y-90520726D01*
X139068030Y-90579346D01*
X139036889Y-90646666D01*
X139011609Y-90680463D01*
X138952938Y-90729059D01*
X138921117Y-90745309D01*
X138848074Y-90765145D01*
X138798752Y-90768390D01*
X138723830Y-90760422D01*
X138659533Y-90736517D01*
X138599551Y-90691849D01*
X138561714Y-90644926D01*
X138527459Y-90578522D01*
X138504329Y-90504124D01*
X138503096Y-90498746D01*
X138490524Y-90424691D01*
X138484608Y-90350107D01*
X138483678Y-90303840D01*
X138483678Y-90175979D01*
X138618501Y-90175979D01*
X138618501Y-90321426D01*
X138622763Y-90398064D01*
X138630591Y-90443059D01*
X138655841Y-90512691D01*
X138665395Y-90528422D01*
X138721083Y-90578614D01*
X138792831Y-90594352D01*
X138795454Y-90594367D01*
X138870522Y-90578223D01*
X138910127Y-90548572D01*
X138945611Y-90481274D01*
X138952625Y-90420344D01*
X138940742Y-90344216D01*
X138918919Y-90296147D01*
X138872585Y-90233768D01*
X138819210Y-90179912D01*
X138814872Y-90175979D01*
X138618501Y-90175979D01*
X138483678Y-90175979D01*
X138412237Y-90175979D01*
X138337185Y-90182911D01*
X138318815Y-90187337D01*
X138252723Y-90222407D01*
X138251037Y-90223973D01*
X138211231Y-90287048D01*
X138210371Y-90289552D01*
X138197115Y-90363353D01*
X138196449Y-90388104D01*
X138202173Y-90461864D01*
X138211103Y-90501311D01*
X138235790Y-90571784D01*
X138243344Y-90588872D01*
X138275584Y-90651520D01*
X138290238Y-90689256D01*
X138286208Y-90703544D01*
X138273385Y-90714535D01*
X138251770Y-90721129D01*
X138222461Y-90722961D01*
X138180695Y-90719664D01*
X138151752Y-90702078D01*
X138120612Y-90654085D01*
X138091809Y-90583904D01*
X138089104Y-90575683D01*
X138070214Y-90504654D01*
X138065290Y-90478963D01*
X138056695Y-90406076D01*
X138055765Y-90372717D01*
X138059514Y-90296411D01*
X138073156Y-90220687D01*
X138078480Y-90202724D01*
X138108611Y-90135923D01*
X138145158Y-90089517D01*
X138204856Y-90046576D01*
X138254334Y-90026869D01*
X138329438Y-90011432D01*
X138406009Y-90007085D01*
X139032859Y-90007085D01*
X139051543Y-90015512D01*
G37*
G36*
X139064000Y-89316122D02*
G01*
X139405085Y-89439587D01*
X139430364Y-89471094D01*
X139439148Y-89544484D01*
X139439157Y-89547665D01*
X139436592Y-89590896D01*
X139427799Y-89616175D01*
X139411313Y-89626066D01*
X139386766Y-89620937D01*
X139064000Y-89493076D01*
X139050810Y-89511028D01*
X139031027Y-89522019D01*
X138145158Y-89852846D01*
X138111086Y-89860906D01*
X138091669Y-89852846D01*
X138081777Y-89826101D01*
X138079212Y-89776642D01*
X138080678Y-89728282D01*
X138086540Y-89700438D01*
X138098263Y-89685418D01*
X138119512Y-89675526D01*
X138863232Y-89410644D01*
X138863232Y-89407713D01*
X138115116Y-89151991D01*
X138090203Y-89137337D01*
X138081777Y-89110958D01*
X138079212Y-89060400D01*
X138081777Y-89013139D01*
X138091669Y-88985662D01*
X138111086Y-88976869D01*
X138142227Y-88983097D01*
X139064000Y-89316122D01*
G37*
G36*
X139032126Y-88618931D02*
G01*
X139046414Y-88622961D01*
X139055939Y-88636517D01*
X139062168Y-88662162D01*
X139064000Y-88704294D01*
X139062168Y-88745693D01*
X139055939Y-88772071D01*
X139046414Y-88785260D01*
X139032126Y-88788924D01*
X137666320Y-88788924D01*
X137652032Y-88785260D01*
X137641773Y-88772071D01*
X137635912Y-88745693D01*
X137633713Y-88704294D01*
X137635912Y-88662162D01*
X137641773Y-88636517D01*
X137652032Y-88622961D01*
X137666320Y-88618931D01*
X139032126Y-88618931D01*
G37*
G36*
X138638430Y-87449383D02*
G01*
X138717281Y-87461352D01*
X138773106Y-87475875D01*
X138841662Y-87502304D01*
X138907559Y-87540355D01*
X138939436Y-87564901D01*
X138990975Y-87617845D01*
X139032476Y-87680825D01*
X139048246Y-87713279D01*
X139072134Y-87784016D01*
X139084997Y-87862687D01*
X139087447Y-87919542D01*
X139083377Y-87994872D01*
X139069656Y-88069052D01*
X139053009Y-88119210D01*
X139016915Y-88188183D01*
X138968899Y-88246356D01*
X138952991Y-88260993D01*
X138889959Y-88304891D01*
X138821886Y-88335858D01*
X138793256Y-88345257D01*
X138719359Y-88362224D01*
X138645375Y-88370898D01*
X138580399Y-88373101D01*
X138503726Y-88369637D01*
X138425021Y-88357960D01*
X138369373Y-88343792D01*
X138300645Y-88317585D01*
X138234795Y-88279660D01*
X138203043Y-88255131D01*
X138151388Y-88202072D01*
X138110133Y-88139337D01*
X138094600Y-88107120D01*
X138070935Y-88036452D01*
X138058192Y-87957438D01*
X138056075Y-87907452D01*
X138202311Y-87907452D01*
X138209962Y-87981357D01*
X138229422Y-88036778D01*
X138271725Y-88096799D01*
X138305625Y-88125805D01*
X138370381Y-88160936D01*
X138422129Y-88177829D01*
X138497269Y-88190978D01*
X138569408Y-88194681D01*
X138643963Y-88191201D01*
X138713755Y-88180759D01*
X138784260Y-88159301D01*
X138831725Y-88134598D01*
X138886450Y-88085253D01*
X138911592Y-88047403D01*
X138935291Y-87977529D01*
X138940901Y-87911482D01*
X138933353Y-87838045D01*
X138914157Y-87782521D01*
X138871824Y-87722014D01*
X138838319Y-87693129D01*
X138773869Y-87657950D01*
X138722182Y-87641471D01*
X138646732Y-87628607D01*
X138573804Y-87624985D01*
X138500073Y-87628465D01*
X138430556Y-87638907D01*
X138359935Y-87660249D01*
X138312220Y-87684702D01*
X138257008Y-87733417D01*
X138231986Y-87771164D01*
X138207991Y-87841154D01*
X138202311Y-87907452D01*
X138056075Y-87907452D01*
X138055765Y-87900124D01*
X138059834Y-87825003D01*
X138073556Y-87750951D01*
X138090203Y-87700822D01*
X138126367Y-87631850D01*
X138174593Y-87573677D01*
X138190587Y-87559039D01*
X138253368Y-87514821D01*
X138321335Y-87483556D01*
X138349956Y-87474043D01*
X138423698Y-87456852D01*
X138497269Y-87448064D01*
X138561714Y-87445833D01*
X138638430Y-87449383D01*
G37*
G36*
X138161278Y-86659615D02*
G01*
X138199013Y-86660714D01*
X138222827Y-86665110D01*
X138236016Y-86672804D01*
X138240779Y-86685627D01*
X138236016Y-86705777D01*
X138226857Y-86732521D01*
X138218064Y-86765861D01*
X138214034Y-86806161D01*
X138225025Y-86856719D01*
X138260563Y-86908743D01*
X138316141Y-86958431D01*
X138326142Y-86965896D01*
X138387563Y-87007685D01*
X138426159Y-87031841D01*
X139032126Y-87031841D01*
X139046048Y-87035871D01*
X139055939Y-87049427D01*
X139062168Y-87075072D01*
X139064000Y-87117204D01*
X139062168Y-87158603D01*
X139055939Y-87184981D01*
X139046048Y-87198170D01*
X139032126Y-87201834D01*
X138111086Y-87201834D01*
X138097164Y-87198903D01*
X138086906Y-87186447D01*
X138080678Y-87162633D01*
X138079212Y-87124531D01*
X138080678Y-87086796D01*
X138086906Y-87063715D01*
X138097164Y-87051991D01*
X138111086Y-87048327D01*
X138245175Y-87048327D01*
X138183751Y-87004761D01*
X138150653Y-86976886D01*
X138100045Y-86922877D01*
X138093134Y-86913505D01*
X138063825Y-86854154D01*
X138055765Y-86794803D01*
X138057230Y-86764395D01*
X138062726Y-86728858D01*
X138071885Y-86695519D01*
X138082143Y-86674270D01*
X138092035Y-86666210D01*
X138103759Y-86662546D01*
X138124275Y-86660348D01*
X138161278Y-86659615D01*
G37*
G36*
X137895664Y-84974339D02*
G01*
X137930468Y-84976538D01*
X137955381Y-84982766D01*
X137969669Y-84993024D01*
X137973699Y-85006579D01*
X137955381Y-85047612D01*
X137920519Y-85113128D01*
X137915081Y-85124915D01*
X137887808Y-85196750D01*
X137874781Y-85241053D01*
X137861042Y-85314783D01*
X137856534Y-85389666D01*
X137856463Y-85401154D01*
X137861268Y-85474284D01*
X137877471Y-85547941D01*
X137897129Y-85598990D01*
X137935371Y-85665720D01*
X137984012Y-85723622D01*
X138009969Y-85747368D01*
X138073085Y-85792126D01*
X138139288Y-85825176D01*
X138181428Y-85840791D01*
X138257987Y-85860437D01*
X138332329Y-85870481D01*
X138396117Y-85873031D01*
X138474313Y-85869560D01*
X138553717Y-85857726D01*
X138626194Y-85837494D01*
X138696828Y-85807028D01*
X138763465Y-85765419D01*
X138795088Y-85739308D01*
X138845548Y-85684118D01*
X138885003Y-85620947D01*
X138899502Y-85589099D01*
X138922511Y-85515472D01*
X138933339Y-85442571D01*
X138935039Y-85397856D01*
X138929744Y-85324121D01*
X138920018Y-85272926D01*
X138896886Y-85200761D01*
X138874956Y-85154957D01*
X138483678Y-85154957D01*
X138483678Y-85463802D01*
X138466093Y-85490180D01*
X138410772Y-85498973D01*
X138377433Y-85497141D01*
X138354352Y-85490180D01*
X138341529Y-85479556D01*
X138337133Y-85463802D01*
X138337133Y-85040285D01*
X138341529Y-85017937D01*
X138353986Y-84997420D01*
X138376700Y-84982766D01*
X138409307Y-84977637D01*
X138918919Y-84977637D01*
X138965814Y-84987162D01*
X139000252Y-85026363D01*
X139029584Y-85094593D01*
X139032859Y-85103300D01*
X139056008Y-85176046D01*
X139062534Y-85201119D01*
X139077223Y-85274364D01*
X139081219Y-85303334D01*
X139086954Y-85376687D01*
X139087447Y-85405184D01*
X139084424Y-85480426D01*
X139073798Y-85560147D01*
X139055522Y-85634651D01*
X139039087Y-85681422D01*
X139004855Y-85753758D01*
X138962608Y-85818723D01*
X138912348Y-85876318D01*
X138901334Y-85886953D01*
X138841993Y-85935525D01*
X138775711Y-85976369D01*
X138702488Y-86009484D01*
X138687011Y-86015180D01*
X138614448Y-86036609D01*
X138537306Y-86051025D01*
X138455586Y-86058428D01*
X138408207Y-86059510D01*
X138330034Y-86056511D01*
X138255617Y-86047512D01*
X138176385Y-86030217D01*
X138118047Y-86011517D01*
X138047931Y-85981448D01*
X137983902Y-85945236D01*
X137919895Y-85897795D01*
X137896397Y-85876695D01*
X137843195Y-85818799D01*
X137798079Y-85754106D01*
X137761049Y-85682615D01*
X137754614Y-85667501D01*
X137730174Y-85596789D01*
X137713732Y-85521905D01*
X137705290Y-85442848D01*
X137704055Y-85397124D01*
X137707169Y-85323027D01*
X137716512Y-85253875D01*
X137732854Y-85179555D01*
X137745821Y-85134807D01*
X137772749Y-85066045D01*
X137782457Y-85047246D01*
X137814697Y-84998519D01*
X137844739Y-84979835D01*
X137895664Y-84974339D01*
G37*
G36*
X138739767Y-83830184D02*
G01*
X138759184Y-83858760D01*
X138759184Y-84009336D01*
X139032859Y-84009336D01*
X139046414Y-84013732D01*
X139055939Y-84028020D01*
X139062168Y-84054765D01*
X139064000Y-84096897D01*
X139062168Y-84138296D01*
X139055939Y-84164674D01*
X139046414Y-84177863D01*
X139032859Y-84181527D01*
X138759184Y-84181527D01*
X138759184Y-84731806D01*
X138756254Y-84752323D01*
X138744896Y-84767344D01*
X138721083Y-84776503D01*
X138680782Y-84779067D01*
X138645978Y-84777968D01*
X138617768Y-84773938D01*
X138592855Y-84765512D01*
X138567576Y-84753422D01*
X137759376Y-84273118D01*
X137745088Y-84258464D01*
X137734830Y-84233184D01*
X137728968Y-84194716D01*
X137728607Y-84181527D01*
X137882841Y-84181527D01*
X137882841Y-84183359D01*
X138612639Y-84617134D01*
X138612639Y-84181527D01*
X137882841Y-84181527D01*
X137728607Y-84181527D01*
X137727503Y-84141227D01*
X137730067Y-84081876D01*
X137736662Y-84041210D01*
X137747653Y-84017762D01*
X137763406Y-84009336D01*
X138612639Y-84009336D01*
X138612639Y-83858760D01*
X138630957Y-83830916D01*
X138685912Y-83819926D01*
X138739767Y-83830184D01*
G37*
G36*
X137895664Y-82585644D02*
G01*
X137930468Y-82587842D01*
X137955381Y-82594071D01*
X137969669Y-82604329D01*
X137973699Y-82617884D01*
X137955381Y-82658917D01*
X137920519Y-82724433D01*
X137915081Y-82736220D01*
X137887808Y-82808055D01*
X137874781Y-82852357D01*
X137861042Y-82926088D01*
X137856534Y-83000971D01*
X137856463Y-83012459D01*
X137861268Y-83085589D01*
X137877471Y-83159246D01*
X137897129Y-83210295D01*
X137935371Y-83277025D01*
X137984012Y-83334926D01*
X138009969Y-83358673D01*
X138073085Y-83403431D01*
X138139288Y-83436481D01*
X138181428Y-83452096D01*
X138257987Y-83471742D01*
X138332329Y-83481786D01*
X138396117Y-83484336D01*
X138474313Y-83480865D01*
X138553717Y-83469031D01*
X138626194Y-83448799D01*
X138696828Y-83418333D01*
X138763465Y-83376724D01*
X138795088Y-83350613D01*
X138845548Y-83295423D01*
X138885003Y-83232251D01*
X138899502Y-83200404D01*
X138922511Y-83126776D01*
X138933339Y-83053876D01*
X138935039Y-83009161D01*
X138929744Y-82935426D01*
X138920018Y-82884231D01*
X138896886Y-82812066D01*
X138874956Y-82766262D01*
X138483678Y-82766262D01*
X138483678Y-83075107D01*
X138466093Y-83101485D01*
X138410772Y-83110278D01*
X138377433Y-83108446D01*
X138354352Y-83101485D01*
X138341529Y-83090861D01*
X138337133Y-83075107D01*
X138337133Y-82651590D01*
X138341529Y-82629242D01*
X138353986Y-82608725D01*
X138376700Y-82594071D01*
X138409307Y-82588942D01*
X138918919Y-82588942D01*
X138965814Y-82598467D01*
X139000252Y-82637668D01*
X139029584Y-82705898D01*
X139032859Y-82714605D01*
X139056008Y-82787351D01*
X139062534Y-82812424D01*
X139077223Y-82885669D01*
X139081219Y-82914639D01*
X139086954Y-82987992D01*
X139087447Y-83016489D01*
X139084424Y-83091731D01*
X139073798Y-83171451D01*
X139055522Y-83245956D01*
X139039087Y-83292727D01*
X139004855Y-83365063D01*
X138962608Y-83430028D01*
X138912348Y-83487623D01*
X138901334Y-83498258D01*
X138841993Y-83546830D01*
X138775711Y-83587673D01*
X138702488Y-83620789D01*
X138687011Y-83626485D01*
X138614448Y-83647914D01*
X138537306Y-83662330D01*
X138455586Y-83669733D01*
X138408207Y-83670815D01*
X138330034Y-83667816D01*
X138255617Y-83658817D01*
X138176385Y-83641522D01*
X138118047Y-83622822D01*
X138047931Y-83592753D01*
X137983902Y-83556541D01*
X137919895Y-83509100D01*
X137896397Y-83488000D01*
X137843195Y-83430104D01*
X137798079Y-83365411D01*
X137761049Y-83293919D01*
X137754614Y-83278806D01*
X137730174Y-83208094D01*
X137713732Y-83133210D01*
X137705290Y-83054153D01*
X137704055Y-83008429D01*
X137707169Y-82934331D01*
X137716512Y-82865180D01*
X137732854Y-82790860D01*
X137745821Y-82746112D01*
X137772749Y-82677350D01*
X137782457Y-82658551D01*
X137814697Y-82609824D01*
X137844739Y-82591140D01*
X137895664Y-82585644D01*
G37*
G36*
X138994390Y-81413645D02*
G01*
X139030294Y-81397525D01*
X139051177Y-81404486D01*
X139061435Y-81434894D01*
X139064000Y-81490948D01*
X139062534Y-81542605D01*
X139057039Y-81571914D01*
X139047147Y-81588401D01*
X139032126Y-81597926D01*
X138505294Y-81894681D01*
X139032126Y-82194734D01*
X139047879Y-82206091D01*
X139057405Y-82222944D01*
X139062534Y-82252253D01*
X139064000Y-82301712D01*
X139061435Y-82355568D01*
X139051177Y-82382678D01*
X139030294Y-82387808D01*
X138994390Y-82371688D01*
X138385493Y-82008254D01*
X137797112Y-82355201D01*
X137760842Y-82371321D01*
X137739226Y-82366925D01*
X137729701Y-82337982D01*
X137727503Y-82281196D01*
X137728968Y-82230637D01*
X137734097Y-82199863D01*
X137744355Y-82183376D01*
X137759376Y-82172019D01*
X138254701Y-81885522D01*
X137759376Y-81601224D01*
X137744355Y-81590965D01*
X137734097Y-81575944D01*
X137728968Y-81548467D01*
X137727503Y-81501206D01*
X137730067Y-81449182D01*
X137739959Y-81420240D01*
X137760842Y-81413645D01*
X137797112Y-81427933D01*
X138381463Y-81774147D01*
X138994390Y-81413645D01*
G37*
G36*
X138459659Y-80117654D02*
G01*
X138535244Y-80124867D01*
X138615406Y-80138729D01*
X138674188Y-80153718D01*
X138744687Y-80178136D01*
X138815813Y-80212268D01*
X138879354Y-80253770D01*
X138896937Y-80267658D01*
X138950261Y-80318619D01*
X138995283Y-80377166D01*
X139032006Y-80443298D01*
X139038354Y-80457434D01*
X139064243Y-80532632D01*
X139079345Y-80606734D01*
X139086680Y-80686921D01*
X139087447Y-80724514D01*
X139083882Y-80805819D01*
X139073189Y-80880748D01*
X139052946Y-80956525D01*
X139042384Y-80984632D01*
X139006346Y-81055484D01*
X138960698Y-81117418D01*
X138910859Y-81165983D01*
X138846733Y-81210813D01*
X138779872Y-81244129D01*
X138704853Y-81270361D01*
X138696903Y-81272595D01*
X138621967Y-81289596D01*
X138541003Y-81301034D01*
X138463975Y-81306529D01*
X138403078Y-81307766D01*
X138325409Y-81305384D01*
X138251404Y-81298240D01*
X138172526Y-81284510D01*
X138114383Y-81269664D01*
X138044326Y-81245041D01*
X137973758Y-81210680D01*
X137910846Y-81168948D01*
X137893466Y-81154992D01*
X137840758Y-81103644D01*
X137796207Y-81044854D01*
X137759814Y-80978622D01*
X137753515Y-80964482D01*
X137727433Y-80889320D01*
X137712218Y-80815312D01*
X137704828Y-80735276D01*
X137704266Y-80708027D01*
X137856463Y-80708027D01*
X137861658Y-80782996D01*
X137879175Y-80854806D01*
X137900427Y-80901834D01*
X137944184Y-80964575D01*
X137999162Y-81016237D01*
X138016930Y-81028963D01*
X138085422Y-81066339D01*
X138157435Y-81091627D01*
X138187290Y-81098938D01*
X138261547Y-81111887D01*
X138338690Y-81118859D01*
X138391721Y-81120187D01*
X138471121Y-81117893D01*
X138546105Y-81111010D01*
X138610441Y-81100770D01*
X138681366Y-81082223D01*
X138749598Y-81053758D01*
X138782632Y-81034824D01*
X138839683Y-80988152D01*
X138884533Y-80929558D01*
X138895106Y-80910627D01*
X138920961Y-80840693D01*
X138933128Y-80764546D01*
X138935039Y-80714988D01*
X138929888Y-80639473D01*
X138912517Y-80566967D01*
X138891442Y-80519350D01*
X138847153Y-80455747D01*
X138791224Y-80404065D01*
X138773106Y-80391489D01*
X138703543Y-80354503D01*
X138630911Y-80329703D01*
X138600915Y-80322612D01*
X138525902Y-80310110D01*
X138447592Y-80303378D01*
X138393553Y-80302096D01*
X138316873Y-80304477D01*
X138237566Y-80312505D01*
X138181062Y-80322246D01*
X138105342Y-80342794D01*
X138033534Y-80374931D01*
X138010336Y-80388924D01*
X137952964Y-80435988D01*
X137907794Y-80495113D01*
X137897129Y-80514221D01*
X137870799Y-80584029D01*
X137858409Y-80659308D01*
X137856463Y-80708027D01*
X137704266Y-80708027D01*
X137704055Y-80697769D01*
X137707591Y-80617762D01*
X137718198Y-80543840D01*
X137738276Y-80468843D01*
X137748752Y-80440948D01*
X137784329Y-80370218D01*
X137829604Y-80308147D01*
X137879177Y-80259231D01*
X137942878Y-80213732D01*
X138009053Y-80179958D01*
X138083099Y-80153411D01*
X138090936Y-80151154D01*
X138164754Y-80133798D01*
X138244427Y-80122122D01*
X138320161Y-80116512D01*
X138379997Y-80115250D01*
X138459659Y-80117654D01*
G37*
X150153810Y-76019819D02*
X150153810Y-75019819D01*
X151201428Y-75924580D02*
X151153809Y-75972200D01*
X151153809Y-75972200D02*
X151010952Y-76019819D01*
X151010952Y-76019819D02*
X150915714Y-76019819D01*
X150915714Y-76019819D02*
X150772857Y-75972200D01*
X150772857Y-75972200D02*
X150677619Y-75876961D01*
X150677619Y-75876961D02*
X150630000Y-75781723D01*
X150630000Y-75781723D02*
X150582381Y-75591247D01*
X150582381Y-75591247D02*
X150582381Y-75448390D01*
X150582381Y-75448390D02*
X150630000Y-75257914D01*
X150630000Y-75257914D02*
X150677619Y-75162676D01*
X150677619Y-75162676D02*
X150772857Y-75067438D01*
X150772857Y-75067438D02*
X150915714Y-75019819D01*
X150915714Y-75019819D02*
X151010952Y-75019819D01*
X151010952Y-75019819D02*
X151153809Y-75067438D01*
X151153809Y-75067438D02*
X151201428Y-75115057D01*
X152106190Y-75019819D02*
X151630000Y-75019819D01*
X151630000Y-75019819D02*
X151582381Y-75496009D01*
X151582381Y-75496009D02*
X151630000Y-75448390D01*
X151630000Y-75448390D02*
X151725238Y-75400771D01*
X151725238Y-75400771D02*
X151963333Y-75400771D01*
X151963333Y-75400771D02*
X152058571Y-75448390D01*
X152058571Y-75448390D02*
X152106190Y-75496009D01*
X152106190Y-75496009D02*
X152153809Y-75591247D01*
X152153809Y-75591247D02*
X152153809Y-75829342D01*
X152153809Y-75829342D02*
X152106190Y-75924580D01*
X152106190Y-75924580D02*
X152058571Y-75972200D01*
X152058571Y-75972200D02*
X151963333Y-76019819D01*
X151963333Y-76019819D02*
X151725238Y-76019819D01*
X151725238Y-76019819D02*
X151630000Y-75972200D01*
X151630000Y-75972200D02*
X151582381Y-75924580D01*
X136231333Y-123422580D02*
X136183714Y-123470200D01*
X136183714Y-123470200D02*
X136040857Y-123517819D01*
X136040857Y-123517819D02*
X135945619Y-123517819D01*
X135945619Y-123517819D02*
X135802762Y-123470200D01*
X135802762Y-123470200D02*
X135707524Y-123374961D01*
X135707524Y-123374961D02*
X135659905Y-123279723D01*
X135659905Y-123279723D02*
X135612286Y-123089247D01*
X135612286Y-123089247D02*
X135612286Y-122946390D01*
X135612286Y-122946390D02*
X135659905Y-122755914D01*
X135659905Y-122755914D02*
X135707524Y-122660676D01*
X135707524Y-122660676D02*
X135802762Y-122565438D01*
X135802762Y-122565438D02*
X135945619Y-122517819D01*
X135945619Y-122517819D02*
X136040857Y-122517819D01*
X136040857Y-122517819D02*
X136183714Y-122565438D01*
X136183714Y-122565438D02*
X136231333Y-122613057D01*
X136612286Y-122613057D02*
X136659905Y-122565438D01*
X136659905Y-122565438D02*
X136755143Y-122517819D01*
X136755143Y-122517819D02*
X136993238Y-122517819D01*
X136993238Y-122517819D02*
X137088476Y-122565438D01*
X137088476Y-122565438D02*
X137136095Y-122613057D01*
X137136095Y-122613057D02*
X137183714Y-122708295D01*
X137183714Y-122708295D02*
X137183714Y-122803533D01*
X137183714Y-122803533D02*
X137136095Y-122946390D01*
X137136095Y-122946390D02*
X136564667Y-123517819D01*
X136564667Y-123517819D02*
X137183714Y-123517819D01*
X169251333Y-77321580D02*
X169203714Y-77369200D01*
X169203714Y-77369200D02*
X169060857Y-77416819D01*
X169060857Y-77416819D02*
X168965619Y-77416819D01*
X168965619Y-77416819D02*
X168822762Y-77369200D01*
X168822762Y-77369200D02*
X168727524Y-77273961D01*
X168727524Y-77273961D02*
X168679905Y-77178723D01*
X168679905Y-77178723D02*
X168632286Y-76988247D01*
X168632286Y-76988247D02*
X168632286Y-76845390D01*
X168632286Y-76845390D02*
X168679905Y-76654914D01*
X168679905Y-76654914D02*
X168727524Y-76559676D01*
X168727524Y-76559676D02*
X168822762Y-76464438D01*
X168822762Y-76464438D02*
X168965619Y-76416819D01*
X168965619Y-76416819D02*
X169060857Y-76416819D01*
X169060857Y-76416819D02*
X169203714Y-76464438D01*
X169203714Y-76464438D02*
X169251333Y-76512057D01*
X170108476Y-76416819D02*
X169918000Y-76416819D01*
X169918000Y-76416819D02*
X169822762Y-76464438D01*
X169822762Y-76464438D02*
X169775143Y-76512057D01*
X169775143Y-76512057D02*
X169679905Y-76654914D01*
X169679905Y-76654914D02*
X169632286Y-76845390D01*
X169632286Y-76845390D02*
X169632286Y-77226342D01*
X169632286Y-77226342D02*
X169679905Y-77321580D01*
X169679905Y-77321580D02*
X169727524Y-77369200D01*
X169727524Y-77369200D02*
X169822762Y-77416819D01*
X169822762Y-77416819D02*
X170013238Y-77416819D01*
X170013238Y-77416819D02*
X170108476Y-77369200D01*
X170108476Y-77369200D02*
X170156095Y-77321580D01*
X170156095Y-77321580D02*
X170203714Y-77226342D01*
X170203714Y-77226342D02*
X170203714Y-76988247D01*
X170203714Y-76988247D02*
X170156095Y-76893009D01*
X170156095Y-76893009D02*
X170108476Y-76845390D01*
X170108476Y-76845390D02*
X170013238Y-76797771D01*
X170013238Y-76797771D02*
X169822762Y-76797771D01*
X169822762Y-76797771D02*
X169727524Y-76845390D01*
X169727524Y-76845390D02*
X169679905Y-76893009D01*
X169679905Y-76893009D02*
X169632286Y-76988247D01*
X165803342Y-92885419D02*
X165470009Y-92409228D01*
X165231914Y-92885419D02*
X165231914Y-91885419D01*
X165231914Y-91885419D02*
X165612866Y-91885419D01*
X165612866Y-91885419D02*
X165708104Y-91933038D01*
X165708104Y-91933038D02*
X165755723Y-91980657D01*
X165755723Y-91980657D02*
X165803342Y-92075895D01*
X165803342Y-92075895D02*
X165803342Y-92218752D01*
X165803342Y-92218752D02*
X165755723Y-92313990D01*
X165755723Y-92313990D02*
X165708104Y-92361609D01*
X165708104Y-92361609D02*
X165612866Y-92409228D01*
X165612866Y-92409228D02*
X165231914Y-92409228D01*
X166755723Y-92885419D02*
X166184295Y-92885419D01*
X166470009Y-92885419D02*
X166470009Y-91885419D01*
X166470009Y-91885419D02*
X166374771Y-92028276D01*
X166374771Y-92028276D02*
X166279533Y-92123514D01*
X166279533Y-92123514D02*
X166184295Y-92171133D01*
X167708104Y-92885419D02*
X167136676Y-92885419D01*
X167422390Y-92885419D02*
X167422390Y-91885419D01*
X167422390Y-91885419D02*
X167327152Y-92028276D01*
X167327152Y-92028276D02*
X167231914Y-92123514D01*
X167231914Y-92123514D02*
X167136676Y-92171133D01*
X142384542Y-92910819D02*
X142051209Y-92434628D01*
X141813114Y-92910819D02*
X141813114Y-91910819D01*
X141813114Y-91910819D02*
X142194066Y-91910819D01*
X142194066Y-91910819D02*
X142289304Y-91958438D01*
X142289304Y-91958438D02*
X142336923Y-92006057D01*
X142336923Y-92006057D02*
X142384542Y-92101295D01*
X142384542Y-92101295D02*
X142384542Y-92244152D01*
X142384542Y-92244152D02*
X142336923Y-92339390D01*
X142336923Y-92339390D02*
X142289304Y-92387009D01*
X142289304Y-92387009D02*
X142194066Y-92434628D01*
X142194066Y-92434628D02*
X141813114Y-92434628D01*
X143336923Y-92910819D02*
X142765495Y-92910819D01*
X143051209Y-92910819D02*
X143051209Y-91910819D01*
X143051209Y-91910819D02*
X142955971Y-92053676D01*
X142955971Y-92053676D02*
X142860733Y-92148914D01*
X142860733Y-92148914D02*
X142765495Y-92196533D01*
X143717876Y-92006057D02*
X143765495Y-91958438D01*
X143765495Y-91958438D02*
X143860733Y-91910819D01*
X143860733Y-91910819D02*
X144098828Y-91910819D01*
X144098828Y-91910819D02*
X144194066Y-91958438D01*
X144194066Y-91958438D02*
X144241685Y-92006057D01*
X144241685Y-92006057D02*
X144289304Y-92101295D01*
X144289304Y-92101295D02*
X144289304Y-92196533D01*
X144289304Y-92196533D02*
X144241685Y-92339390D01*
X144241685Y-92339390D02*
X143670257Y-92910819D01*
X143670257Y-92910819D02*
X144289304Y-92910819D01*
X155821142Y-102435819D02*
X155487809Y-101959628D01*
X155249714Y-102435819D02*
X155249714Y-101435819D01*
X155249714Y-101435819D02*
X155630666Y-101435819D01*
X155630666Y-101435819D02*
X155725904Y-101483438D01*
X155725904Y-101483438D02*
X155773523Y-101531057D01*
X155773523Y-101531057D02*
X155821142Y-101626295D01*
X155821142Y-101626295D02*
X155821142Y-101769152D01*
X155821142Y-101769152D02*
X155773523Y-101864390D01*
X155773523Y-101864390D02*
X155725904Y-101912009D01*
X155725904Y-101912009D02*
X155630666Y-101959628D01*
X155630666Y-101959628D02*
X155249714Y-101959628D01*
X156773523Y-102435819D02*
X156202095Y-102435819D01*
X156487809Y-102435819D02*
X156487809Y-101435819D01*
X156487809Y-101435819D02*
X156392571Y-101578676D01*
X156392571Y-101578676D02*
X156297333Y-101673914D01*
X156297333Y-101673914D02*
X156202095Y-101721533D01*
X157392571Y-101435819D02*
X157487809Y-101435819D01*
X157487809Y-101435819D02*
X157583047Y-101483438D01*
X157583047Y-101483438D02*
X157630666Y-101531057D01*
X157630666Y-101531057D02*
X157678285Y-101626295D01*
X157678285Y-101626295D02*
X157725904Y-101816771D01*
X157725904Y-101816771D02*
X157725904Y-102054866D01*
X157725904Y-102054866D02*
X157678285Y-102245342D01*
X157678285Y-102245342D02*
X157630666Y-102340580D01*
X157630666Y-102340580D02*
X157583047Y-102388200D01*
X157583047Y-102388200D02*
X157487809Y-102435819D01*
X157487809Y-102435819D02*
X157392571Y-102435819D01*
X157392571Y-102435819D02*
X157297333Y-102388200D01*
X157297333Y-102388200D02*
X157249714Y-102340580D01*
X157249714Y-102340580D02*
X157202095Y-102245342D01*
X157202095Y-102245342D02*
X157154476Y-102054866D01*
X157154476Y-102054866D02*
X157154476Y-101816771D01*
X157154476Y-101816771D02*
X157202095Y-101626295D01*
X157202095Y-101626295D02*
X157249714Y-101531057D01*
X157249714Y-101531057D02*
X157297333Y-101483438D01*
X157297333Y-101483438D02*
X157392571Y-101435819D01*
X165822333Y-89608819D02*
X165489000Y-89132628D01*
X165250905Y-89608819D02*
X165250905Y-88608819D01*
X165250905Y-88608819D02*
X165631857Y-88608819D01*
X165631857Y-88608819D02*
X165727095Y-88656438D01*
X165727095Y-88656438D02*
X165774714Y-88704057D01*
X165774714Y-88704057D02*
X165822333Y-88799295D01*
X165822333Y-88799295D02*
X165822333Y-88942152D01*
X165822333Y-88942152D02*
X165774714Y-89037390D01*
X165774714Y-89037390D02*
X165727095Y-89085009D01*
X165727095Y-89085009D02*
X165631857Y-89132628D01*
X165631857Y-89132628D02*
X165250905Y-89132628D01*
X166155667Y-88608819D02*
X166822333Y-88608819D01*
X166822333Y-88608819D02*
X166393762Y-89608819D01*
X146170180Y-73123657D02*
X146217800Y-73171276D01*
X146217800Y-73171276D02*
X146265419Y-73314133D01*
X146265419Y-73314133D02*
X146265419Y-73409371D01*
X146265419Y-73409371D02*
X146217800Y-73552228D01*
X146217800Y-73552228D02*
X146122561Y-73647466D01*
X146122561Y-73647466D02*
X146027323Y-73695085D01*
X146027323Y-73695085D02*
X145836847Y-73742704D01*
X145836847Y-73742704D02*
X145693990Y-73742704D01*
X145693990Y-73742704D02*
X145503514Y-73695085D01*
X145503514Y-73695085D02*
X145408276Y-73647466D01*
X145408276Y-73647466D02*
X145313038Y-73552228D01*
X145313038Y-73552228D02*
X145265419Y-73409371D01*
X145265419Y-73409371D02*
X145265419Y-73314133D01*
X145265419Y-73314133D02*
X145313038Y-73171276D01*
X145313038Y-73171276D02*
X145360657Y-73123657D01*
X146265419Y-72171276D02*
X146265419Y-72742704D01*
X146265419Y-72456990D02*
X145265419Y-72456990D01*
X145265419Y-72456990D02*
X145408276Y-72552228D01*
X145408276Y-72552228D02*
X145503514Y-72647466D01*
X145503514Y-72647466D02*
X145551133Y-72742704D01*
X145360657Y-71790323D02*
X145313038Y-71742704D01*
X145313038Y-71742704D02*
X145265419Y-71647466D01*
X145265419Y-71647466D02*
X145265419Y-71409371D01*
X145265419Y-71409371D02*
X145313038Y-71314133D01*
X145313038Y-71314133D02*
X145360657Y-71266514D01*
X145360657Y-71266514D02*
X145455895Y-71218895D01*
X145455895Y-71218895D02*
X145551133Y-71218895D01*
X145551133Y-71218895D02*
X145693990Y-71266514D01*
X145693990Y-71266514D02*
X146265419Y-71837942D01*
X146265419Y-71837942D02*
X146265419Y-71218895D01*
X163488810Y-87703819D02*
X163488810Y-86703819D01*
X164536428Y-87608580D02*
X164488809Y-87656200D01*
X164488809Y-87656200D02*
X164345952Y-87703819D01*
X164345952Y-87703819D02*
X164250714Y-87703819D01*
X164250714Y-87703819D02*
X164107857Y-87656200D01*
X164107857Y-87656200D02*
X164012619Y-87560961D01*
X164012619Y-87560961D02*
X163965000Y-87465723D01*
X163965000Y-87465723D02*
X163917381Y-87275247D01*
X163917381Y-87275247D02*
X163917381Y-87132390D01*
X163917381Y-87132390D02*
X163965000Y-86941914D01*
X163965000Y-86941914D02*
X164012619Y-86846676D01*
X164012619Y-86846676D02*
X164107857Y-86751438D01*
X164107857Y-86751438D02*
X164250714Y-86703819D01*
X164250714Y-86703819D02*
X164345952Y-86703819D01*
X164345952Y-86703819D02*
X164488809Y-86751438D01*
X164488809Y-86751438D02*
X164536428Y-86799057D01*
X164869762Y-86703819D02*
X165488809Y-86703819D01*
X165488809Y-86703819D02*
X165155476Y-87084771D01*
X165155476Y-87084771D02*
X165298333Y-87084771D01*
X165298333Y-87084771D02*
X165393571Y-87132390D01*
X165393571Y-87132390D02*
X165441190Y-87180009D01*
X165441190Y-87180009D02*
X165488809Y-87275247D01*
X165488809Y-87275247D02*
X165488809Y-87513342D01*
X165488809Y-87513342D02*
X165441190Y-87608580D01*
X165441190Y-87608580D02*
X165393571Y-87656200D01*
X165393571Y-87656200D02*
X165298333Y-87703819D01*
X165298333Y-87703819D02*
X165012619Y-87703819D01*
X165012619Y-87703819D02*
X164917381Y-87656200D01*
X164917381Y-87656200D02*
X164869762Y-87608580D01*
X175206819Y-90717666D02*
X174730628Y-91050999D01*
X175206819Y-91289094D02*
X174206819Y-91289094D01*
X174206819Y-91289094D02*
X174206819Y-90908142D01*
X174206819Y-90908142D02*
X174254438Y-90812904D01*
X174254438Y-90812904D02*
X174302057Y-90765285D01*
X174302057Y-90765285D02*
X174397295Y-90717666D01*
X174397295Y-90717666D02*
X174540152Y-90717666D01*
X174540152Y-90717666D02*
X174635390Y-90765285D01*
X174635390Y-90765285D02*
X174683009Y-90812904D01*
X174683009Y-90812904D02*
X174730628Y-90908142D01*
X174730628Y-90908142D02*
X174730628Y-91289094D01*
X174206819Y-89860523D02*
X174206819Y-90050999D01*
X174206819Y-90050999D02*
X174254438Y-90146237D01*
X174254438Y-90146237D02*
X174302057Y-90193856D01*
X174302057Y-90193856D02*
X174444914Y-90289094D01*
X174444914Y-90289094D02*
X174635390Y-90336713D01*
X174635390Y-90336713D02*
X175016342Y-90336713D01*
X175016342Y-90336713D02*
X175111580Y-90289094D01*
X175111580Y-90289094D02*
X175159200Y-90241475D01*
X175159200Y-90241475D02*
X175206819Y-90146237D01*
X175206819Y-90146237D02*
X175206819Y-89955761D01*
X175206819Y-89955761D02*
X175159200Y-89860523D01*
X175159200Y-89860523D02*
X175111580Y-89812904D01*
X175111580Y-89812904D02*
X175016342Y-89765285D01*
X175016342Y-89765285D02*
X174778247Y-89765285D01*
X174778247Y-89765285D02*
X174683009Y-89812904D01*
X174683009Y-89812904D02*
X174635390Y-89860523D01*
X174635390Y-89860523D02*
X174587771Y-89955761D01*
X174587771Y-89955761D02*
X174587771Y-90146237D01*
X174587771Y-90146237D02*
X174635390Y-90241475D01*
X174635390Y-90241475D02*
X174683009Y-90289094D01*
X174683009Y-90289094D02*
X174778247Y-90336713D01*
X146377819Y-133298466D02*
X145901628Y-133631799D01*
X146377819Y-133869894D02*
X145377819Y-133869894D01*
X145377819Y-133869894D02*
X145377819Y-133488942D01*
X145377819Y-133488942D02*
X145425438Y-133393704D01*
X145425438Y-133393704D02*
X145473057Y-133346085D01*
X145473057Y-133346085D02*
X145568295Y-133298466D01*
X145568295Y-133298466D02*
X145711152Y-133298466D01*
X145711152Y-133298466D02*
X145806390Y-133346085D01*
X145806390Y-133346085D02*
X145854009Y-133393704D01*
X145854009Y-133393704D02*
X145901628Y-133488942D01*
X145901628Y-133488942D02*
X145901628Y-133869894D01*
X145377819Y-132965132D02*
X145377819Y-132346085D01*
X145377819Y-132346085D02*
X145758771Y-132679418D01*
X145758771Y-132679418D02*
X145758771Y-132536561D01*
X145758771Y-132536561D02*
X145806390Y-132441323D01*
X145806390Y-132441323D02*
X145854009Y-132393704D01*
X145854009Y-132393704D02*
X145949247Y-132346085D01*
X145949247Y-132346085D02*
X146187342Y-132346085D01*
X146187342Y-132346085D02*
X146282580Y-132393704D01*
X146282580Y-132393704D02*
X146330200Y-132441323D01*
X146330200Y-132441323D02*
X146377819Y-132536561D01*
X146377819Y-132536561D02*
X146377819Y-132822275D01*
X146377819Y-132822275D02*
X146330200Y-132917513D01*
X146330200Y-132917513D02*
X146282580Y-132965132D01*
X159123142Y-76908819D02*
X158789809Y-76432628D01*
X158551714Y-76908819D02*
X158551714Y-75908819D01*
X158551714Y-75908819D02*
X158932666Y-75908819D01*
X158932666Y-75908819D02*
X159027904Y-75956438D01*
X159027904Y-75956438D02*
X159075523Y-76004057D01*
X159075523Y-76004057D02*
X159123142Y-76099295D01*
X159123142Y-76099295D02*
X159123142Y-76242152D01*
X159123142Y-76242152D02*
X159075523Y-76337390D01*
X159075523Y-76337390D02*
X159027904Y-76385009D01*
X159027904Y-76385009D02*
X158932666Y-76432628D01*
X158932666Y-76432628D02*
X158551714Y-76432628D01*
X160075523Y-76908819D02*
X159504095Y-76908819D01*
X159789809Y-76908819D02*
X159789809Y-75908819D01*
X159789809Y-75908819D02*
X159694571Y-76051676D01*
X159694571Y-76051676D02*
X159599333Y-76146914D01*
X159599333Y-76146914D02*
X159504095Y-76194533D01*
X160408857Y-75908819D02*
X161027904Y-75908819D01*
X161027904Y-75908819D02*
X160694571Y-76289771D01*
X160694571Y-76289771D02*
X160837428Y-76289771D01*
X160837428Y-76289771D02*
X160932666Y-76337390D01*
X160932666Y-76337390D02*
X160980285Y-76385009D01*
X160980285Y-76385009D02*
X161027904Y-76480247D01*
X161027904Y-76480247D02*
X161027904Y-76718342D01*
X161027904Y-76718342D02*
X160980285Y-76813580D01*
X160980285Y-76813580D02*
X160932666Y-76861200D01*
X160932666Y-76861200D02*
X160837428Y-76908819D01*
X160837428Y-76908819D02*
X160551714Y-76908819D01*
X160551714Y-76908819D02*
X160456476Y-76861200D01*
X160456476Y-76861200D02*
X160408857Y-76813580D01*
X161358342Y-95573380D02*
X161310723Y-95621000D01*
X161310723Y-95621000D02*
X161167866Y-95668619D01*
X161167866Y-95668619D02*
X161072628Y-95668619D01*
X161072628Y-95668619D02*
X160929771Y-95621000D01*
X160929771Y-95621000D02*
X160834533Y-95525761D01*
X160834533Y-95525761D02*
X160786914Y-95430523D01*
X160786914Y-95430523D02*
X160739295Y-95240047D01*
X160739295Y-95240047D02*
X160739295Y-95097190D01*
X160739295Y-95097190D02*
X160786914Y-94906714D01*
X160786914Y-94906714D02*
X160834533Y-94811476D01*
X160834533Y-94811476D02*
X160929771Y-94716238D01*
X160929771Y-94716238D02*
X161072628Y-94668619D01*
X161072628Y-94668619D02*
X161167866Y-94668619D01*
X161167866Y-94668619D02*
X161310723Y-94716238D01*
X161310723Y-94716238D02*
X161358342Y-94763857D01*
X162310723Y-95668619D02*
X161739295Y-95668619D01*
X162025009Y-95668619D02*
X162025009Y-94668619D01*
X162025009Y-94668619D02*
X161929771Y-94811476D01*
X161929771Y-94811476D02*
X161834533Y-94906714D01*
X161834533Y-94906714D02*
X161739295Y-94954333D01*
X162644057Y-94668619D02*
X163263104Y-94668619D01*
X163263104Y-94668619D02*
X162929771Y-95049571D01*
X162929771Y-95049571D02*
X163072628Y-95049571D01*
X163072628Y-95049571D02*
X163167866Y-95097190D01*
X163167866Y-95097190D02*
X163215485Y-95144809D01*
X163215485Y-95144809D02*
X163263104Y-95240047D01*
X163263104Y-95240047D02*
X163263104Y-95478142D01*
X163263104Y-95478142D02*
X163215485Y-95573380D01*
X163215485Y-95573380D02*
X163167866Y-95621000D01*
X163167866Y-95621000D02*
X163072628Y-95668619D01*
X163072628Y-95668619D02*
X162786914Y-95668619D01*
X162786914Y-95668619D02*
X162691676Y-95621000D01*
X162691676Y-95621000D02*
X162644057Y-95573380D01*
X173587580Y-86145666D02*
X173635200Y-86193285D01*
X173635200Y-86193285D02*
X173682819Y-86336142D01*
X173682819Y-86336142D02*
X173682819Y-86431380D01*
X173682819Y-86431380D02*
X173635200Y-86574237D01*
X173635200Y-86574237D02*
X173539961Y-86669475D01*
X173539961Y-86669475D02*
X173444723Y-86717094D01*
X173444723Y-86717094D02*
X173254247Y-86764713D01*
X173254247Y-86764713D02*
X173111390Y-86764713D01*
X173111390Y-86764713D02*
X172920914Y-86717094D01*
X172920914Y-86717094D02*
X172825676Y-86669475D01*
X172825676Y-86669475D02*
X172730438Y-86574237D01*
X172730438Y-86574237D02*
X172682819Y-86431380D01*
X172682819Y-86431380D02*
X172682819Y-86336142D01*
X172682819Y-86336142D02*
X172730438Y-86193285D01*
X172730438Y-86193285D02*
X172778057Y-86145666D01*
X173016152Y-85288523D02*
X173682819Y-85288523D01*
X172635200Y-85526618D02*
X173349485Y-85764713D01*
X173349485Y-85764713D02*
X173349485Y-85145666D01*
X171523819Y-90717666D02*
X171047628Y-91050999D01*
X171523819Y-91289094D02*
X170523819Y-91289094D01*
X170523819Y-91289094D02*
X170523819Y-90908142D01*
X170523819Y-90908142D02*
X170571438Y-90812904D01*
X170571438Y-90812904D02*
X170619057Y-90765285D01*
X170619057Y-90765285D02*
X170714295Y-90717666D01*
X170714295Y-90717666D02*
X170857152Y-90717666D01*
X170857152Y-90717666D02*
X170952390Y-90765285D01*
X170952390Y-90765285D02*
X171000009Y-90812904D01*
X171000009Y-90812904D02*
X171047628Y-90908142D01*
X171047628Y-90908142D02*
X171047628Y-91289094D01*
X170523819Y-89812904D02*
X170523819Y-90289094D01*
X170523819Y-90289094D02*
X171000009Y-90336713D01*
X171000009Y-90336713D02*
X170952390Y-90289094D01*
X170952390Y-90289094D02*
X170904771Y-90193856D01*
X170904771Y-90193856D02*
X170904771Y-89955761D01*
X170904771Y-89955761D02*
X170952390Y-89860523D01*
X170952390Y-89860523D02*
X171000009Y-89812904D01*
X171000009Y-89812904D02*
X171095247Y-89765285D01*
X171095247Y-89765285D02*
X171333342Y-89765285D01*
X171333342Y-89765285D02*
X171428580Y-89812904D01*
X171428580Y-89812904D02*
X171476200Y-89860523D01*
X171476200Y-89860523D02*
X171523819Y-89955761D01*
X171523819Y-89955761D02*
X171523819Y-90193856D01*
X171523819Y-90193856D02*
X171476200Y-90289094D01*
X171476200Y-90289094D02*
X171428580Y-90336713D01*
X177524580Y-71032666D02*
X177572200Y-71080285D01*
X177572200Y-71080285D02*
X177619819Y-71223142D01*
X177619819Y-71223142D02*
X177619819Y-71318380D01*
X177619819Y-71318380D02*
X177572200Y-71461237D01*
X177572200Y-71461237D02*
X177476961Y-71556475D01*
X177476961Y-71556475D02*
X177381723Y-71604094D01*
X177381723Y-71604094D02*
X177191247Y-71651713D01*
X177191247Y-71651713D02*
X177048390Y-71651713D01*
X177048390Y-71651713D02*
X176857914Y-71604094D01*
X176857914Y-71604094D02*
X176762676Y-71556475D01*
X176762676Y-71556475D02*
X176667438Y-71461237D01*
X176667438Y-71461237D02*
X176619819Y-71318380D01*
X176619819Y-71318380D02*
X176619819Y-71223142D01*
X176619819Y-71223142D02*
X176667438Y-71080285D01*
X176667438Y-71080285D02*
X176715057Y-71032666D01*
X176619819Y-70699332D02*
X176619819Y-70080285D01*
X176619819Y-70080285D02*
X177000771Y-70413618D01*
X177000771Y-70413618D02*
X177000771Y-70270761D01*
X177000771Y-70270761D02*
X177048390Y-70175523D01*
X177048390Y-70175523D02*
X177096009Y-70127904D01*
X177096009Y-70127904D02*
X177191247Y-70080285D01*
X177191247Y-70080285D02*
X177429342Y-70080285D01*
X177429342Y-70080285D02*
X177524580Y-70127904D01*
X177524580Y-70127904D02*
X177572200Y-70175523D01*
X177572200Y-70175523D02*
X177619819Y-70270761D01*
X177619819Y-70270761D02*
X177619819Y-70556475D01*
X177619819Y-70556475D02*
X177572200Y-70651713D01*
X177572200Y-70651713D02*
X177524580Y-70699332D01*
X146504819Y-119419666D02*
X146028628Y-119752999D01*
X146504819Y-119991094D02*
X145504819Y-119991094D01*
X145504819Y-119991094D02*
X145504819Y-119610142D01*
X145504819Y-119610142D02*
X145552438Y-119514904D01*
X145552438Y-119514904D02*
X145600057Y-119467285D01*
X145600057Y-119467285D02*
X145695295Y-119419666D01*
X145695295Y-119419666D02*
X145838152Y-119419666D01*
X145838152Y-119419666D02*
X145933390Y-119467285D01*
X145933390Y-119467285D02*
X145981009Y-119514904D01*
X145981009Y-119514904D02*
X146028628Y-119610142D01*
X146028628Y-119610142D02*
X146028628Y-119991094D01*
X145838152Y-118562523D02*
X146504819Y-118562523D01*
X145457200Y-118800618D02*
X146171485Y-119038713D01*
X146171485Y-119038713D02*
X146171485Y-118419666D01*
X143710819Y-75699857D02*
X143234628Y-76033190D01*
X143710819Y-76271285D02*
X142710819Y-76271285D01*
X142710819Y-76271285D02*
X142710819Y-75890333D01*
X142710819Y-75890333D02*
X142758438Y-75795095D01*
X142758438Y-75795095D02*
X142806057Y-75747476D01*
X142806057Y-75747476D02*
X142901295Y-75699857D01*
X142901295Y-75699857D02*
X143044152Y-75699857D01*
X143044152Y-75699857D02*
X143139390Y-75747476D01*
X143139390Y-75747476D02*
X143187009Y-75795095D01*
X143187009Y-75795095D02*
X143234628Y-75890333D01*
X143234628Y-75890333D02*
X143234628Y-76271285D01*
X143710819Y-74747476D02*
X143710819Y-75318904D01*
X143710819Y-75033190D02*
X142710819Y-75033190D01*
X142710819Y-75033190D02*
X142853676Y-75128428D01*
X142853676Y-75128428D02*
X142948914Y-75223666D01*
X142948914Y-75223666D02*
X142996533Y-75318904D01*
X143044152Y-73890333D02*
X143710819Y-73890333D01*
X142663200Y-74128428D02*
X143377485Y-74366523D01*
X143377485Y-74366523D02*
X143377485Y-73747476D01*
X143013133Y-89659619D02*
X142679800Y-89183428D01*
X142441705Y-89659619D02*
X142441705Y-88659619D01*
X142441705Y-88659619D02*
X142822657Y-88659619D01*
X142822657Y-88659619D02*
X142917895Y-88707238D01*
X142917895Y-88707238D02*
X142965514Y-88754857D01*
X142965514Y-88754857D02*
X143013133Y-88850095D01*
X143013133Y-88850095D02*
X143013133Y-88992952D01*
X143013133Y-88992952D02*
X142965514Y-89088190D01*
X142965514Y-89088190D02*
X142917895Y-89135809D01*
X142917895Y-89135809D02*
X142822657Y-89183428D01*
X142822657Y-89183428D02*
X142441705Y-89183428D01*
X143489324Y-89659619D02*
X143679800Y-89659619D01*
X143679800Y-89659619D02*
X143775038Y-89612000D01*
X143775038Y-89612000D02*
X143822657Y-89564380D01*
X143822657Y-89564380D02*
X143917895Y-89421523D01*
X143917895Y-89421523D02*
X143965514Y-89231047D01*
X143965514Y-89231047D02*
X143965514Y-88850095D01*
X143965514Y-88850095D02*
X143917895Y-88754857D01*
X143917895Y-88754857D02*
X143870276Y-88707238D01*
X143870276Y-88707238D02*
X143775038Y-88659619D01*
X143775038Y-88659619D02*
X143584562Y-88659619D01*
X143584562Y-88659619D02*
X143489324Y-88707238D01*
X143489324Y-88707238D02*
X143441705Y-88754857D01*
X143441705Y-88754857D02*
X143394086Y-88850095D01*
X143394086Y-88850095D02*
X143394086Y-89088190D01*
X143394086Y-89088190D02*
X143441705Y-89183428D01*
X143441705Y-89183428D02*
X143489324Y-89231047D01*
X143489324Y-89231047D02*
X143584562Y-89278666D01*
X143584562Y-89278666D02*
X143775038Y-89278666D01*
X143775038Y-89278666D02*
X143870276Y-89231047D01*
X143870276Y-89231047D02*
X143917895Y-89183428D01*
X143917895Y-89183428D02*
X143965514Y-89088190D01*
X151503142Y-68685580D02*
X151455523Y-68733200D01*
X151455523Y-68733200D02*
X151312666Y-68780819D01*
X151312666Y-68780819D02*
X151217428Y-68780819D01*
X151217428Y-68780819D02*
X151074571Y-68733200D01*
X151074571Y-68733200D02*
X150979333Y-68637961D01*
X150979333Y-68637961D02*
X150931714Y-68542723D01*
X150931714Y-68542723D02*
X150884095Y-68352247D01*
X150884095Y-68352247D02*
X150884095Y-68209390D01*
X150884095Y-68209390D02*
X150931714Y-68018914D01*
X150931714Y-68018914D02*
X150979333Y-67923676D01*
X150979333Y-67923676D02*
X151074571Y-67828438D01*
X151074571Y-67828438D02*
X151217428Y-67780819D01*
X151217428Y-67780819D02*
X151312666Y-67780819D01*
X151312666Y-67780819D02*
X151455523Y-67828438D01*
X151455523Y-67828438D02*
X151503142Y-67876057D01*
X152455523Y-68780819D02*
X151884095Y-68780819D01*
X152169809Y-68780819D02*
X152169809Y-67780819D01*
X152169809Y-67780819D02*
X152074571Y-67923676D01*
X152074571Y-67923676D02*
X151979333Y-68018914D01*
X151979333Y-68018914D02*
X151884095Y-68066533D01*
X153074571Y-67780819D02*
X153169809Y-67780819D01*
X153169809Y-67780819D02*
X153265047Y-67828438D01*
X153265047Y-67828438D02*
X153312666Y-67876057D01*
X153312666Y-67876057D02*
X153360285Y-67971295D01*
X153360285Y-67971295D02*
X153407904Y-68161771D01*
X153407904Y-68161771D02*
X153407904Y-68399866D01*
X153407904Y-68399866D02*
X153360285Y-68590342D01*
X153360285Y-68590342D02*
X153312666Y-68685580D01*
X153312666Y-68685580D02*
X153265047Y-68733200D01*
X153265047Y-68733200D02*
X153169809Y-68780819D01*
X153169809Y-68780819D02*
X153074571Y-68780819D01*
X153074571Y-68780819D02*
X152979333Y-68733200D01*
X152979333Y-68733200D02*
X152931714Y-68685580D01*
X152931714Y-68685580D02*
X152884095Y-68590342D01*
X152884095Y-68590342D02*
X152836476Y-68399866D01*
X152836476Y-68399866D02*
X152836476Y-68161771D01*
X152836476Y-68161771D02*
X152884095Y-67971295D01*
X152884095Y-67971295D02*
X152931714Y-67876057D01*
X152931714Y-67876057D02*
X152979333Y-67828438D01*
X152979333Y-67828438D02*
X153074571Y-67780819D01*
X171283333Y-122787580D02*
X171235714Y-122835200D01*
X171235714Y-122835200D02*
X171092857Y-122882819D01*
X171092857Y-122882819D02*
X170997619Y-122882819D01*
X170997619Y-122882819D02*
X170854762Y-122835200D01*
X170854762Y-122835200D02*
X170759524Y-122739961D01*
X170759524Y-122739961D02*
X170711905Y-122644723D01*
X170711905Y-122644723D02*
X170664286Y-122454247D01*
X170664286Y-122454247D02*
X170664286Y-122311390D01*
X170664286Y-122311390D02*
X170711905Y-122120914D01*
X170711905Y-122120914D02*
X170759524Y-122025676D01*
X170759524Y-122025676D02*
X170854762Y-121930438D01*
X170854762Y-121930438D02*
X170997619Y-121882819D01*
X170997619Y-121882819D02*
X171092857Y-121882819D01*
X171092857Y-121882819D02*
X171235714Y-121930438D01*
X171235714Y-121930438D02*
X171283333Y-121978057D01*
X172235714Y-122882819D02*
X171664286Y-122882819D01*
X171950000Y-122882819D02*
X171950000Y-121882819D01*
X171950000Y-121882819D02*
X171854762Y-122025676D01*
X171854762Y-122025676D02*
X171759524Y-122120914D01*
X171759524Y-122120914D02*
X171664286Y-122168533D01*
X163141819Y-75985666D02*
X162665628Y-76318999D01*
X163141819Y-76557094D02*
X162141819Y-76557094D01*
X162141819Y-76557094D02*
X162141819Y-76176142D01*
X162141819Y-76176142D02*
X162189438Y-76080904D01*
X162189438Y-76080904D02*
X162237057Y-76033285D01*
X162237057Y-76033285D02*
X162332295Y-75985666D01*
X162332295Y-75985666D02*
X162475152Y-75985666D01*
X162475152Y-75985666D02*
X162570390Y-76033285D01*
X162570390Y-76033285D02*
X162618009Y-76080904D01*
X162618009Y-76080904D02*
X162665628Y-76176142D01*
X162665628Y-76176142D02*
X162665628Y-76557094D01*
X162570390Y-75414237D02*
X162522771Y-75509475D01*
X162522771Y-75509475D02*
X162475152Y-75557094D01*
X162475152Y-75557094D02*
X162379914Y-75604713D01*
X162379914Y-75604713D02*
X162332295Y-75604713D01*
X162332295Y-75604713D02*
X162237057Y-75557094D01*
X162237057Y-75557094D02*
X162189438Y-75509475D01*
X162189438Y-75509475D02*
X162141819Y-75414237D01*
X162141819Y-75414237D02*
X162141819Y-75223761D01*
X162141819Y-75223761D02*
X162189438Y-75128523D01*
X162189438Y-75128523D02*
X162237057Y-75080904D01*
X162237057Y-75080904D02*
X162332295Y-75033285D01*
X162332295Y-75033285D02*
X162379914Y-75033285D01*
X162379914Y-75033285D02*
X162475152Y-75080904D01*
X162475152Y-75080904D02*
X162522771Y-75128523D01*
X162522771Y-75128523D02*
X162570390Y-75223761D01*
X162570390Y-75223761D02*
X162570390Y-75414237D01*
X162570390Y-75414237D02*
X162618009Y-75509475D01*
X162618009Y-75509475D02*
X162665628Y-75557094D01*
X162665628Y-75557094D02*
X162760866Y-75604713D01*
X162760866Y-75604713D02*
X162951342Y-75604713D01*
X162951342Y-75604713D02*
X163046580Y-75557094D01*
X163046580Y-75557094D02*
X163094200Y-75509475D01*
X163094200Y-75509475D02*
X163141819Y-75414237D01*
X163141819Y-75414237D02*
X163141819Y-75223761D01*
X163141819Y-75223761D02*
X163094200Y-75128523D01*
X163094200Y-75128523D02*
X163046580Y-75080904D01*
X163046580Y-75080904D02*
X162951342Y-75033285D01*
X162951342Y-75033285D02*
X162760866Y-75033285D01*
X162760866Y-75033285D02*
X162665628Y-75080904D01*
X162665628Y-75080904D02*
X162618009Y-75128523D01*
X162618009Y-75128523D02*
X162570390Y-75223761D01*
X152513819Y-133298466D02*
X152037628Y-133631799D01*
X152513819Y-133869894D02*
X151513819Y-133869894D01*
X151513819Y-133869894D02*
X151513819Y-133488942D01*
X151513819Y-133488942D02*
X151561438Y-133393704D01*
X151561438Y-133393704D02*
X151609057Y-133346085D01*
X151609057Y-133346085D02*
X151704295Y-133298466D01*
X151704295Y-133298466D02*
X151847152Y-133298466D01*
X151847152Y-133298466D02*
X151942390Y-133346085D01*
X151942390Y-133346085D02*
X151990009Y-133393704D01*
X151990009Y-133393704D02*
X152037628Y-133488942D01*
X152037628Y-133488942D02*
X152037628Y-133869894D01*
X152513819Y-132346085D02*
X152513819Y-132917513D01*
X152513819Y-132631799D02*
X151513819Y-132631799D01*
X151513819Y-132631799D02*
X151656676Y-132727037D01*
X151656676Y-132727037D02*
X151751914Y-132822275D01*
X151751914Y-132822275D02*
X151799533Y-132917513D01*
X159170810Y-106626819D02*
X159170810Y-105626819D01*
X160218428Y-106531580D02*
X160170809Y-106579200D01*
X160170809Y-106579200D02*
X160027952Y-106626819D01*
X160027952Y-106626819D02*
X159932714Y-106626819D01*
X159932714Y-106626819D02*
X159789857Y-106579200D01*
X159789857Y-106579200D02*
X159694619Y-106483961D01*
X159694619Y-106483961D02*
X159647000Y-106388723D01*
X159647000Y-106388723D02*
X159599381Y-106198247D01*
X159599381Y-106198247D02*
X159599381Y-106055390D01*
X159599381Y-106055390D02*
X159647000Y-105864914D01*
X159647000Y-105864914D02*
X159694619Y-105769676D01*
X159694619Y-105769676D02*
X159789857Y-105674438D01*
X159789857Y-105674438D02*
X159932714Y-105626819D01*
X159932714Y-105626819D02*
X160027952Y-105626819D01*
X160027952Y-105626819D02*
X160170809Y-105674438D01*
X160170809Y-105674438D02*
X160218428Y-105722057D01*
X161075571Y-105960152D02*
X161075571Y-106626819D01*
X160837476Y-105579200D02*
X160599381Y-106293485D01*
X160599381Y-106293485D02*
X161218428Y-106293485D01*
X142308342Y-96339819D02*
X141975009Y-95863628D01*
X141736914Y-96339819D02*
X141736914Y-95339819D01*
X141736914Y-95339819D02*
X142117866Y-95339819D01*
X142117866Y-95339819D02*
X142213104Y-95387438D01*
X142213104Y-95387438D02*
X142260723Y-95435057D01*
X142260723Y-95435057D02*
X142308342Y-95530295D01*
X142308342Y-95530295D02*
X142308342Y-95673152D01*
X142308342Y-95673152D02*
X142260723Y-95768390D01*
X142260723Y-95768390D02*
X142213104Y-95816009D01*
X142213104Y-95816009D02*
X142117866Y-95863628D01*
X142117866Y-95863628D02*
X141736914Y-95863628D01*
X143260723Y-96339819D02*
X142689295Y-96339819D01*
X142975009Y-96339819D02*
X142975009Y-95339819D01*
X142975009Y-95339819D02*
X142879771Y-95482676D01*
X142879771Y-95482676D02*
X142784533Y-95577914D01*
X142784533Y-95577914D02*
X142689295Y-95625533D01*
X144117866Y-95339819D02*
X143927390Y-95339819D01*
X143927390Y-95339819D02*
X143832152Y-95387438D01*
X143832152Y-95387438D02*
X143784533Y-95435057D01*
X143784533Y-95435057D02*
X143689295Y-95577914D01*
X143689295Y-95577914D02*
X143641676Y-95768390D01*
X143641676Y-95768390D02*
X143641676Y-96149342D01*
X143641676Y-96149342D02*
X143689295Y-96244580D01*
X143689295Y-96244580D02*
X143736914Y-96292200D01*
X143736914Y-96292200D02*
X143832152Y-96339819D01*
X143832152Y-96339819D02*
X144022628Y-96339819D01*
X144022628Y-96339819D02*
X144117866Y-96292200D01*
X144117866Y-96292200D02*
X144165485Y-96244580D01*
X144165485Y-96244580D02*
X144213104Y-96149342D01*
X144213104Y-96149342D02*
X144213104Y-95911247D01*
X144213104Y-95911247D02*
X144165485Y-95816009D01*
X144165485Y-95816009D02*
X144117866Y-95768390D01*
X144117866Y-95768390D02*
X144022628Y-95720771D01*
X144022628Y-95720771D02*
X143832152Y-95720771D01*
X143832152Y-95720771D02*
X143736914Y-95768390D01*
X143736914Y-95768390D02*
X143689295Y-95816009D01*
X143689295Y-95816009D02*
X143641676Y-95911247D01*
X162614780Y-73515457D02*
X162662400Y-73563076D01*
X162662400Y-73563076D02*
X162710019Y-73705933D01*
X162710019Y-73705933D02*
X162710019Y-73801171D01*
X162710019Y-73801171D02*
X162662400Y-73944028D01*
X162662400Y-73944028D02*
X162567161Y-74039266D01*
X162567161Y-74039266D02*
X162471923Y-74086885D01*
X162471923Y-74086885D02*
X162281447Y-74134504D01*
X162281447Y-74134504D02*
X162138590Y-74134504D01*
X162138590Y-74134504D02*
X161948114Y-74086885D01*
X161948114Y-74086885D02*
X161852876Y-74039266D01*
X161852876Y-74039266D02*
X161757638Y-73944028D01*
X161757638Y-73944028D02*
X161710019Y-73801171D01*
X161710019Y-73801171D02*
X161710019Y-73705933D01*
X161710019Y-73705933D02*
X161757638Y-73563076D01*
X161757638Y-73563076D02*
X161805257Y-73515457D01*
X162710019Y-72563076D02*
X162710019Y-73134504D01*
X162710019Y-72848790D02*
X161710019Y-72848790D01*
X161710019Y-72848790D02*
X161852876Y-72944028D01*
X161852876Y-72944028D02*
X161948114Y-73039266D01*
X161948114Y-73039266D02*
X161995733Y-73134504D01*
X162710019Y-71610695D02*
X162710019Y-72182123D01*
X162710019Y-71896409D02*
X161710019Y-71896409D01*
X161710019Y-71896409D02*
X161852876Y-71991647D01*
X161852876Y-71991647D02*
X161948114Y-72086885D01*
X161948114Y-72086885D02*
X161995733Y-72182123D01*
X188979980Y-114111066D02*
X189027600Y-114158685D01*
X189027600Y-114158685D02*
X189075219Y-114301542D01*
X189075219Y-114301542D02*
X189075219Y-114396780D01*
X189075219Y-114396780D02*
X189027600Y-114539637D01*
X189027600Y-114539637D02*
X188932361Y-114634875D01*
X188932361Y-114634875D02*
X188837123Y-114682494D01*
X188837123Y-114682494D02*
X188646647Y-114730113D01*
X188646647Y-114730113D02*
X188503790Y-114730113D01*
X188503790Y-114730113D02*
X188313314Y-114682494D01*
X188313314Y-114682494D02*
X188218076Y-114634875D01*
X188218076Y-114634875D02*
X188122838Y-114539637D01*
X188122838Y-114539637D02*
X188075219Y-114396780D01*
X188075219Y-114396780D02*
X188075219Y-114301542D01*
X188075219Y-114301542D02*
X188122838Y-114158685D01*
X188122838Y-114158685D02*
X188170457Y-114111066D01*
X188075219Y-113777732D02*
X188075219Y-113111066D01*
X188075219Y-113111066D02*
X189075219Y-113539637D01*
X145934133Y-106048980D02*
X145886514Y-106096600D01*
X145886514Y-106096600D02*
X145743657Y-106144219D01*
X145743657Y-106144219D02*
X145648419Y-106144219D01*
X145648419Y-106144219D02*
X145505562Y-106096600D01*
X145505562Y-106096600D02*
X145410324Y-106001361D01*
X145410324Y-106001361D02*
X145362705Y-105906123D01*
X145362705Y-105906123D02*
X145315086Y-105715647D01*
X145315086Y-105715647D02*
X145315086Y-105572790D01*
X145315086Y-105572790D02*
X145362705Y-105382314D01*
X145362705Y-105382314D02*
X145410324Y-105287076D01*
X145410324Y-105287076D02*
X145505562Y-105191838D01*
X145505562Y-105191838D02*
X145648419Y-105144219D01*
X145648419Y-105144219D02*
X145743657Y-105144219D01*
X145743657Y-105144219D02*
X145886514Y-105191838D01*
X145886514Y-105191838D02*
X145934133Y-105239457D01*
X146410324Y-106144219D02*
X146600800Y-106144219D01*
X146600800Y-106144219D02*
X146696038Y-106096600D01*
X146696038Y-106096600D02*
X146743657Y-106048980D01*
X146743657Y-106048980D02*
X146838895Y-105906123D01*
X146838895Y-105906123D02*
X146886514Y-105715647D01*
X146886514Y-105715647D02*
X146886514Y-105334695D01*
X146886514Y-105334695D02*
X146838895Y-105239457D01*
X146838895Y-105239457D02*
X146791276Y-105191838D01*
X146791276Y-105191838D02*
X146696038Y-105144219D01*
X146696038Y-105144219D02*
X146505562Y-105144219D01*
X146505562Y-105144219D02*
X146410324Y-105191838D01*
X146410324Y-105191838D02*
X146362705Y-105239457D01*
X146362705Y-105239457D02*
X146315086Y-105334695D01*
X146315086Y-105334695D02*
X146315086Y-105572790D01*
X146315086Y-105572790D02*
X146362705Y-105668028D01*
X146362705Y-105668028D02*
X146410324Y-105715647D01*
X146410324Y-105715647D02*
X146505562Y-105763266D01*
X146505562Y-105763266D02*
X146696038Y-105763266D01*
X146696038Y-105763266D02*
X146791276Y-105715647D01*
X146791276Y-105715647D02*
X146838895Y-105668028D01*
X146838895Y-105668028D02*
X146886514Y-105572790D01*
X164973333Y-102467580D02*
X164925714Y-102515200D01*
X164925714Y-102515200D02*
X164782857Y-102562819D01*
X164782857Y-102562819D02*
X164687619Y-102562819D01*
X164687619Y-102562819D02*
X164544762Y-102515200D01*
X164544762Y-102515200D02*
X164449524Y-102419961D01*
X164449524Y-102419961D02*
X164401905Y-102324723D01*
X164401905Y-102324723D02*
X164354286Y-102134247D01*
X164354286Y-102134247D02*
X164354286Y-101991390D01*
X164354286Y-101991390D02*
X164401905Y-101800914D01*
X164401905Y-101800914D02*
X164449524Y-101705676D01*
X164449524Y-101705676D02*
X164544762Y-101610438D01*
X164544762Y-101610438D02*
X164687619Y-101562819D01*
X164687619Y-101562819D02*
X164782857Y-101562819D01*
X164782857Y-101562819D02*
X164925714Y-101610438D01*
X164925714Y-101610438D02*
X164973333Y-101658057D01*
X165544762Y-101991390D02*
X165449524Y-101943771D01*
X165449524Y-101943771D02*
X165401905Y-101896152D01*
X165401905Y-101896152D02*
X165354286Y-101800914D01*
X165354286Y-101800914D02*
X165354286Y-101753295D01*
X165354286Y-101753295D02*
X165401905Y-101658057D01*
X165401905Y-101658057D02*
X165449524Y-101610438D01*
X165449524Y-101610438D02*
X165544762Y-101562819D01*
X165544762Y-101562819D02*
X165735238Y-101562819D01*
X165735238Y-101562819D02*
X165830476Y-101610438D01*
X165830476Y-101610438D02*
X165878095Y-101658057D01*
X165878095Y-101658057D02*
X165925714Y-101753295D01*
X165925714Y-101753295D02*
X165925714Y-101800914D01*
X165925714Y-101800914D02*
X165878095Y-101896152D01*
X165878095Y-101896152D02*
X165830476Y-101943771D01*
X165830476Y-101943771D02*
X165735238Y-101991390D01*
X165735238Y-101991390D02*
X165544762Y-101991390D01*
X165544762Y-101991390D02*
X165449524Y-102039009D01*
X165449524Y-102039009D02*
X165401905Y-102086628D01*
X165401905Y-102086628D02*
X165354286Y-102181866D01*
X165354286Y-102181866D02*
X165354286Y-102372342D01*
X165354286Y-102372342D02*
X165401905Y-102467580D01*
X165401905Y-102467580D02*
X165449524Y-102515200D01*
X165449524Y-102515200D02*
X165544762Y-102562819D01*
X165544762Y-102562819D02*
X165735238Y-102562819D01*
X165735238Y-102562819D02*
X165830476Y-102515200D01*
X165830476Y-102515200D02*
X165878095Y-102467580D01*
X165878095Y-102467580D02*
X165925714Y-102372342D01*
X165925714Y-102372342D02*
X165925714Y-102181866D01*
X165925714Y-102181866D02*
X165878095Y-102086628D01*
X165878095Y-102086628D02*
X165830476Y-102039009D01*
X165830476Y-102039009D02*
X165735238Y-101991390D01*
X173188333Y-81922819D02*
X172712143Y-81922819D01*
X172712143Y-81922819D02*
X172712143Y-80922819D01*
X174045476Y-81922819D02*
X173474048Y-81922819D01*
X173759762Y-81922819D02*
X173759762Y-80922819D01*
X173759762Y-80922819D02*
X173664524Y-81065676D01*
X173664524Y-81065676D02*
X173569286Y-81160914D01*
X173569286Y-81160914D02*
X173474048Y-81208533D01*
X142359142Y-99235419D02*
X142025809Y-98759228D01*
X141787714Y-99235419D02*
X141787714Y-98235419D01*
X141787714Y-98235419D02*
X142168666Y-98235419D01*
X142168666Y-98235419D02*
X142263904Y-98283038D01*
X142263904Y-98283038D02*
X142311523Y-98330657D01*
X142311523Y-98330657D02*
X142359142Y-98425895D01*
X142359142Y-98425895D02*
X142359142Y-98568752D01*
X142359142Y-98568752D02*
X142311523Y-98663990D01*
X142311523Y-98663990D02*
X142263904Y-98711609D01*
X142263904Y-98711609D02*
X142168666Y-98759228D01*
X142168666Y-98759228D02*
X141787714Y-98759228D01*
X143311523Y-99235419D02*
X142740095Y-99235419D01*
X143025809Y-99235419D02*
X143025809Y-98235419D01*
X143025809Y-98235419D02*
X142930571Y-98378276D01*
X142930571Y-98378276D02*
X142835333Y-98473514D01*
X142835333Y-98473514D02*
X142740095Y-98521133D01*
X144216285Y-98235419D02*
X143740095Y-98235419D01*
X143740095Y-98235419D02*
X143692476Y-98711609D01*
X143692476Y-98711609D02*
X143740095Y-98663990D01*
X143740095Y-98663990D02*
X143835333Y-98616371D01*
X143835333Y-98616371D02*
X144073428Y-98616371D01*
X144073428Y-98616371D02*
X144168666Y-98663990D01*
X144168666Y-98663990D02*
X144216285Y-98711609D01*
X144216285Y-98711609D02*
X144263904Y-98806847D01*
X144263904Y-98806847D02*
X144263904Y-99044942D01*
X144263904Y-99044942D02*
X144216285Y-99140180D01*
X144216285Y-99140180D02*
X144168666Y-99187800D01*
X144168666Y-99187800D02*
X144073428Y-99235419D01*
X144073428Y-99235419D02*
X143835333Y-99235419D01*
X143835333Y-99235419D02*
X143740095Y-99187800D01*
X143740095Y-99187800D02*
X143692476Y-99140180D01*
X149425819Y-133298466D02*
X148949628Y-133631799D01*
X149425819Y-133869894D02*
X148425819Y-133869894D01*
X148425819Y-133869894D02*
X148425819Y-133488942D01*
X148425819Y-133488942D02*
X148473438Y-133393704D01*
X148473438Y-133393704D02*
X148521057Y-133346085D01*
X148521057Y-133346085D02*
X148616295Y-133298466D01*
X148616295Y-133298466D02*
X148759152Y-133298466D01*
X148759152Y-133298466D02*
X148854390Y-133346085D01*
X148854390Y-133346085D02*
X148902009Y-133393704D01*
X148902009Y-133393704D02*
X148949628Y-133488942D01*
X148949628Y-133488942D02*
X148949628Y-133869894D01*
X148521057Y-132917513D02*
X148473438Y-132869894D01*
X148473438Y-132869894D02*
X148425819Y-132774656D01*
X148425819Y-132774656D02*
X148425819Y-132536561D01*
X148425819Y-132536561D02*
X148473438Y-132441323D01*
X148473438Y-132441323D02*
X148521057Y-132393704D01*
X148521057Y-132393704D02*
X148616295Y-132346085D01*
X148616295Y-132346085D02*
X148711533Y-132346085D01*
X148711533Y-132346085D02*
X148854390Y-132393704D01*
X148854390Y-132393704D02*
X149425819Y-132965132D01*
X149425819Y-132965132D02*
X149425819Y-132346085D01*
X158408810Y-134058819D02*
X158408810Y-133058819D01*
X159456428Y-133963580D02*
X159408809Y-134011200D01*
X159408809Y-134011200D02*
X159265952Y-134058819D01*
X159265952Y-134058819D02*
X159170714Y-134058819D01*
X159170714Y-134058819D02*
X159027857Y-134011200D01*
X159027857Y-134011200D02*
X158932619Y-133915961D01*
X158932619Y-133915961D02*
X158885000Y-133820723D01*
X158885000Y-133820723D02*
X158837381Y-133630247D01*
X158837381Y-133630247D02*
X158837381Y-133487390D01*
X158837381Y-133487390D02*
X158885000Y-133296914D01*
X158885000Y-133296914D02*
X158932619Y-133201676D01*
X158932619Y-133201676D02*
X159027857Y-133106438D01*
X159027857Y-133106438D02*
X159170714Y-133058819D01*
X159170714Y-133058819D02*
X159265952Y-133058819D01*
X159265952Y-133058819D02*
X159408809Y-133106438D01*
X159408809Y-133106438D02*
X159456428Y-133154057D01*
X160408809Y-134058819D02*
X159837381Y-134058819D01*
X160123095Y-134058819D02*
X160123095Y-133058819D01*
X160123095Y-133058819D02*
X160027857Y-133201676D01*
X160027857Y-133201676D02*
X159932619Y-133296914D01*
X159932619Y-133296914D02*
X159837381Y-133344533D01*
X185017580Y-82589666D02*
X185065200Y-82637285D01*
X185065200Y-82637285D02*
X185112819Y-82780142D01*
X185112819Y-82780142D02*
X185112819Y-82875380D01*
X185112819Y-82875380D02*
X185065200Y-83018237D01*
X185065200Y-83018237D02*
X184969961Y-83113475D01*
X184969961Y-83113475D02*
X184874723Y-83161094D01*
X184874723Y-83161094D02*
X184684247Y-83208713D01*
X184684247Y-83208713D02*
X184541390Y-83208713D01*
X184541390Y-83208713D02*
X184350914Y-83161094D01*
X184350914Y-83161094D02*
X184255676Y-83113475D01*
X184255676Y-83113475D02*
X184160438Y-83018237D01*
X184160438Y-83018237D02*
X184112819Y-82875380D01*
X184112819Y-82875380D02*
X184112819Y-82780142D01*
X184112819Y-82780142D02*
X184160438Y-82637285D01*
X184160438Y-82637285D02*
X184208057Y-82589666D01*
X184112819Y-81684904D02*
X184112819Y-82161094D01*
X184112819Y-82161094D02*
X184589009Y-82208713D01*
X184589009Y-82208713D02*
X184541390Y-82161094D01*
X184541390Y-82161094D02*
X184493771Y-82065856D01*
X184493771Y-82065856D02*
X184493771Y-81827761D01*
X184493771Y-81827761D02*
X184541390Y-81732523D01*
X184541390Y-81732523D02*
X184589009Y-81684904D01*
X184589009Y-81684904D02*
X184684247Y-81637285D01*
X184684247Y-81637285D02*
X184922342Y-81637285D01*
X184922342Y-81637285D02*
X185017580Y-81684904D01*
X185017580Y-81684904D02*
X185065200Y-81732523D01*
X185065200Y-81732523D02*
X185112819Y-81827761D01*
X185112819Y-81827761D02*
X185112819Y-82065856D01*
X185112819Y-82065856D02*
X185065200Y-82161094D01*
X185065200Y-82161094D02*
X185017580Y-82208713D01*
X176061810Y-87195819D02*
X176061810Y-86195819D01*
X177109428Y-87100580D02*
X177061809Y-87148200D01*
X177061809Y-87148200D02*
X176918952Y-87195819D01*
X176918952Y-87195819D02*
X176823714Y-87195819D01*
X176823714Y-87195819D02*
X176680857Y-87148200D01*
X176680857Y-87148200D02*
X176585619Y-87052961D01*
X176585619Y-87052961D02*
X176538000Y-86957723D01*
X176538000Y-86957723D02*
X176490381Y-86767247D01*
X176490381Y-86767247D02*
X176490381Y-86624390D01*
X176490381Y-86624390D02*
X176538000Y-86433914D01*
X176538000Y-86433914D02*
X176585619Y-86338676D01*
X176585619Y-86338676D02*
X176680857Y-86243438D01*
X176680857Y-86243438D02*
X176823714Y-86195819D01*
X176823714Y-86195819D02*
X176918952Y-86195819D01*
X176918952Y-86195819D02*
X177061809Y-86243438D01*
X177061809Y-86243438D02*
X177109428Y-86291057D01*
X177490381Y-86291057D02*
X177538000Y-86243438D01*
X177538000Y-86243438D02*
X177633238Y-86195819D01*
X177633238Y-86195819D02*
X177871333Y-86195819D01*
X177871333Y-86195819D02*
X177966571Y-86243438D01*
X177966571Y-86243438D02*
X178014190Y-86291057D01*
X178014190Y-86291057D02*
X178061809Y-86386295D01*
X178061809Y-86386295D02*
X178061809Y-86481533D01*
X178061809Y-86481533D02*
X178014190Y-86624390D01*
X178014190Y-86624390D02*
X177442762Y-87195819D01*
X177442762Y-87195819D02*
X178061809Y-87195819D01*
D12*
%TO.C,IC5*%
X149845200Y-76622600D02*
X149845200Y-86902600D01*
X149845200Y-86902600D02*
X154345200Y-86902600D01*
X151095200Y-76622600D02*
X149845200Y-76622600D01*
X154345200Y-76622600D02*
X153095200Y-76622600D01*
X154345200Y-86902600D02*
X154345200Y-76622600D01*
X153095200Y-76622600D02*
G75*
G02*
X151095200Y-76622600I-1000000J0D01*
G01*
%TO.C,C2*%
X138497000Y-121693000D02*
X138497000Y-124433000D01*
X138497000Y-121693000D02*
X143737000Y-121693000D01*
X138497000Y-124433000D02*
X143737000Y-124433000D01*
X143737000Y-121693000D02*
X143737000Y-124433000D01*
%TO.C,J6*%
X163684000Y-70466200D02*
X163684000Y-74466200D01*
X163974000Y-69436200D02*
X163974000Y-75456200D01*
X163974000Y-75456200D02*
X171814000Y-75456200D01*
X164554000Y-69436200D02*
X164554000Y-70036200D01*
X164554000Y-70036200D02*
X166154000Y-70036200D01*
X165354000Y-74456200D02*
X165604000Y-73926200D01*
X165354000Y-74456200D02*
X170434000Y-74456200D01*
X165354000Y-75456200D02*
X165354000Y-74456200D01*
X165604000Y-73926200D02*
X170184000Y-73926200D01*
X165604000Y-75456200D02*
X165604000Y-74456200D01*
X166154000Y-70036200D02*
X166154000Y-69436200D01*
X167094000Y-69436200D02*
X167094000Y-70036200D01*
X167094000Y-70036200D02*
X168694000Y-70036200D01*
X168694000Y-70036200D02*
X168694000Y-69436200D01*
X169634000Y-69436200D02*
X169634000Y-70036200D01*
X169634000Y-70036200D02*
X171234000Y-70036200D01*
X170184000Y-73926200D02*
X170434000Y-74456200D01*
X170184000Y-75456200D02*
X170184000Y-74456200D01*
X170434000Y-74456200D02*
X170434000Y-75456200D01*
X171234000Y-70036200D02*
X171234000Y-69436200D01*
X171814000Y-69436200D02*
X163974000Y-69436200D01*
X171814000Y-75456200D02*
X171814000Y-69436200D01*
%TO.C,C6*%
X165381000Y-76140000D02*
X168121000Y-76140000D01*
X165381000Y-81380000D02*
X165381000Y-76140000D01*
X165381000Y-81380000D02*
X168121000Y-81380000D01*
X168121000Y-81380000D02*
X168121000Y-76140000D01*
%TO.C,R11*%
X156496000Y-91086000D02*
X163036000Y-91086000D01*
X156496000Y-91416000D02*
X156496000Y-91086000D01*
X156496000Y-93496000D02*
X156496000Y-93826000D01*
X156496000Y-93826000D02*
X163036000Y-93826000D01*
X163036000Y-91086000D02*
X163036000Y-91416000D01*
X163036000Y-93826000D02*
X163036000Y-93496000D01*
%TO.C,R12*%
X146564600Y-91086000D02*
X146564600Y-91416000D01*
X146564600Y-93826000D02*
X146564600Y-93496000D01*
X153104600Y-91086000D02*
X146564600Y-91086000D01*
X153104600Y-91416000D02*
X153104600Y-91086000D01*
X153104600Y-93496000D02*
X153104600Y-93826000D01*
X153104600Y-93826000D02*
X146564600Y-93826000D01*
%TO.C,R10*%
X146539200Y-100738000D02*
X146539200Y-101068000D01*
X146539200Y-103478000D02*
X146539200Y-103148000D01*
X153079200Y-100738000D02*
X146539200Y-100738000D01*
X153079200Y-101068000D02*
X153079200Y-100738000D01*
X153079200Y-103148000D02*
X153079200Y-103478000D01*
X153079200Y-103478000D02*
X146539200Y-103478000D01*
%TO.C,R7*%
X156496000Y-87784000D02*
X156496000Y-88114000D01*
X156496000Y-90524000D02*
X156496000Y-90194000D01*
X163036000Y-87784000D02*
X156496000Y-87784000D01*
X163036000Y-88114000D02*
X163036000Y-87784000D01*
X163036000Y-90194000D02*
X163036000Y-90524000D01*
X163036000Y-90524000D02*
X156496000Y-90524000D01*
%TO.C,C12*%
X146940600Y-69360800D02*
X147385600Y-69360800D01*
X146940600Y-75600800D02*
X146940600Y-69360800D01*
X146940600Y-75600800D02*
X147385600Y-75600800D01*
X149235600Y-69360800D02*
X149680600Y-69360800D01*
X149235600Y-75600800D02*
X149680600Y-75600800D01*
X149680600Y-75600800D02*
X149680600Y-69360800D01*
%TO.C,J3*%
X179382000Y-119778000D02*
X179382000Y-130158000D01*
X179382000Y-121158000D02*
X180382000Y-121158000D01*
X179382000Y-121408000D02*
X180382000Y-121408000D01*
X179382000Y-128528000D02*
X180382000Y-128528000D01*
X179382000Y-130158000D02*
X185402000Y-130158000D01*
X180382000Y-121158000D02*
X180382000Y-128778000D01*
X180382000Y-121158000D02*
X180912000Y-121408000D01*
X180382000Y-128778000D02*
X179382000Y-128778000D01*
X180912000Y-121408000D02*
X180912000Y-128528000D01*
X180912000Y-128528000D02*
X180382000Y-128778000D01*
X184372000Y-119488000D02*
X180372000Y-119488000D01*
X184802000Y-120358000D02*
X184802000Y-121958000D01*
X184802000Y-121958000D02*
X185402000Y-121958000D01*
X184802000Y-122898000D02*
X184802000Y-124498000D01*
X184802000Y-124498000D02*
X185402000Y-124498000D01*
X184802000Y-125438000D02*
X184802000Y-127038000D01*
X184802000Y-127038000D02*
X185402000Y-127038000D01*
X184802000Y-127978000D02*
X184802000Y-129578000D01*
X184802000Y-129578000D02*
X185402000Y-129578000D01*
X185402000Y-119778000D02*
X179382000Y-119778000D01*
X185402000Y-120358000D02*
X184802000Y-120358000D01*
X185402000Y-122898000D02*
X184802000Y-122898000D01*
X185402000Y-125438000D02*
X184802000Y-125438000D01*
X185402000Y-127978000D02*
X184802000Y-127978000D01*
X185402000Y-130158000D02*
X185402000Y-119778000D01*
%TO.C,IC3*%
X168982000Y-86255000D02*
X168982000Y-82655000D01*
X164532000Y-84455000D02*
G75*
G02*
X168970478Y-82616522I2600000J0D01*
G01*
X168970478Y-86293478D02*
G75*
G02*
X164532000Y-84455000I-1838478J1838478D01*
G01*
%TO.C,J1*%
X137813000Y-125508000D02*
X137813000Y-130808000D01*
X137813000Y-127688000D02*
X138413000Y-127688000D01*
X137813000Y-130228000D02*
X138413000Y-130228000D01*
X137813000Y-130808000D02*
X143833000Y-130808000D01*
X138413000Y-126088000D02*
X137813000Y-126088000D01*
X138413000Y-127688000D02*
X138413000Y-126088000D01*
X138413000Y-128628000D02*
X137813000Y-128628000D01*
X138413000Y-130228000D02*
X138413000Y-128628000D01*
X138843000Y-131098000D02*
X142843000Y-131098000D01*
X142303000Y-127138000D02*
X142833000Y-126888000D01*
X142303000Y-129178000D02*
X142303000Y-127138000D01*
X142833000Y-126888000D02*
X143833000Y-126888000D01*
X142833000Y-129428000D02*
X142303000Y-129178000D01*
X142833000Y-129428000D02*
X142833000Y-126888000D01*
X143833000Y-125508000D02*
X137813000Y-125508000D01*
X143833000Y-127138000D02*
X142833000Y-127138000D01*
X143833000Y-129178000D02*
X142833000Y-129178000D01*
X143833000Y-129428000D02*
X142833000Y-129428000D01*
X143833000Y-130808000D02*
X143833000Y-125508000D01*
%TO.C,R6*%
X173382000Y-93504000D02*
X173712000Y-93504000D01*
X173382000Y-100044000D02*
X173382000Y-93504000D01*
X173712000Y-100044000D02*
X173382000Y-100044000D01*
X175792000Y-100044000D02*
X176122000Y-100044000D01*
X176122000Y-93504000D02*
X175792000Y-93504000D01*
X176122000Y-100044000D02*
X176122000Y-93504000D01*
%TO.C,R3*%
X144487600Y-123603000D02*
X144487600Y-130143000D01*
X144487600Y-130143000D02*
X144817600Y-130143000D01*
X144817600Y-123603000D02*
X144487600Y-123603000D01*
X146897600Y-123603000D02*
X147227600Y-123603000D01*
X147227600Y-123603000D02*
X147227600Y-130143000D01*
X147227600Y-130143000D02*
X146897600Y-130143000D01*
%TO.C,R13*%
X158370600Y-78518000D02*
X158370600Y-85058000D01*
X158370600Y-85058000D02*
X158700600Y-85058000D01*
X158700600Y-78518000D02*
X158370600Y-78518000D01*
X160780600Y-78518000D02*
X161110600Y-78518000D01*
X161110600Y-78518000D02*
X161110600Y-85058000D01*
X161110600Y-85058000D02*
X160780600Y-85058000D01*
%TO.C,C13*%
X156694000Y-97288000D02*
X155165000Y-97288000D01*
X156694000Y-97328000D02*
X155169000Y-97328000D01*
X156694000Y-97368000D02*
X155173000Y-97368000D01*
X156694000Y-97408000D02*
X155178000Y-97408000D01*
X156694000Y-97448000D02*
X155184000Y-97448000D01*
X156694000Y-97488000D02*
X155191000Y-97488000D01*
X156694000Y-97528000D02*
X155198000Y-97528000D01*
X156694000Y-97568000D02*
X155206000Y-97568000D01*
X156694000Y-97608000D02*
X155214000Y-97608000D01*
X156694000Y-97648000D02*
X155223000Y-97648000D01*
X156694000Y-97688000D02*
X155233000Y-97688000D01*
X156694000Y-97728000D02*
X155243000Y-97728000D01*
X156694000Y-97769000D02*
X155254000Y-97769000D01*
X156694000Y-97809000D02*
X155266000Y-97809000D01*
X156694000Y-97849000D02*
X155279000Y-97849000D01*
X156694000Y-97889000D02*
X155292000Y-97889000D01*
X156694000Y-97929000D02*
X155306000Y-97929000D01*
X156694000Y-97969000D02*
X155320000Y-97969000D01*
X156694000Y-98009000D02*
X155336000Y-98009000D01*
X156694000Y-98049000D02*
X155352000Y-98049000D01*
X156694000Y-98089000D02*
X155369000Y-98089000D01*
X156694000Y-98129000D02*
X155386000Y-98129000D01*
X156694000Y-98169000D02*
X155405000Y-98169000D01*
X156694000Y-98209000D02*
X155424000Y-98209000D01*
X156694000Y-98249000D02*
X155444000Y-98249000D01*
X156694000Y-98289000D02*
X155466000Y-98289000D01*
X156694000Y-98329000D02*
X155487000Y-98329000D01*
X156694000Y-98369000D02*
X155510000Y-98369000D01*
X156694000Y-98409000D02*
X155534000Y-98409000D01*
X156694000Y-98449000D02*
X155559000Y-98449000D01*
X156694000Y-98489000D02*
X155585000Y-98489000D01*
X156694000Y-98529000D02*
X155612000Y-98529000D01*
X156694000Y-98569000D02*
X155639000Y-98569000D01*
X156694000Y-98609000D02*
X155669000Y-98609000D01*
X156694000Y-98649000D02*
X155699000Y-98649000D01*
X156694000Y-98689000D02*
X155730000Y-98689000D01*
X156694000Y-98729000D02*
X155763000Y-98729000D01*
X156694000Y-98769000D02*
X155797000Y-98769000D01*
X156694000Y-98809000D02*
X155833000Y-98809000D01*
X156694000Y-98849000D02*
X155870000Y-98849000D01*
X156694000Y-98889000D02*
X155908000Y-98889000D01*
X156694000Y-98929000D02*
X155949000Y-98929000D01*
X156694000Y-98969000D02*
X155991000Y-98969000D01*
X156694000Y-99009000D02*
X156035000Y-99009000D01*
X156694000Y-99049000D02*
X156081000Y-99049000D01*
X156694000Y-99089000D02*
X156129000Y-99089000D01*
X156694000Y-99129000D02*
X156180000Y-99129000D01*
X156694000Y-99169000D02*
X156234000Y-99169000D01*
X156694000Y-99209000D02*
X156291000Y-99209000D01*
X156694000Y-99249000D02*
X156351000Y-99249000D01*
X156694000Y-99289000D02*
X156415000Y-99289000D01*
X156694000Y-99329000D02*
X156483000Y-99329000D01*
X158018000Y-99649000D02*
X157450000Y-99649000D01*
X158252000Y-99609000D02*
X157216000Y-99609000D01*
X158411000Y-99569000D02*
X157057000Y-99569000D01*
X158539000Y-99529000D02*
X156929000Y-99529000D01*
X158649000Y-99489000D02*
X156819000Y-99489000D01*
X158745000Y-99449000D02*
X156723000Y-99449000D01*
X158832000Y-99409000D02*
X156636000Y-99409000D01*
X158912000Y-99369000D02*
X156556000Y-99369000D01*
X158985000Y-99329000D02*
X158774000Y-99329000D01*
X159053000Y-99289000D02*
X158774000Y-99289000D01*
X159117000Y-99249000D02*
X158774000Y-99249000D01*
X159177000Y-99209000D02*
X158774000Y-99209000D01*
X159209000Y-94243225D02*
X159209000Y-94743225D01*
X159234000Y-99169000D02*
X158774000Y-99169000D01*
X159288000Y-99129000D02*
X158774000Y-99129000D01*
X159339000Y-99089000D02*
X158774000Y-99089000D01*
X159387000Y-99049000D02*
X158774000Y-99049000D01*
X159433000Y-99009000D02*
X158774000Y-99009000D01*
X159459000Y-94493225D02*
X158959000Y-94493225D01*
X159477000Y-98969000D02*
X158774000Y-98969000D01*
X159519000Y-98929000D02*
X158774000Y-98929000D01*
X159560000Y-98889000D02*
X158774000Y-98889000D01*
X159598000Y-98849000D02*
X158774000Y-98849000D01*
X159635000Y-98809000D02*
X158774000Y-98809000D01*
X159671000Y-98769000D02*
X158774000Y-98769000D01*
X159705000Y-98729000D02*
X158774000Y-98729000D01*
X159738000Y-98689000D02*
X158774000Y-98689000D01*
X159769000Y-98649000D02*
X158774000Y-98649000D01*
X159799000Y-98609000D02*
X158774000Y-98609000D01*
X159829000Y-98569000D02*
X158774000Y-98569000D01*
X159856000Y-98529000D02*
X158774000Y-98529000D01*
X159883000Y-98489000D02*
X158774000Y-98489000D01*
X159909000Y-98449000D02*
X158774000Y-98449000D01*
X159934000Y-98409000D02*
X158774000Y-98409000D01*
X159958000Y-98369000D02*
X158774000Y-98369000D01*
X159981000Y-98329000D02*
X158774000Y-98329000D01*
X160002000Y-98289000D02*
X158774000Y-98289000D01*
X160024000Y-98249000D02*
X158774000Y-98249000D01*
X160044000Y-98209000D02*
X158774000Y-98209000D01*
X160063000Y-98169000D02*
X158774000Y-98169000D01*
X160082000Y-98129000D02*
X158774000Y-98129000D01*
X160099000Y-98089000D02*
X158774000Y-98089000D01*
X160116000Y-98049000D02*
X158774000Y-98049000D01*
X160132000Y-98009000D02*
X158774000Y-98009000D01*
X160148000Y-97969000D02*
X158774000Y-97969000D01*
X160162000Y-97929000D02*
X158774000Y-97929000D01*
X160176000Y-97889000D02*
X158774000Y-97889000D01*
X160189000Y-97849000D02*
X158774000Y-97849000D01*
X160202000Y-97809000D02*
X158774000Y-97809000D01*
X160214000Y-97769000D02*
X158774000Y-97769000D01*
X160225000Y-97728000D02*
X158774000Y-97728000D01*
X160235000Y-97688000D02*
X158774000Y-97688000D01*
X160245000Y-97648000D02*
X158774000Y-97648000D01*
X160254000Y-97608000D02*
X158774000Y-97608000D01*
X160262000Y-97568000D02*
X158774000Y-97568000D01*
X160270000Y-97528000D02*
X158774000Y-97528000D01*
X160277000Y-97488000D02*
X158774000Y-97488000D01*
X160284000Y-97448000D02*
X158774000Y-97448000D01*
X160290000Y-97408000D02*
X158774000Y-97408000D01*
X160295000Y-97368000D02*
X158774000Y-97368000D01*
X160299000Y-97328000D02*
X158774000Y-97328000D01*
X160303000Y-97288000D02*
X158774000Y-97288000D01*
X160307000Y-97248000D02*
X155161000Y-97248000D01*
X160310000Y-97208000D02*
X155158000Y-97208000D01*
X160312000Y-97168000D02*
X155156000Y-97168000D01*
X160313000Y-97128000D02*
X155155000Y-97128000D01*
X160314000Y-97048000D02*
X155154000Y-97048000D01*
X160314000Y-97088000D02*
X155154000Y-97088000D01*
X160354000Y-97048000D02*
G75*
G02*
X155114000Y-97048000I-2620000J0D01*
G01*
X155114000Y-97048000D02*
G75*
G02*
X160354000Y-97048000I2620000J0D01*
G01*
%TO.C,C4*%
X169445000Y-83085000D02*
X169445000Y-88325000D01*
X172185000Y-83085000D02*
X169445000Y-83085000D01*
X172185000Y-83085000D02*
X172185000Y-88325000D01*
X172185000Y-88325000D02*
X169445000Y-88325000D01*
%TO.C,R5*%
X169699000Y-93504000D02*
X170029000Y-93504000D01*
X169699000Y-100044000D02*
X169699000Y-93504000D01*
X170029000Y-100044000D02*
X169699000Y-100044000D01*
X172109000Y-100044000D02*
X172439000Y-100044000D01*
X172439000Y-93504000D02*
X172109000Y-93504000D01*
X172439000Y-100044000D02*
X172439000Y-93504000D01*
%TO.C,C3*%
X175795000Y-72330000D02*
X178535000Y-72330000D01*
X175795000Y-77570000D02*
X175795000Y-72330000D01*
X175795000Y-77570000D02*
X178535000Y-77570000D01*
X178535000Y-77570000D02*
X178535000Y-72330000D01*
%TO.C,R4*%
X144680000Y-109633000D02*
X144680000Y-116173000D01*
X144680000Y-116173000D02*
X145010000Y-116173000D01*
X145010000Y-109633000D02*
X144680000Y-109633000D01*
X147090000Y-109633000D02*
X147420000Y-109633000D01*
X147420000Y-109633000D02*
X147420000Y-116173000D01*
X147420000Y-116173000D02*
X147090000Y-116173000D01*
%TO.C,R14*%
X141860600Y-78518000D02*
X142190600Y-78518000D01*
X141860600Y-85058000D02*
X141860600Y-78518000D01*
X142190600Y-85058000D02*
X141860600Y-85058000D01*
X144270600Y-85058000D02*
X144600600Y-85058000D01*
X144600600Y-78518000D02*
X144270600Y-78518000D01*
X144600600Y-85058000D02*
X144600600Y-78518000D01*
%TO.C,J2*%
X179382000Y-72280000D02*
X179382000Y-77580000D01*
X179382000Y-73660000D02*
X180382000Y-73660000D01*
X179382000Y-73910000D02*
X180382000Y-73910000D01*
X179382000Y-75950000D02*
X180382000Y-75950000D01*
X179382000Y-77580000D02*
X185402000Y-77580000D01*
X180382000Y-73660000D02*
X180382000Y-76200000D01*
X180382000Y-73660000D02*
X180912000Y-73910000D01*
X180382000Y-76200000D02*
X179382000Y-76200000D01*
X180912000Y-73910000D02*
X180912000Y-75950000D01*
X180912000Y-75950000D02*
X180382000Y-76200000D01*
X184372000Y-71990000D02*
X180372000Y-71990000D01*
X184802000Y-72860000D02*
X184802000Y-74460000D01*
X184802000Y-74460000D02*
X185402000Y-74460000D01*
X184802000Y-75400000D02*
X184802000Y-77000000D01*
X184802000Y-77000000D02*
X185402000Y-77000000D01*
X185402000Y-72280000D02*
X179382000Y-72280000D01*
X185402000Y-72860000D02*
X184802000Y-72860000D01*
X185402000Y-75400000D02*
X184802000Y-75400000D01*
X185402000Y-77580000D02*
X185402000Y-72280000D01*
%TO.C,R9*%
X146564600Y-87784000D02*
X146564600Y-88114000D01*
X146564600Y-90524000D02*
X146564600Y-90194000D01*
X153104600Y-87784000D02*
X146564600Y-87784000D01*
X153104600Y-88114000D02*
X153104600Y-87784000D01*
X153104600Y-90194000D02*
X153104600Y-90524000D01*
X153104600Y-90524000D02*
X146564600Y-90524000D01*
%TO.C,C10*%
X151414200Y-72842800D02*
X151414200Y-72038800D01*
X151454200Y-73073800D02*
X151454200Y-71807800D01*
X151494200Y-73242800D02*
X151494200Y-71638800D01*
X151534200Y-73380800D02*
X151534200Y-71500800D01*
X151574200Y-73499800D02*
X151574200Y-71381800D01*
X151614200Y-73605800D02*
X151614200Y-71275800D01*
X151654200Y-73702800D02*
X151654200Y-71178800D01*
X151694200Y-73790800D02*
X151694200Y-71090800D01*
X151734200Y-73872800D02*
X151734200Y-71008800D01*
X151774200Y-73949800D02*
X151774200Y-70931800D01*
X151814200Y-74021800D02*
X151814200Y-70859800D01*
X151854200Y-74090800D02*
X151854200Y-70790800D01*
X151894200Y-74154800D02*
X151894200Y-70726800D01*
X151934200Y-74216800D02*
X151934200Y-70664800D01*
X151974200Y-74274800D02*
X151974200Y-70606800D01*
X152014200Y-74330800D02*
X152014200Y-70550800D01*
X152054200Y-74384800D02*
X152054200Y-70496800D01*
X152094200Y-74435800D02*
X152094200Y-70445800D01*
X152134200Y-74484800D02*
X152134200Y-70396800D01*
X152174200Y-74532800D02*
X152174200Y-70348800D01*
X152214200Y-74577800D02*
X152214200Y-70303800D01*
X152254200Y-74622800D02*
X152254200Y-70258800D01*
X152294200Y-74664800D02*
X152294200Y-70216800D01*
X152334200Y-74705800D02*
X152334200Y-70175800D01*
X152374200Y-71400800D02*
X152374200Y-70135800D01*
X152374200Y-74745800D02*
X152374200Y-73480800D01*
X152414200Y-71400800D02*
X152414200Y-70097800D01*
X152414200Y-74783800D02*
X152414200Y-73480800D01*
X152454200Y-71400800D02*
X152454200Y-70060800D01*
X152454200Y-74820800D02*
X152454200Y-73480800D01*
X152494200Y-71400800D02*
X152494200Y-70024800D01*
X152494200Y-74856800D02*
X152494200Y-73480800D01*
X152534200Y-71400800D02*
X152534200Y-69990800D01*
X152534200Y-74890800D02*
X152534200Y-73480800D01*
X152574200Y-71400800D02*
X152574200Y-69956800D01*
X152574200Y-74924800D02*
X152574200Y-73480800D01*
X152614200Y-71400800D02*
X152614200Y-69924800D01*
X152614200Y-74956800D02*
X152614200Y-73480800D01*
X152654200Y-71400800D02*
X152654200Y-69892800D01*
X152654200Y-74988800D02*
X152654200Y-73480800D01*
X152694200Y-71400800D02*
X152694200Y-69862800D01*
X152694200Y-75018800D02*
X152694200Y-73480800D01*
X152734200Y-71400800D02*
X152734200Y-69833800D01*
X152734200Y-75047800D02*
X152734200Y-73480800D01*
X152774200Y-71400800D02*
X152774200Y-69804800D01*
X152774200Y-75076800D02*
X152774200Y-73480800D01*
X152814200Y-71400800D02*
X152814200Y-69776800D01*
X152814200Y-75104800D02*
X152814200Y-73480800D01*
X152854200Y-71400800D02*
X152854200Y-69750800D01*
X152854200Y-75130800D02*
X152854200Y-73480800D01*
X152894200Y-71400800D02*
X152894200Y-69724800D01*
X152894200Y-75156800D02*
X152894200Y-73480800D01*
X152934200Y-71400800D02*
X152934200Y-69698800D01*
X152934200Y-75182800D02*
X152934200Y-73480800D01*
X152974200Y-71400800D02*
X152974200Y-69674800D01*
X152974200Y-75206800D02*
X152974200Y-73480800D01*
X153014200Y-71400800D02*
X153014200Y-69650800D01*
X153014200Y-75230800D02*
X153014200Y-73480800D01*
X153054200Y-71400800D02*
X153054200Y-69628800D01*
X153054200Y-75252800D02*
X153054200Y-73480800D01*
X153094200Y-71400800D02*
X153094200Y-69606800D01*
X153094200Y-75274800D02*
X153094200Y-73480800D01*
X153134200Y-71400800D02*
X153134200Y-69584800D01*
X153134200Y-75296800D02*
X153134200Y-73480800D01*
X153174200Y-71400800D02*
X153174200Y-69564800D01*
X153174200Y-75316800D02*
X153174200Y-73480800D01*
X153214200Y-71400800D02*
X153214200Y-69544800D01*
X153214200Y-75336800D02*
X153214200Y-73480800D01*
X153254200Y-71400800D02*
X153254200Y-69524800D01*
X153254200Y-75356800D02*
X153254200Y-73480800D01*
X153294200Y-71400800D02*
X153294200Y-69506800D01*
X153294200Y-75374800D02*
X153294200Y-73480800D01*
X153334200Y-71400800D02*
X153334200Y-69488800D01*
X153334200Y-75392800D02*
X153334200Y-73480800D01*
X153374200Y-71400800D02*
X153374200Y-69470800D01*
X153374200Y-75410800D02*
X153374200Y-73480800D01*
X153414200Y-71400800D02*
X153414200Y-69454800D01*
X153414200Y-75426800D02*
X153414200Y-73480800D01*
X153454200Y-71400800D02*
X153454200Y-69438800D01*
X153454200Y-75442800D02*
X153454200Y-73480800D01*
X153494200Y-71400800D02*
X153494200Y-69422800D01*
X153494200Y-75458800D02*
X153494200Y-73480800D01*
X153534200Y-71400800D02*
X153534200Y-69407800D01*
X153534200Y-75473800D02*
X153534200Y-73480800D01*
X153574200Y-71400800D02*
X153574200Y-69393800D01*
X153574200Y-75487800D02*
X153574200Y-73480800D01*
X153614200Y-71400800D02*
X153614200Y-69379800D01*
X153614200Y-75501800D02*
X153614200Y-73480800D01*
X153654200Y-71400800D02*
X153654200Y-69366800D01*
X153654200Y-75514800D02*
X153654200Y-73480800D01*
X153694200Y-71400800D02*
X153694200Y-69354800D01*
X153694200Y-75526800D02*
X153694200Y-73480800D01*
X153734200Y-71400800D02*
X153734200Y-69342800D01*
X153734200Y-75538800D02*
X153734200Y-73480800D01*
X153774200Y-71400800D02*
X153774200Y-69330800D01*
X153774200Y-75550800D02*
X153774200Y-73480800D01*
X153814200Y-71400800D02*
X153814200Y-69319800D01*
X153814200Y-75561800D02*
X153814200Y-73480800D01*
X153854200Y-71400800D02*
X153854200Y-69309800D01*
X153854200Y-75571800D02*
X153854200Y-73480800D01*
X153894200Y-71400800D02*
X153894200Y-69299800D01*
X153894200Y-75581800D02*
X153894200Y-73480800D01*
X153934200Y-71400800D02*
X153934200Y-69290800D01*
X153934200Y-75590800D02*
X153934200Y-73480800D01*
X153975200Y-71400800D02*
X153975200Y-69281800D01*
X153975200Y-75599800D02*
X153975200Y-73480800D01*
X154015200Y-71400800D02*
X154015200Y-69273800D01*
X154015200Y-75607800D02*
X154015200Y-73480800D01*
X154055200Y-71400800D02*
X154055200Y-69265800D01*
X154055200Y-75615800D02*
X154055200Y-73480800D01*
X154095200Y-71400800D02*
X154095200Y-69258800D01*
X154095200Y-75622800D02*
X154095200Y-73480800D01*
X154135200Y-71400800D02*
X154135200Y-69251800D01*
X154135200Y-75629800D02*
X154135200Y-73480800D01*
X154175200Y-71400800D02*
X154175200Y-69245800D01*
X154175200Y-75635800D02*
X154175200Y-73480800D01*
X154215200Y-71400800D02*
X154215200Y-69239800D01*
X154215200Y-75641800D02*
X154215200Y-73480800D01*
X154255200Y-71400800D02*
X154255200Y-69234800D01*
X154255200Y-75646800D02*
X154255200Y-73480800D01*
X154295200Y-71400800D02*
X154295200Y-69229800D01*
X154295200Y-75651800D02*
X154295200Y-73480800D01*
X154335200Y-71400800D02*
X154335200Y-69225800D01*
X154335200Y-75655800D02*
X154335200Y-73480800D01*
X154375200Y-71400800D02*
X154375200Y-69222800D01*
X154375200Y-75658800D02*
X154375200Y-73480800D01*
X154415200Y-71400800D02*
X154415200Y-69218800D01*
X154415200Y-75662800D02*
X154415200Y-73480800D01*
X154455200Y-75664800D02*
X154455200Y-69216800D01*
X154495200Y-75667800D02*
X154495200Y-69213800D01*
X154535200Y-75668800D02*
X154535200Y-69212800D01*
X154575200Y-75670800D02*
X154575200Y-69210800D01*
X154615200Y-75670800D02*
X154615200Y-69210800D01*
X154655200Y-75670800D02*
X154655200Y-69210800D01*
X157840441Y-74594800D02*
X157840441Y-73964800D01*
X158155441Y-74279800D02*
X157525441Y-74279800D01*
X157925200Y-72440800D02*
G75*
G02*
X151385200Y-72440800I-3270000J0D01*
G01*
X151385200Y-72440800D02*
G75*
G02*
X157925200Y-72440800I3270000J0D01*
G01*
%TO.C,C1*%
X165045000Y-125812000D02*
X171505000Y-125812000D01*
X165045000Y-125852000D02*
X171505000Y-125852000D01*
X165045000Y-125892000D02*
X171505000Y-125892000D01*
X165047000Y-125772000D02*
X171503000Y-125772000D01*
X165048000Y-125732000D02*
X171502000Y-125732000D01*
X165051000Y-125692000D02*
X171499000Y-125692000D01*
X165053000Y-125652000D02*
X167235000Y-125652000D01*
X165057000Y-125612000D02*
X167235000Y-125612000D01*
X165060000Y-125572000D02*
X167235000Y-125572000D01*
X165064000Y-125532000D02*
X167235000Y-125532000D01*
X165069000Y-125492000D02*
X167235000Y-125492000D01*
X165074000Y-125452000D02*
X167235000Y-125452000D01*
X165080000Y-125412000D02*
X167235000Y-125412000D01*
X165086000Y-125372000D02*
X167235000Y-125372000D01*
X165093000Y-125332000D02*
X167235000Y-125332000D01*
X165100000Y-125292000D02*
X167235000Y-125292000D01*
X165108000Y-125252000D02*
X167235000Y-125252000D01*
X165116000Y-125212000D02*
X167235000Y-125212000D01*
X165125000Y-125171000D02*
X167235000Y-125171000D01*
X165134000Y-125131000D02*
X167235000Y-125131000D01*
X165144000Y-125091000D02*
X167235000Y-125091000D01*
X165154000Y-125051000D02*
X167235000Y-125051000D01*
X165165000Y-125011000D02*
X167235000Y-125011000D01*
X165177000Y-124971000D02*
X167235000Y-124971000D01*
X165189000Y-124931000D02*
X167235000Y-124931000D01*
X165201000Y-124891000D02*
X167235000Y-124891000D01*
X165214000Y-124851000D02*
X167235000Y-124851000D01*
X165228000Y-124811000D02*
X167235000Y-124811000D01*
X165242000Y-124771000D02*
X167235000Y-124771000D01*
X165257000Y-124731000D02*
X167235000Y-124731000D01*
X165273000Y-124691000D02*
X167235000Y-124691000D01*
X165289000Y-124651000D02*
X167235000Y-124651000D01*
X165305000Y-124611000D02*
X167235000Y-124611000D01*
X165323000Y-124571000D02*
X167235000Y-124571000D01*
X165341000Y-124531000D02*
X167235000Y-124531000D01*
X165359000Y-124491000D02*
X167235000Y-124491000D01*
X165379000Y-124451000D02*
X167235000Y-124451000D01*
X165399000Y-124411000D02*
X167235000Y-124411000D01*
X165419000Y-124371000D02*
X167235000Y-124371000D01*
X165441000Y-124331000D02*
X167235000Y-124331000D01*
X165463000Y-124291000D02*
X167235000Y-124291000D01*
X165485000Y-124251000D02*
X167235000Y-124251000D01*
X165509000Y-124211000D02*
X167235000Y-124211000D01*
X165533000Y-124171000D02*
X167235000Y-124171000D01*
X165559000Y-124131000D02*
X167235000Y-124131000D01*
X165585000Y-124091000D02*
X167235000Y-124091000D01*
X165611000Y-124051000D02*
X167235000Y-124051000D01*
X165639000Y-124011000D02*
X167235000Y-124011000D01*
X165668000Y-123971000D02*
X167235000Y-123971000D01*
X165697000Y-123931000D02*
X167235000Y-123931000D01*
X165727000Y-123891000D02*
X167235000Y-123891000D01*
X165759000Y-123851000D02*
X167235000Y-123851000D01*
X165791000Y-123811000D02*
X167235000Y-123811000D01*
X165825000Y-123771000D02*
X167235000Y-123771000D01*
X165859000Y-123731000D02*
X167235000Y-123731000D01*
X165895000Y-123691000D02*
X167235000Y-123691000D01*
X165932000Y-123651000D02*
X167235000Y-123651000D01*
X165970000Y-123611000D02*
X167235000Y-123611000D01*
X166010000Y-123571000D02*
X170540000Y-123571000D01*
X166051000Y-123531000D02*
X170499000Y-123531000D01*
X166093000Y-123491000D02*
X170457000Y-123491000D01*
X166121000Y-129077241D02*
X166751000Y-129077241D01*
X166138000Y-123451000D02*
X170412000Y-123451000D01*
X166183000Y-123411000D02*
X170367000Y-123411000D01*
X166231000Y-123371000D02*
X170319000Y-123371000D01*
X166280000Y-123331000D02*
X170270000Y-123331000D01*
X166331000Y-123291000D02*
X170219000Y-123291000D01*
X166385000Y-123251000D02*
X170165000Y-123251000D01*
X166436000Y-129392241D02*
X166436000Y-128762241D01*
X166441000Y-123211000D02*
X170109000Y-123211000D01*
X166499000Y-123171000D02*
X170051000Y-123171000D01*
X166561000Y-123131000D02*
X169989000Y-123131000D01*
X166625000Y-123091000D02*
X169925000Y-123091000D01*
X166694000Y-123051000D02*
X169856000Y-123051000D01*
X166766000Y-123011000D02*
X169784000Y-123011000D01*
X166843000Y-122971000D02*
X169707000Y-122971000D01*
X166925000Y-122931000D02*
X169625000Y-122931000D01*
X167013000Y-122891000D02*
X169537000Y-122891000D01*
X167110000Y-122851000D02*
X169440000Y-122851000D01*
X167216000Y-122811000D02*
X169334000Y-122811000D01*
X167335000Y-122771000D02*
X169215000Y-122771000D01*
X167473000Y-122731000D02*
X169077000Y-122731000D01*
X167642000Y-122691000D02*
X168908000Y-122691000D01*
X167873000Y-122651000D02*
X168677000Y-122651000D01*
X169315000Y-123611000D02*
X170580000Y-123611000D01*
X169315000Y-123651000D02*
X170618000Y-123651000D01*
X169315000Y-123691000D02*
X170655000Y-123691000D01*
X169315000Y-123731000D02*
X170691000Y-123731000D01*
X169315000Y-123771000D02*
X170725000Y-123771000D01*
X169315000Y-123811000D02*
X170759000Y-123811000D01*
X169315000Y-123851000D02*
X170791000Y-123851000D01*
X169315000Y-123891000D02*
X170823000Y-123891000D01*
X169315000Y-123931000D02*
X170853000Y-123931000D01*
X169315000Y-123971000D02*
X170882000Y-123971000D01*
X169315000Y-124011000D02*
X170911000Y-124011000D01*
X169315000Y-124051000D02*
X170939000Y-124051000D01*
X169315000Y-124091000D02*
X170965000Y-124091000D01*
X169315000Y-124131000D02*
X170991000Y-124131000D01*
X169315000Y-124171000D02*
X171017000Y-124171000D01*
X169315000Y-124211000D02*
X171041000Y-124211000D01*
X169315000Y-124251000D02*
X171065000Y-124251000D01*
X169315000Y-124291000D02*
X171087000Y-124291000D01*
X169315000Y-124331000D02*
X171109000Y-124331000D01*
X169315000Y-124371000D02*
X171131000Y-124371000D01*
X169315000Y-124411000D02*
X171151000Y-124411000D01*
X169315000Y-124451000D02*
X171171000Y-124451000D01*
X169315000Y-124491000D02*
X171191000Y-124491000D01*
X169315000Y-124531000D02*
X171209000Y-124531000D01*
X169315000Y-124571000D02*
X171227000Y-124571000D01*
X169315000Y-124611000D02*
X171245000Y-124611000D01*
X169315000Y-124651000D02*
X171261000Y-124651000D01*
X169315000Y-124691000D02*
X171277000Y-124691000D01*
X169315000Y-124731000D02*
X171293000Y-124731000D01*
X169315000Y-124771000D02*
X171308000Y-124771000D01*
X169315000Y-124811000D02*
X171322000Y-124811000D01*
X169315000Y-124851000D02*
X171336000Y-124851000D01*
X169315000Y-124891000D02*
X171349000Y-124891000D01*
X169315000Y-124931000D02*
X171361000Y-124931000D01*
X169315000Y-124971000D02*
X171373000Y-124971000D01*
X169315000Y-125011000D02*
X171385000Y-125011000D01*
X169315000Y-125051000D02*
X171396000Y-125051000D01*
X169315000Y-125091000D02*
X171406000Y-125091000D01*
X169315000Y-125131000D02*
X171416000Y-125131000D01*
X169315000Y-125171000D02*
X171425000Y-125171000D01*
X169315000Y-125212000D02*
X171434000Y-125212000D01*
X169315000Y-125252000D02*
X171442000Y-125252000D01*
X169315000Y-125292000D02*
X171450000Y-125292000D01*
X169315000Y-125332000D02*
X171457000Y-125332000D01*
X169315000Y-125372000D02*
X171464000Y-125372000D01*
X169315000Y-125412000D02*
X171470000Y-125412000D01*
X169315000Y-125452000D02*
X171476000Y-125452000D01*
X169315000Y-125492000D02*
X171481000Y-125492000D01*
X169315000Y-125532000D02*
X171486000Y-125532000D01*
X169315000Y-125572000D02*
X171490000Y-125572000D01*
X169315000Y-125612000D02*
X171493000Y-125612000D01*
X169315000Y-125652000D02*
X171497000Y-125652000D01*
X171545000Y-125892000D02*
G75*
G02*
X165005000Y-125892000I-3270000J0D01*
G01*
X165005000Y-125892000D02*
G75*
G02*
X171545000Y-125892000I3270000J0D01*
G01*
%TO.C,R8*%
X161418600Y-78518000D02*
X161748600Y-78518000D01*
X161418600Y-85058000D02*
X161418600Y-78518000D01*
X161748600Y-85058000D02*
X161418600Y-85058000D01*
X163828600Y-85058000D02*
X164158600Y-85058000D01*
X164158600Y-78518000D02*
X163828600Y-78518000D01*
X164158600Y-85058000D02*
X164158600Y-78518000D01*
%TO.C,R1*%
X150776000Y-123603000D02*
X150776000Y-130143000D01*
X150776000Y-130143000D02*
X151106000Y-130143000D01*
X151106000Y-123603000D02*
X150776000Y-123603000D01*
X153186000Y-123603000D02*
X153516000Y-123603000D01*
X153516000Y-123603000D02*
X153516000Y-130143000D01*
X153516000Y-130143000D02*
X153186000Y-130143000D01*
%TO.C,IC4*%
X148022000Y-110653000D02*
X148022000Y-111903000D01*
X148022000Y-113903000D02*
X148022000Y-115153000D01*
X148022000Y-115153000D02*
X183702000Y-115153000D01*
X183702000Y-110653000D02*
X148022000Y-110653000D01*
X183702000Y-115153000D02*
X183702000Y-110653000D01*
X148022000Y-111903000D02*
G75*
G02*
X148022000Y-113903000I0J-1000000D01*
G01*
%TO.C,R16*%
X146564600Y-94261000D02*
X146564600Y-94591000D01*
X146564600Y-97001000D02*
X146564600Y-96671000D01*
X153104600Y-94261000D02*
X146564600Y-94261000D01*
X153104600Y-94591000D02*
X153104600Y-94261000D01*
X153104600Y-96671000D02*
X153104600Y-97001000D01*
X153104600Y-97001000D02*
X146564600Y-97001000D01*
%TO.C,C11*%
X158370600Y-69208400D02*
X158815600Y-69208400D01*
X158370600Y-75448400D02*
X158370600Y-69208400D01*
X158370600Y-75448400D02*
X158815600Y-75448400D01*
X160665600Y-69208400D02*
X161110600Y-69208400D01*
X160665600Y-75448400D02*
X161110600Y-75448400D01*
X161110600Y-75448400D02*
X161110600Y-69208400D01*
%TO.C,C7*%
X184558000Y-111279000D02*
X187298000Y-111279000D01*
X184558000Y-116519000D02*
X184558000Y-111279000D01*
X184558000Y-116519000D02*
X187298000Y-116519000D01*
X187298000Y-116519000D02*
X187298000Y-111279000D01*
%TO.C,J5*%
X179382000Y-86275400D02*
X179382000Y-106815400D01*
X179382000Y-87655400D02*
X180382000Y-87655400D01*
X179382000Y-87905400D02*
X180382000Y-87905400D01*
X179382000Y-105185400D02*
X180382000Y-105185400D01*
X179382000Y-105435400D02*
X180382000Y-105435400D01*
X179382000Y-106815400D02*
X185402000Y-106815400D01*
X180382000Y-87655400D02*
X180382000Y-92735400D01*
X180382000Y-87655400D02*
X180912000Y-87905400D01*
X180382000Y-92735400D02*
X179382000Y-92735400D01*
X180382000Y-100355400D02*
X179382000Y-100355400D01*
X180382000Y-105435400D02*
X180382000Y-100355400D01*
X180382000Y-105435400D02*
X180912000Y-105185400D01*
X180912000Y-87905400D02*
X180912000Y-92735400D01*
X180912000Y-92735400D02*
X180382000Y-92735400D01*
X180912000Y-100355400D02*
X180382000Y-100355400D01*
X180912000Y-105185400D02*
X180912000Y-100355400D01*
X184372000Y-85985400D02*
X180372000Y-85985400D01*
X184802000Y-86855400D02*
X184802000Y-88455400D01*
X184802000Y-88455400D02*
X185402000Y-88455400D01*
X184802000Y-89395400D02*
X184802000Y-90995400D01*
X184802000Y-90995400D02*
X185402000Y-90995400D01*
X184802000Y-91935400D02*
X184802000Y-93535400D01*
X184802000Y-93535400D02*
X185402000Y-93535400D01*
X184802000Y-94475400D02*
X184802000Y-96075400D01*
X184802000Y-96075400D02*
X185402000Y-96075400D01*
X184802000Y-97015400D02*
X184802000Y-98615400D01*
X184802000Y-98615400D02*
X185402000Y-98615400D01*
X184802000Y-99555400D02*
X184802000Y-101155400D01*
X184802000Y-101155400D02*
X185402000Y-101155400D01*
X184802000Y-102095400D02*
X184802000Y-103695400D01*
X184802000Y-103695400D02*
X185402000Y-103695400D01*
X184802000Y-104635400D02*
X184802000Y-106235400D01*
X184802000Y-106235400D02*
X185402000Y-106235400D01*
X185402000Y-86275400D02*
X179382000Y-86275400D01*
X185402000Y-86855400D02*
X184802000Y-86855400D01*
X185402000Y-89395400D02*
X184802000Y-89395400D01*
X185402000Y-91935400D02*
X184802000Y-91935400D01*
X185402000Y-94475400D02*
X184802000Y-94475400D01*
X185402000Y-97015400D02*
X184802000Y-97015400D01*
X185402000Y-99555400D02*
X184802000Y-99555400D01*
X185402000Y-102095400D02*
X184802000Y-102095400D01*
X185402000Y-104635400D02*
X184802000Y-104635400D01*
X185402000Y-106815400D02*
X185402000Y-86275400D01*
%TO.C,C9*%
X148022000Y-104294000D02*
X148022000Y-107034000D01*
X148022000Y-104294000D02*
X153262000Y-104294000D01*
X148022000Y-107034000D02*
X153262000Y-107034000D01*
X153262000Y-104294000D02*
X153262000Y-107034000D01*
%TO.C,C8*%
X165821000Y-104678000D02*
X165821000Y-104110000D01*
X165861000Y-104912000D02*
X165861000Y-103876000D01*
X165901000Y-105071000D02*
X165901000Y-103717000D01*
X165941000Y-105199000D02*
X165941000Y-103589000D01*
X165981000Y-105309000D02*
X165981000Y-103479000D01*
X166021000Y-105405000D02*
X166021000Y-103383000D01*
X166061000Y-105492000D02*
X166061000Y-103296000D01*
X166101000Y-105572000D02*
X166101000Y-103216000D01*
X166141000Y-103354000D02*
X166141000Y-103143000D01*
X166141000Y-105645000D02*
X166141000Y-105434000D01*
X166181000Y-103354000D02*
X166181000Y-103075000D01*
X166181000Y-105713000D02*
X166181000Y-105434000D01*
X166221000Y-103354000D02*
X166221000Y-103011000D01*
X166221000Y-105777000D02*
X166221000Y-105434000D01*
X166261000Y-103354000D02*
X166261000Y-102951000D01*
X166261000Y-105837000D02*
X166261000Y-105434000D01*
X166301000Y-103354000D02*
X166301000Y-102894000D01*
X166301000Y-105894000D02*
X166301000Y-105434000D01*
X166341000Y-103354000D02*
X166341000Y-102840000D01*
X166341000Y-105948000D02*
X166341000Y-105434000D01*
X166381000Y-103354000D02*
X166381000Y-102789000D01*
X166381000Y-105999000D02*
X166381000Y-105434000D01*
X166421000Y-103354000D02*
X166421000Y-102741000D01*
X166421000Y-106047000D02*
X166421000Y-105434000D01*
X166461000Y-103354000D02*
X166461000Y-102695000D01*
X166461000Y-106093000D02*
X166461000Y-105434000D01*
X166501000Y-103354000D02*
X166501000Y-102651000D01*
X166501000Y-106137000D02*
X166501000Y-105434000D01*
X166541000Y-103354000D02*
X166541000Y-102609000D01*
X166541000Y-106179000D02*
X166541000Y-105434000D01*
X166581000Y-103354000D02*
X166581000Y-102568000D01*
X166581000Y-106220000D02*
X166581000Y-105434000D01*
X166621000Y-103354000D02*
X166621000Y-102530000D01*
X166621000Y-106258000D02*
X166621000Y-105434000D01*
X166661000Y-103354000D02*
X166661000Y-102493000D01*
X166661000Y-106295000D02*
X166661000Y-105434000D01*
X166701000Y-103354000D02*
X166701000Y-102457000D01*
X166701000Y-106331000D02*
X166701000Y-105434000D01*
X166741000Y-103354000D02*
X166741000Y-102423000D01*
X166741000Y-106365000D02*
X166741000Y-105434000D01*
X166781000Y-103354000D02*
X166781000Y-102390000D01*
X166781000Y-106398000D02*
X166781000Y-105434000D01*
X166821000Y-103354000D02*
X166821000Y-102359000D01*
X166821000Y-106429000D02*
X166821000Y-105434000D01*
X166861000Y-103354000D02*
X166861000Y-102329000D01*
X166861000Y-106459000D02*
X166861000Y-105434000D01*
X166901000Y-103354000D02*
X166901000Y-102299000D01*
X166901000Y-106489000D02*
X166901000Y-105434000D01*
X166941000Y-103354000D02*
X166941000Y-102272000D01*
X166941000Y-106516000D02*
X166941000Y-105434000D01*
X166981000Y-103354000D02*
X166981000Y-102245000D01*
X166981000Y-106543000D02*
X166981000Y-105434000D01*
X167021000Y-103354000D02*
X167021000Y-102219000D01*
X167021000Y-106569000D02*
X167021000Y-105434000D01*
X167061000Y-103354000D02*
X167061000Y-102194000D01*
X167061000Y-106594000D02*
X167061000Y-105434000D01*
X167101000Y-103354000D02*
X167101000Y-102170000D01*
X167101000Y-106618000D02*
X167101000Y-105434000D01*
X167141000Y-103354000D02*
X167141000Y-102147000D01*
X167141000Y-106641000D02*
X167141000Y-105434000D01*
X167181000Y-103354000D02*
X167181000Y-102126000D01*
X167181000Y-106662000D02*
X167181000Y-105434000D01*
X167221000Y-103354000D02*
X167221000Y-102104000D01*
X167221000Y-106684000D02*
X167221000Y-105434000D01*
X167261000Y-103354000D02*
X167261000Y-102084000D01*
X167261000Y-106704000D02*
X167261000Y-105434000D01*
X167301000Y-103354000D02*
X167301000Y-102065000D01*
X167301000Y-106723000D02*
X167301000Y-105434000D01*
X167341000Y-103354000D02*
X167341000Y-102046000D01*
X167341000Y-106742000D02*
X167341000Y-105434000D01*
X167381000Y-103354000D02*
X167381000Y-102029000D01*
X167381000Y-106759000D02*
X167381000Y-105434000D01*
X167421000Y-103354000D02*
X167421000Y-102012000D01*
X167421000Y-106776000D02*
X167421000Y-105434000D01*
X167461000Y-103354000D02*
X167461000Y-101996000D01*
X167461000Y-106792000D02*
X167461000Y-105434000D01*
X167501000Y-103354000D02*
X167501000Y-101980000D01*
X167501000Y-106808000D02*
X167501000Y-105434000D01*
X167541000Y-103354000D02*
X167541000Y-101966000D01*
X167541000Y-106822000D02*
X167541000Y-105434000D01*
X167581000Y-103354000D02*
X167581000Y-101952000D01*
X167581000Y-106836000D02*
X167581000Y-105434000D01*
X167621000Y-103354000D02*
X167621000Y-101939000D01*
X167621000Y-106849000D02*
X167621000Y-105434000D01*
X167661000Y-103354000D02*
X167661000Y-101926000D01*
X167661000Y-106862000D02*
X167661000Y-105434000D01*
X167701000Y-103354000D02*
X167701000Y-101914000D01*
X167701000Y-106874000D02*
X167701000Y-105434000D01*
X167742000Y-103354000D02*
X167742000Y-101903000D01*
X167742000Y-106885000D02*
X167742000Y-105434000D01*
X167782000Y-103354000D02*
X167782000Y-101893000D01*
X167782000Y-106895000D02*
X167782000Y-105434000D01*
X167822000Y-103354000D02*
X167822000Y-101883000D01*
X167822000Y-106905000D02*
X167822000Y-105434000D01*
X167862000Y-103354000D02*
X167862000Y-101874000D01*
X167862000Y-106914000D02*
X167862000Y-105434000D01*
X167902000Y-103354000D02*
X167902000Y-101866000D01*
X167902000Y-106922000D02*
X167902000Y-105434000D01*
X167942000Y-103354000D02*
X167942000Y-101858000D01*
X167942000Y-106930000D02*
X167942000Y-105434000D01*
X167982000Y-103354000D02*
X167982000Y-101851000D01*
X167982000Y-106937000D02*
X167982000Y-105434000D01*
X168022000Y-103354000D02*
X168022000Y-101844000D01*
X168022000Y-106944000D02*
X168022000Y-105434000D01*
X168062000Y-103354000D02*
X168062000Y-101838000D01*
X168062000Y-106950000D02*
X168062000Y-105434000D01*
X168102000Y-103354000D02*
X168102000Y-101833000D01*
X168102000Y-106955000D02*
X168102000Y-105434000D01*
X168142000Y-103354000D02*
X168142000Y-101829000D01*
X168142000Y-106959000D02*
X168142000Y-105434000D01*
X168182000Y-103354000D02*
X168182000Y-101825000D01*
X168182000Y-106963000D02*
X168182000Y-105434000D01*
X168222000Y-106967000D02*
X168222000Y-101821000D01*
X168262000Y-106970000D02*
X168262000Y-101818000D01*
X168302000Y-106972000D02*
X168302000Y-101816000D01*
X168342000Y-106973000D02*
X168342000Y-101815000D01*
X168382000Y-106974000D02*
X168382000Y-101814000D01*
X168422000Y-106974000D02*
X168422000Y-101814000D01*
X170976775Y-106119000D02*
X170976775Y-105619000D01*
X171226775Y-105869000D02*
X170726775Y-105869000D01*
X171042000Y-104394000D02*
G75*
G02*
X165802000Y-104394000I-2620000J0D01*
G01*
X165802000Y-104394000D02*
G75*
G02*
X171042000Y-104394000I2620000J0D01*
G01*
%TO.C,L1*%
X170585000Y-78028000D02*
X170585000Y-80468000D01*
X170585000Y-80468000D02*
X176125000Y-80468000D01*
X176125000Y-78028000D02*
X170585000Y-78028000D01*
X176125000Y-80468000D02*
X176125000Y-78028000D01*
%TO.C,J4*%
X137686000Y-104284000D02*
X137686000Y-119744000D01*
X137686000Y-106464000D02*
X138286000Y-106464000D01*
X137686000Y-109004000D02*
X138286000Y-109004000D01*
X137686000Y-111544000D02*
X138286000Y-111544000D01*
X137686000Y-114084000D02*
X138286000Y-114084000D01*
X137686000Y-116624000D02*
X138286000Y-116624000D01*
X137686000Y-119164000D02*
X138286000Y-119164000D01*
X137686000Y-119744000D02*
X143706000Y-119744000D01*
X138286000Y-104864000D02*
X137686000Y-104864000D01*
X138286000Y-106464000D02*
X138286000Y-104864000D01*
X138286000Y-107404000D02*
X137686000Y-107404000D01*
X138286000Y-109004000D02*
X138286000Y-107404000D01*
X138286000Y-109944000D02*
X137686000Y-109944000D01*
X138286000Y-111544000D02*
X138286000Y-109944000D01*
X138286000Y-112484000D02*
X137686000Y-112484000D01*
X138286000Y-114084000D02*
X138286000Y-112484000D01*
X138286000Y-115024000D02*
X137686000Y-115024000D01*
X138286000Y-116624000D02*
X138286000Y-115024000D01*
X138286000Y-117564000D02*
X137686000Y-117564000D01*
X138286000Y-119164000D02*
X138286000Y-117564000D01*
X138716000Y-120034000D02*
X142716000Y-120034000D01*
X142176000Y-105914000D02*
X142706000Y-105664000D01*
X142176000Y-118114000D02*
X142176000Y-105914000D01*
X142706000Y-105664000D02*
X143706000Y-105664000D01*
X142706000Y-118364000D02*
X142176000Y-118114000D01*
X142706000Y-118364000D02*
X142706000Y-105664000D01*
X143706000Y-104284000D02*
X137686000Y-104284000D01*
X143706000Y-105914000D02*
X142706000Y-105914000D01*
X143706000Y-118114000D02*
X142706000Y-118114000D01*
X143706000Y-118364000D02*
X142706000Y-118364000D01*
X143706000Y-119744000D02*
X143706000Y-104284000D01*
%TO.C,R15*%
X146564600Y-97486800D02*
X153104600Y-97486800D01*
X146564600Y-97816800D02*
X146564600Y-97486800D01*
X146564600Y-99896800D02*
X146564600Y-100226800D01*
X146564600Y-100226800D02*
X153104600Y-100226800D01*
X153104600Y-97486800D02*
X153104600Y-97816800D01*
X153104600Y-100226800D02*
X153104600Y-99896800D01*
%TO.C,R2*%
X147637200Y-123603000D02*
X147967200Y-123603000D01*
X147637200Y-130143000D02*
X147637200Y-123603000D01*
X147967200Y-130143000D02*
X147637200Y-130143000D01*
X150047200Y-130143000D02*
X150377200Y-130143000D01*
X150377200Y-123603000D02*
X150047200Y-123603000D01*
X150377200Y-130143000D02*
X150377200Y-123603000D01*
%TO.C,IC1*%
X154052600Y-124587200D02*
X154052600Y-129087200D01*
X154052600Y-129087200D02*
X164332600Y-129087200D01*
X164332600Y-124587200D02*
X154052600Y-124587200D01*
X164332600Y-125837200D02*
X164332600Y-124587200D01*
X164332600Y-129087200D02*
X164332600Y-127837200D01*
X164332600Y-127837200D02*
G75*
G02*
X164332600Y-125837200I0J1000000D01*
G01*
%TO.C,C5*%
X180748000Y-79656000D02*
X183488000Y-79656000D01*
X180748000Y-84896000D02*
X180748000Y-79656000D01*
X180748000Y-84896000D02*
X183488000Y-84896000D01*
X183488000Y-84896000D02*
X183488000Y-79656000D01*
%TO.C,IC2*%
X175365000Y-85416000D02*
X178965000Y-85416000D01*
X175326522Y-85404478D02*
G75*
G02*
X177165000Y-80966000I1838478J1838478D01*
G01*
X177165000Y-80966000D02*
G75*
G02*
X179003478Y-85404478I0J-2600000D01*
G01*
%TD*%
%LPC*%
D13*
%TO.C,IC5*%
X148285200Y-77952600D03*
D14*
X148285200Y-80492600D03*
X148285200Y-83032600D03*
X148285200Y-85572600D03*
X155905200Y-85572600D03*
X155905200Y-83032600D03*
X155905200Y-80492600D03*
X155905200Y-77952600D03*
%TD*%
D15*
%TO.C,C2*%
X139867000Y-123063000D03*
X142367000Y-123063000D03*
%TD*%
D16*
%TO.C,J6*%
X165354000Y-72466200D03*
D17*
X167894000Y-72466200D03*
X170434000Y-72466200D03*
%TD*%
D15*
%TO.C,C6*%
X166751000Y-80010000D03*
X166751000Y-77510000D03*
%TD*%
%TO.C,R11*%
X155956000Y-92456000D03*
D18*
X163576000Y-92456000D03*
%TD*%
D15*
%TO.C,R12*%
X153644600Y-92456000D03*
D18*
X146024600Y-92456000D03*
%TD*%
D15*
%TO.C,R10*%
X153619200Y-102108000D03*
D18*
X145999200Y-102108000D03*
%TD*%
D15*
%TO.C,R7*%
X163576000Y-89154000D03*
D18*
X155956000Y-89154000D03*
%TD*%
D15*
%TO.C,C12*%
X148310600Y-74980800D03*
X148310600Y-69980800D03*
%TD*%
D19*
%TO.C,J3*%
X182372000Y-121158000D03*
D20*
X182372000Y-123698000D03*
X182372000Y-126238000D03*
X182372000Y-128778000D03*
%TD*%
D21*
%TO.C,IC3*%
X167132000Y-85725000D03*
D22*
X167132000Y-84455000D03*
X167132000Y-83185000D03*
%TD*%
D23*
%TO.C,J1*%
X140843000Y-129428000D03*
D20*
X140843000Y-126888000D03*
%TD*%
D24*
%TO.C,H3*%
X189103000Y-134239000D03*
%TD*%
D15*
%TO.C,R6*%
X174752000Y-100584000D03*
D18*
X174752000Y-92964000D03*
%TD*%
D15*
%TO.C,R3*%
X145857600Y-123063000D03*
D18*
X145857600Y-130683000D03*
%TD*%
D15*
%TO.C,R13*%
X159740600Y-77978000D03*
D18*
X159740600Y-85598000D03*
%TD*%
D25*
%TO.C,C13*%
X157734000Y-95798000D03*
D15*
X157734000Y-98298000D03*
%TD*%
%TO.C,C4*%
X170815000Y-84455000D03*
X170815000Y-86955000D03*
%TD*%
%TO.C,R5*%
X171069000Y-100584000D03*
D18*
X171069000Y-92964000D03*
%TD*%
D15*
%TO.C,C3*%
X177165000Y-76200000D03*
X177165000Y-73700000D03*
%TD*%
%TO.C,R4*%
X146050000Y-109093000D03*
D18*
X146050000Y-116713000D03*
%TD*%
D15*
%TO.C,R14*%
X143230600Y-85598000D03*
D18*
X143230600Y-77978000D03*
%TD*%
D19*
%TO.C,J2*%
X182372000Y-73660000D03*
D20*
X182372000Y-76200000D03*
%TD*%
D15*
%TO.C,R9*%
X153644600Y-89154000D03*
D18*
X146024600Y-89154000D03*
%TD*%
D25*
%TO.C,C10*%
X155905200Y-72440800D03*
D15*
X153405200Y-72440800D03*
%TD*%
D25*
%TO.C,C1*%
X168275000Y-127142000D03*
D15*
X168275000Y-124642000D03*
%TD*%
D24*
%TO.C,H1*%
X135128000Y-68072000D03*
%TD*%
D15*
%TO.C,R8*%
X162788600Y-85598000D03*
D18*
X162788600Y-77978000D03*
%TD*%
D15*
%TO.C,R1*%
X152146000Y-123063000D03*
D18*
X152146000Y-130683000D03*
%TD*%
D26*
%TO.C,IC4*%
X149352000Y-116713000D03*
D27*
X151892000Y-116713000D03*
X154432000Y-116713000D03*
X156972000Y-116713000D03*
X159512000Y-116713000D03*
X162052000Y-116713000D03*
X164592000Y-116713000D03*
X167132000Y-116713000D03*
X169672000Y-116713000D03*
X172212000Y-116713000D03*
X174752000Y-116713000D03*
X177292000Y-116713000D03*
X179832000Y-116713000D03*
X182372000Y-116713000D03*
X182372000Y-109093000D03*
X179832000Y-109093000D03*
X177292000Y-109093000D03*
X174752000Y-109093000D03*
X172212000Y-109093000D03*
X169672000Y-109093000D03*
X167132000Y-109093000D03*
X164592000Y-109093000D03*
X162052000Y-109093000D03*
X159512000Y-109093000D03*
X156972000Y-109093000D03*
X154432000Y-109093000D03*
X151892000Y-109093000D03*
X149352000Y-109093000D03*
%TD*%
D15*
%TO.C,R16*%
X153644600Y-95631000D03*
D18*
X146024600Y-95631000D03*
%TD*%
D15*
%TO.C,C11*%
X159740600Y-74828400D03*
X159740600Y-69828400D03*
%TD*%
%TO.C,C7*%
X185928000Y-115149000D03*
X185928000Y-112649000D03*
%TD*%
D24*
%TO.C,H4*%
X189103000Y-68072000D03*
%TD*%
%TO.C,H2*%
X135128000Y-134366000D03*
%TD*%
D19*
%TO.C,J5*%
X182372000Y-87655400D03*
D20*
X182372000Y-90195400D03*
X182372000Y-92735400D03*
X182372000Y-95275400D03*
X182372000Y-97815400D03*
X182372000Y-100355400D03*
X182372000Y-102895400D03*
X182372000Y-105435400D03*
%TD*%
D15*
%TO.C,C9*%
X149392000Y-105664000D03*
X151892000Y-105664000D03*
%TD*%
D25*
%TO.C,C8*%
X169672000Y-104394000D03*
D15*
X167172000Y-104394000D03*
%TD*%
%TO.C,L1*%
X177165000Y-79248000D03*
D18*
X169545000Y-79248000D03*
%TD*%
D23*
%TO.C,J4*%
X140716000Y-118364000D03*
D20*
X140716000Y-115824000D03*
X140716000Y-113284000D03*
X140716000Y-110744000D03*
X140716000Y-108204000D03*
X140716000Y-105664000D03*
%TD*%
D15*
%TO.C,R15*%
X146024600Y-98856800D03*
D18*
X153644600Y-98856800D03*
%TD*%
D15*
%TO.C,R2*%
X149007200Y-130683000D03*
D18*
X149007200Y-123063000D03*
%TD*%
D26*
%TO.C,IC1*%
X163002600Y-123027200D03*
D27*
X160462600Y-123027200D03*
X157922600Y-123027200D03*
X155382600Y-123027200D03*
X155382600Y-130647200D03*
X157922600Y-130647200D03*
X160462600Y-130647200D03*
X163002600Y-130647200D03*
%TD*%
D15*
%TO.C,C5*%
X182118000Y-83526000D03*
X182118000Y-81026000D03*
%TD*%
D28*
%TO.C,IC2*%
X175895000Y-83566000D03*
D29*
X177165000Y-83566000D03*
X178435000Y-83566000D03*
%TD*%
%LPD*%
M02*
