M48
; DRILL file {KiCad 8.0.1} date 2024-06-15T11:10:31+0100
; FORMAT={-:-/ absolute / metric / decimal}
; #@! TF.CreationDate,2024-06-15T11:10:31+01:00
; #@! TF.GenerationSoftware,Kicad,Pcbnew,8.0.1
; #@! TF.FileFunction,Plated,1,2,PTH
FMAT,2
METRIC
; #@! TA.AperFunction,Plated,PTH,ComponentDrill
T1C0.750
; #@! TA.AperFunction,Plated,PTH,ComponentDrill
T2C0.800
; #@! TA.AperFunction,Plated,PTH,ComponentDrill
T3C1.190
%
G90
G05
T1
X167.132Y-83.185
X167.132Y-84.455
X167.132Y-85.725
X175.895Y-83.566
X177.165Y-83.566
X178.435Y-83.566
T2
X139.867Y-123.063
X142.367Y-123.063
X143.231Y-77.978
X143.231Y-85.598
X145.858Y-123.063
X145.858Y-130.683
X145.999Y-102.108
X146.025Y-89.154
X146.025Y-92.456
X146.025Y-95.631
X146.025Y-98.857
X146.05Y-109.093
X146.05Y-116.713
X148.285Y-77.953
X148.285Y-80.493
X148.285Y-83.033
X148.285Y-85.573
X148.311Y-69.981
X148.311Y-74.981
X149.007Y-123.063
X149.007Y-130.683
X149.352Y-109.093
X149.352Y-116.713
X149.392Y-105.664
X151.892Y-105.664
X151.892Y-109.093
X151.892Y-116.713
X152.146Y-123.063
X152.146Y-130.683
X153.405Y-72.441
X153.619Y-102.108
X153.645Y-89.154
X153.645Y-92.456
X153.645Y-95.631
X153.645Y-98.857
X154.432Y-109.093
X154.432Y-116.713
X155.383Y-123.027
X155.383Y-130.647
X155.905Y-72.441
X155.905Y-77.953
X155.905Y-80.493
X155.905Y-83.033
X155.905Y-85.573
X155.956Y-89.154
X155.956Y-92.456
X156.972Y-109.093
X156.972Y-116.713
X157.734Y-95.798
X157.734Y-98.298
X157.923Y-123.027
X157.923Y-130.647
X159.512Y-109.093
X159.512Y-116.713
X159.741Y-69.828
X159.741Y-74.828
X159.741Y-77.978
X159.741Y-85.598
X160.463Y-123.027
X160.463Y-130.647
X162.052Y-109.093
X162.052Y-116.713
X162.789Y-77.978
X162.789Y-85.598
X163.003Y-123.027
X163.003Y-130.647
X163.576Y-89.154
X163.576Y-92.456
X164.592Y-109.093
X164.592Y-116.713
X166.751Y-77.51
X166.751Y-80.01
X167.132Y-109.093
X167.132Y-116.713
X167.172Y-104.394
X168.275Y-124.642
X168.275Y-127.142
X169.545Y-79.248
X169.672Y-104.394
X169.672Y-109.093
X169.672Y-116.713
X170.815Y-84.455
X170.815Y-86.955
X171.069Y-92.964
X171.069Y-100.584
X172.212Y-109.093
X172.212Y-116.713
X174.752Y-92.964
X174.752Y-100.584
X174.752Y-109.093
X174.752Y-116.713
X177.165Y-73.7
X177.165Y-76.2
X177.165Y-79.248
X177.292Y-109.093
X177.292Y-116.713
X179.832Y-109.093
X179.832Y-116.713
X182.118Y-81.026
X182.118Y-83.526
X182.372Y-109.093
X182.372Y-116.713
X185.928Y-112.649
X185.928Y-115.149
T3
X140.716Y-105.664
X140.716Y-108.204
X140.716Y-110.744
X140.716Y-113.284
X140.716Y-115.824
X140.716Y-118.364
X140.843Y-126.888
X140.843Y-129.428
X165.354Y-72.466
X167.894Y-72.466
X170.434Y-72.466
X182.372Y-73.66
X182.372Y-76.2
X182.372Y-87.655
X182.372Y-90.195
X182.372Y-92.735
X182.372Y-95.275
X182.372Y-97.815
X182.372Y-100.355
X182.372Y-102.895
X182.372Y-105.435
X182.372Y-121.158
X182.372Y-123.698
X182.372Y-126.238
X182.372Y-128.778
M30
