%TF.GenerationSoftware,KiCad,Pcbnew,8.0.1*%
%TF.CreationDate,2024-06-15T11:11:00+01:00*%
%TF.ProjectId,MiniFilter3.2,4d696e69-4669-46c7-9465-72332e322e6b,rev?*%
%TF.SameCoordinates,Original*%
%TF.FileFunction,Drillmap*%
%TF.FilePolarity,Positive*%
%FSLAX45Y45*%
G04 Gerber Fmt 4.5, Leading zero omitted, Abs format (unit mm)*
G04 Created by KiCad (PCBNEW 8.0.1) date 2024-06-15 11:11:00*
%MOMM*%
%LPD*%
G01*
G04 APERTURE LIST*
%ADD10C,0.100000*%
%ADD11C,0.200000*%
%ADD12C,0.119000*%
G04 APERTURE END LIST*
D10*
X13157200Y-6464300D02*
X19265900Y-6464300D01*
X19265900Y-13766800D01*
X13157200Y-13766800D01*
X13157200Y-6464300D01*
D11*
D10*
X16675700Y-8281000D02*
X16750700Y-8356000D01*
X16750700Y-8281000D02*
X16675700Y-8356000D01*
X16675700Y-8408000D02*
X16750700Y-8483000D01*
X16750700Y-8408000D02*
X16675700Y-8483000D01*
X16675700Y-8535000D02*
X16750700Y-8610000D01*
X16750700Y-8535000D02*
X16675700Y-8610000D01*
X17552000Y-8319100D02*
X17627000Y-8394100D01*
X17627000Y-8319100D02*
X17552000Y-8394100D01*
X17679000Y-8319100D02*
X17754000Y-8394100D01*
X17754000Y-8319100D02*
X17679000Y-8394100D01*
X17806000Y-8319100D02*
X17881000Y-8394100D01*
X17881000Y-8319100D02*
X17806000Y-8394100D01*
X14026700Y-12306300D02*
G75*
G02*
X13946700Y-12306300I-40000J0D01*
G01*
X13946700Y-12306300D02*
G75*
G02*
X14026700Y-12306300I40000J0D01*
G01*
X14276700Y-12306300D02*
G75*
G02*
X14196700Y-12306300I-40000J0D01*
G01*
X14196700Y-12306300D02*
G75*
G02*
X14276700Y-12306300I40000J0D01*
G01*
X14363060Y-7797800D02*
G75*
G02*
X14283060Y-7797800I-40000J0D01*
G01*
X14283060Y-7797800D02*
G75*
G02*
X14363060Y-7797800I40000J0D01*
G01*
X14363060Y-8559800D02*
G75*
G02*
X14283060Y-8559800I-40000J0D01*
G01*
X14283060Y-8559800D02*
G75*
G02*
X14363060Y-8559800I40000J0D01*
G01*
X14625760Y-12306300D02*
G75*
G02*
X14545760Y-12306300I-40000J0D01*
G01*
X14545760Y-12306300D02*
G75*
G02*
X14625760Y-12306300I40000J0D01*
G01*
X14625760Y-13068300D02*
G75*
G02*
X14545760Y-13068300I-40000J0D01*
G01*
X14545760Y-13068300D02*
G75*
G02*
X14625760Y-13068300I40000J0D01*
G01*
X14639920Y-10210800D02*
G75*
G02*
X14559920Y-10210800I-40000J0D01*
G01*
X14559920Y-10210800D02*
G75*
G02*
X14639920Y-10210800I40000J0D01*
G01*
X14642460Y-8915400D02*
G75*
G02*
X14562460Y-8915400I-40000J0D01*
G01*
X14562460Y-8915400D02*
G75*
G02*
X14642460Y-8915400I40000J0D01*
G01*
X14642460Y-9245600D02*
G75*
G02*
X14562460Y-9245600I-40000J0D01*
G01*
X14562460Y-9245600D02*
G75*
G02*
X14642460Y-9245600I40000J0D01*
G01*
X14642460Y-9563100D02*
G75*
G02*
X14562460Y-9563100I-40000J0D01*
G01*
X14562460Y-9563100D02*
G75*
G02*
X14642460Y-9563100I40000J0D01*
G01*
X14642460Y-9885680D02*
G75*
G02*
X14562460Y-9885680I-40000J0D01*
G01*
X14562460Y-9885680D02*
G75*
G02*
X14642460Y-9885680I40000J0D01*
G01*
X14645000Y-10909300D02*
G75*
G02*
X14565000Y-10909300I-40000J0D01*
G01*
X14565000Y-10909300D02*
G75*
G02*
X14645000Y-10909300I40000J0D01*
G01*
X14645000Y-11671300D02*
G75*
G02*
X14565000Y-11671300I-40000J0D01*
G01*
X14565000Y-11671300D02*
G75*
G02*
X14645000Y-11671300I40000J0D01*
G01*
X14868520Y-7795260D02*
G75*
G02*
X14788520Y-7795260I-40000J0D01*
G01*
X14788520Y-7795260D02*
G75*
G02*
X14868520Y-7795260I40000J0D01*
G01*
X14868520Y-8049260D02*
G75*
G02*
X14788520Y-8049260I-40000J0D01*
G01*
X14788520Y-8049260D02*
G75*
G02*
X14868520Y-8049260I40000J0D01*
G01*
X14868520Y-8303260D02*
G75*
G02*
X14788520Y-8303260I-40000J0D01*
G01*
X14788520Y-8303260D02*
G75*
G02*
X14868520Y-8303260I40000J0D01*
G01*
X14868520Y-8557260D02*
G75*
G02*
X14788520Y-8557260I-40000J0D01*
G01*
X14788520Y-8557260D02*
G75*
G02*
X14868520Y-8557260I40000J0D01*
G01*
X14871060Y-6998080D02*
G75*
G02*
X14791060Y-6998080I-40000J0D01*
G01*
X14791060Y-6998080D02*
G75*
G02*
X14871060Y-6998080I40000J0D01*
G01*
X14871060Y-7498080D02*
G75*
G02*
X14791060Y-7498080I-40000J0D01*
G01*
X14791060Y-7498080D02*
G75*
G02*
X14871060Y-7498080I40000J0D01*
G01*
X14940720Y-12306300D02*
G75*
G02*
X14860720Y-12306300I-40000J0D01*
G01*
X14860720Y-12306300D02*
G75*
G02*
X14940720Y-12306300I40000J0D01*
G01*
X14940720Y-13068300D02*
G75*
G02*
X14860720Y-13068300I-40000J0D01*
G01*
X14860720Y-13068300D02*
G75*
G02*
X14940720Y-13068300I40000J0D01*
G01*
X14975200Y-10909300D02*
G75*
G02*
X14895200Y-10909300I-40000J0D01*
G01*
X14895200Y-10909300D02*
G75*
G02*
X14975200Y-10909300I40000J0D01*
G01*
X14975200Y-11671300D02*
G75*
G02*
X14895200Y-11671300I-40000J0D01*
G01*
X14895200Y-11671300D02*
G75*
G02*
X14975200Y-11671300I40000J0D01*
G01*
X14979200Y-10566400D02*
G75*
G02*
X14899200Y-10566400I-40000J0D01*
G01*
X14899200Y-10566400D02*
G75*
G02*
X14979200Y-10566400I40000J0D01*
G01*
X15229200Y-10566400D02*
G75*
G02*
X15149200Y-10566400I-40000J0D01*
G01*
X15149200Y-10566400D02*
G75*
G02*
X15229200Y-10566400I40000J0D01*
G01*
X15229200Y-10909300D02*
G75*
G02*
X15149200Y-10909300I-40000J0D01*
G01*
X15149200Y-10909300D02*
G75*
G02*
X15229200Y-10909300I40000J0D01*
G01*
X15229200Y-11671300D02*
G75*
G02*
X15149200Y-11671300I-40000J0D01*
G01*
X15149200Y-11671300D02*
G75*
G02*
X15229200Y-11671300I40000J0D01*
G01*
X15254600Y-12306300D02*
G75*
G02*
X15174600Y-12306300I-40000J0D01*
G01*
X15174600Y-12306300D02*
G75*
G02*
X15254600Y-12306300I40000J0D01*
G01*
X15254600Y-13068300D02*
G75*
G02*
X15174600Y-13068300I-40000J0D01*
G01*
X15174600Y-13068300D02*
G75*
G02*
X15254600Y-13068300I40000J0D01*
G01*
X15380520Y-7244080D02*
G75*
G02*
X15300520Y-7244080I-40000J0D01*
G01*
X15300520Y-7244080D02*
G75*
G02*
X15380520Y-7244080I40000J0D01*
G01*
X15401920Y-10210800D02*
G75*
G02*
X15321920Y-10210800I-40000J0D01*
G01*
X15321920Y-10210800D02*
G75*
G02*
X15401920Y-10210800I40000J0D01*
G01*
X15404460Y-8915400D02*
G75*
G02*
X15324460Y-8915400I-40000J0D01*
G01*
X15324460Y-8915400D02*
G75*
G02*
X15404460Y-8915400I40000J0D01*
G01*
X15404460Y-9245600D02*
G75*
G02*
X15324460Y-9245600I-40000J0D01*
G01*
X15324460Y-9245600D02*
G75*
G02*
X15404460Y-9245600I40000J0D01*
G01*
X15404460Y-9563100D02*
G75*
G02*
X15324460Y-9563100I-40000J0D01*
G01*
X15324460Y-9563100D02*
G75*
G02*
X15404460Y-9563100I40000J0D01*
G01*
X15404460Y-9885680D02*
G75*
G02*
X15324460Y-9885680I-40000J0D01*
G01*
X15324460Y-9885680D02*
G75*
G02*
X15404460Y-9885680I40000J0D01*
G01*
X15483200Y-10909300D02*
G75*
G02*
X15403200Y-10909300I-40000J0D01*
G01*
X15403200Y-10909300D02*
G75*
G02*
X15483200Y-10909300I40000J0D01*
G01*
X15483200Y-11671300D02*
G75*
G02*
X15403200Y-11671300I-40000J0D01*
G01*
X15403200Y-11671300D02*
G75*
G02*
X15483200Y-11671300I40000J0D01*
G01*
X15578260Y-12302720D02*
G75*
G02*
X15498260Y-12302720I-40000J0D01*
G01*
X15498260Y-12302720D02*
G75*
G02*
X15578260Y-12302720I40000J0D01*
G01*
X15578260Y-13064720D02*
G75*
G02*
X15498260Y-13064720I-40000J0D01*
G01*
X15498260Y-13064720D02*
G75*
G02*
X15578260Y-13064720I40000J0D01*
G01*
X15630520Y-7244080D02*
G75*
G02*
X15550520Y-7244080I-40000J0D01*
G01*
X15550520Y-7244080D02*
G75*
G02*
X15630520Y-7244080I40000J0D01*
G01*
X15630520Y-7795260D02*
G75*
G02*
X15550520Y-7795260I-40000J0D01*
G01*
X15550520Y-7795260D02*
G75*
G02*
X15630520Y-7795260I40000J0D01*
G01*
X15630520Y-8049260D02*
G75*
G02*
X15550520Y-8049260I-40000J0D01*
G01*
X15550520Y-8049260D02*
G75*
G02*
X15630520Y-8049260I40000J0D01*
G01*
X15630520Y-8303260D02*
G75*
G02*
X15550520Y-8303260I-40000J0D01*
G01*
X15550520Y-8303260D02*
G75*
G02*
X15630520Y-8303260I40000J0D01*
G01*
X15630520Y-8557260D02*
G75*
G02*
X15550520Y-8557260I-40000J0D01*
G01*
X15550520Y-8557260D02*
G75*
G02*
X15630520Y-8557260I40000J0D01*
G01*
X15635600Y-8915400D02*
G75*
G02*
X15555600Y-8915400I-40000J0D01*
G01*
X15555600Y-8915400D02*
G75*
G02*
X15635600Y-8915400I40000J0D01*
G01*
X15635600Y-9245600D02*
G75*
G02*
X15555600Y-9245600I-40000J0D01*
G01*
X15555600Y-9245600D02*
G75*
G02*
X15635600Y-9245600I40000J0D01*
G01*
X15737200Y-10909300D02*
G75*
G02*
X15657200Y-10909300I-40000J0D01*
G01*
X15657200Y-10909300D02*
G75*
G02*
X15737200Y-10909300I40000J0D01*
G01*
X15737200Y-11671300D02*
G75*
G02*
X15657200Y-11671300I-40000J0D01*
G01*
X15657200Y-11671300D02*
G75*
G02*
X15737200Y-11671300I40000J0D01*
G01*
X15813400Y-9579800D02*
G75*
G02*
X15733400Y-9579800I-40000J0D01*
G01*
X15733400Y-9579800D02*
G75*
G02*
X15813400Y-9579800I40000J0D01*
G01*
X15813400Y-9829800D02*
G75*
G02*
X15733400Y-9829800I-40000J0D01*
G01*
X15733400Y-9829800D02*
G75*
G02*
X15813400Y-9829800I40000J0D01*
G01*
X15832260Y-12302720D02*
G75*
G02*
X15752260Y-12302720I-40000J0D01*
G01*
X15752260Y-12302720D02*
G75*
G02*
X15832260Y-12302720I40000J0D01*
G01*
X15832260Y-13064720D02*
G75*
G02*
X15752260Y-13064720I-40000J0D01*
G01*
X15752260Y-13064720D02*
G75*
G02*
X15832260Y-13064720I40000J0D01*
G01*
X15991200Y-10909300D02*
G75*
G02*
X15911200Y-10909300I-40000J0D01*
G01*
X15911200Y-10909300D02*
G75*
G02*
X15991200Y-10909300I40000J0D01*
G01*
X15991200Y-11671300D02*
G75*
G02*
X15911200Y-11671300I-40000J0D01*
G01*
X15911200Y-11671300D02*
G75*
G02*
X15991200Y-11671300I40000J0D01*
G01*
X16014060Y-6982840D02*
G75*
G02*
X15934060Y-6982840I-40000J0D01*
G01*
X15934060Y-6982840D02*
G75*
G02*
X16014060Y-6982840I40000J0D01*
G01*
X16014060Y-7482840D02*
G75*
G02*
X15934060Y-7482840I-40000J0D01*
G01*
X15934060Y-7482840D02*
G75*
G02*
X16014060Y-7482840I40000J0D01*
G01*
X16014060Y-7797800D02*
G75*
G02*
X15934060Y-7797800I-40000J0D01*
G01*
X15934060Y-7797800D02*
G75*
G02*
X16014060Y-7797800I40000J0D01*
G01*
X16014060Y-8559800D02*
G75*
G02*
X15934060Y-8559800I-40000J0D01*
G01*
X15934060Y-8559800D02*
G75*
G02*
X16014060Y-8559800I40000J0D01*
G01*
X16086260Y-12302720D02*
G75*
G02*
X16006260Y-12302720I-40000J0D01*
G01*
X16006260Y-12302720D02*
G75*
G02*
X16086260Y-12302720I40000J0D01*
G01*
X16086260Y-13064720D02*
G75*
G02*
X16006260Y-13064720I-40000J0D01*
G01*
X16006260Y-13064720D02*
G75*
G02*
X16086260Y-13064720I40000J0D01*
G01*
X16245200Y-10909300D02*
G75*
G02*
X16165200Y-10909300I-40000J0D01*
G01*
X16165200Y-10909300D02*
G75*
G02*
X16245200Y-10909300I40000J0D01*
G01*
X16245200Y-11671300D02*
G75*
G02*
X16165200Y-11671300I-40000J0D01*
G01*
X16165200Y-11671300D02*
G75*
G02*
X16245200Y-11671300I40000J0D01*
G01*
X16318860Y-7797800D02*
G75*
G02*
X16238860Y-7797800I-40000J0D01*
G01*
X16238860Y-7797800D02*
G75*
G02*
X16318860Y-7797800I40000J0D01*
G01*
X16318860Y-8559800D02*
G75*
G02*
X16238860Y-8559800I-40000J0D01*
G01*
X16238860Y-8559800D02*
G75*
G02*
X16318860Y-8559800I40000J0D01*
G01*
X16340260Y-12302720D02*
G75*
G02*
X16260260Y-12302720I-40000J0D01*
G01*
X16260260Y-12302720D02*
G75*
G02*
X16340260Y-12302720I40000J0D01*
G01*
X16340260Y-13064720D02*
G75*
G02*
X16260260Y-13064720I-40000J0D01*
G01*
X16260260Y-13064720D02*
G75*
G02*
X16340260Y-13064720I40000J0D01*
G01*
X16397600Y-8915400D02*
G75*
G02*
X16317600Y-8915400I-40000J0D01*
G01*
X16317600Y-8915400D02*
G75*
G02*
X16397600Y-8915400I40000J0D01*
G01*
X16397600Y-9245600D02*
G75*
G02*
X16317600Y-9245600I-40000J0D01*
G01*
X16317600Y-9245600D02*
G75*
G02*
X16397600Y-9245600I40000J0D01*
G01*
X16499200Y-10909300D02*
G75*
G02*
X16419200Y-10909300I-40000J0D01*
G01*
X16419200Y-10909300D02*
G75*
G02*
X16499200Y-10909300I40000J0D01*
G01*
X16499200Y-11671300D02*
G75*
G02*
X16419200Y-11671300I-40000J0D01*
G01*
X16419200Y-11671300D02*
G75*
G02*
X16499200Y-11671300I40000J0D01*
G01*
X16715100Y-7751000D02*
G75*
G02*
X16635100Y-7751000I-40000J0D01*
G01*
X16635100Y-7751000D02*
G75*
G02*
X16715100Y-7751000I40000J0D01*
G01*
X16715100Y-8001000D02*
G75*
G02*
X16635100Y-8001000I-40000J0D01*
G01*
X16635100Y-8001000D02*
G75*
G02*
X16715100Y-8001000I40000J0D01*
G01*
X16753200Y-10909300D02*
G75*
G02*
X16673200Y-10909300I-40000J0D01*
G01*
X16673200Y-10909300D02*
G75*
G02*
X16753200Y-10909300I40000J0D01*
G01*
X16753200Y-11671300D02*
G75*
G02*
X16673200Y-11671300I-40000J0D01*
G01*
X16673200Y-11671300D02*
G75*
G02*
X16753200Y-11671300I40000J0D01*
G01*
X16757200Y-10439400D02*
G75*
G02*
X16677200Y-10439400I-40000J0D01*
G01*
X16677200Y-10439400D02*
G75*
G02*
X16757200Y-10439400I40000J0D01*
G01*
X16867500Y-12464200D02*
G75*
G02*
X16787500Y-12464200I-40000J0D01*
G01*
X16787500Y-12464200D02*
G75*
G02*
X16867500Y-12464200I40000J0D01*
G01*
X16867500Y-12714200D02*
G75*
G02*
X16787500Y-12714200I-40000J0D01*
G01*
X16787500Y-12714200D02*
G75*
G02*
X16867500Y-12714200I40000J0D01*
G01*
X16994500Y-7924800D02*
G75*
G02*
X16914500Y-7924800I-40000J0D01*
G01*
X16914500Y-7924800D02*
G75*
G02*
X16994500Y-7924800I40000J0D01*
G01*
X17007200Y-10439400D02*
G75*
G02*
X16927200Y-10439400I-40000J0D01*
G01*
X16927200Y-10439400D02*
G75*
G02*
X17007200Y-10439400I40000J0D01*
G01*
X17007200Y-10909300D02*
G75*
G02*
X16927200Y-10909300I-40000J0D01*
G01*
X16927200Y-10909300D02*
G75*
G02*
X17007200Y-10909300I40000J0D01*
G01*
X17007200Y-11671300D02*
G75*
G02*
X16927200Y-11671300I-40000J0D01*
G01*
X16927200Y-11671300D02*
G75*
G02*
X17007200Y-11671300I40000J0D01*
G01*
X17121500Y-8445500D02*
G75*
G02*
X17041500Y-8445500I-40000J0D01*
G01*
X17041500Y-8445500D02*
G75*
G02*
X17121500Y-8445500I40000J0D01*
G01*
X17121500Y-8695500D02*
G75*
G02*
X17041500Y-8695500I-40000J0D01*
G01*
X17041500Y-8695500D02*
G75*
G02*
X17121500Y-8695500I40000J0D01*
G01*
X17146900Y-9296400D02*
G75*
G02*
X17066900Y-9296400I-40000J0D01*
G01*
X17066900Y-9296400D02*
G75*
G02*
X17146900Y-9296400I40000J0D01*
G01*
X17146900Y-10058400D02*
G75*
G02*
X17066900Y-10058400I-40000J0D01*
G01*
X17066900Y-10058400D02*
G75*
G02*
X17146900Y-10058400I40000J0D01*
G01*
X17261200Y-10909300D02*
G75*
G02*
X17181200Y-10909300I-40000J0D01*
G01*
X17181200Y-10909300D02*
G75*
G02*
X17261200Y-10909300I40000J0D01*
G01*
X17261200Y-11671300D02*
G75*
G02*
X17181200Y-11671300I-40000J0D01*
G01*
X17181200Y-11671300D02*
G75*
G02*
X17261200Y-11671300I40000J0D01*
G01*
X17515200Y-9296400D02*
G75*
G02*
X17435200Y-9296400I-40000J0D01*
G01*
X17435200Y-9296400D02*
G75*
G02*
X17515200Y-9296400I40000J0D01*
G01*
X17515200Y-10058400D02*
G75*
G02*
X17435200Y-10058400I-40000J0D01*
G01*
X17435200Y-10058400D02*
G75*
G02*
X17515200Y-10058400I40000J0D01*
G01*
X17515200Y-10909300D02*
G75*
G02*
X17435200Y-10909300I-40000J0D01*
G01*
X17435200Y-10909300D02*
G75*
G02*
X17515200Y-10909300I40000J0D01*
G01*
X17515200Y-11671300D02*
G75*
G02*
X17435200Y-11671300I-40000J0D01*
G01*
X17435200Y-11671300D02*
G75*
G02*
X17515200Y-11671300I40000J0D01*
G01*
X17756500Y-7370000D02*
G75*
G02*
X17676500Y-7370000I-40000J0D01*
G01*
X17676500Y-7370000D02*
G75*
G02*
X17756500Y-7370000I40000J0D01*
G01*
X17756500Y-7620000D02*
G75*
G02*
X17676500Y-7620000I-40000J0D01*
G01*
X17676500Y-7620000D02*
G75*
G02*
X17756500Y-7620000I40000J0D01*
G01*
X17756500Y-7924800D02*
G75*
G02*
X17676500Y-7924800I-40000J0D01*
G01*
X17676500Y-7924800D02*
G75*
G02*
X17756500Y-7924800I40000J0D01*
G01*
X17769200Y-10909300D02*
G75*
G02*
X17689200Y-10909300I-40000J0D01*
G01*
X17689200Y-10909300D02*
G75*
G02*
X17769200Y-10909300I40000J0D01*
G01*
X17769200Y-11671300D02*
G75*
G02*
X17689200Y-11671300I-40000J0D01*
G01*
X17689200Y-11671300D02*
G75*
G02*
X17769200Y-11671300I40000J0D01*
G01*
X18023200Y-10909300D02*
G75*
G02*
X17943200Y-10909300I-40000J0D01*
G01*
X17943200Y-10909300D02*
G75*
G02*
X18023200Y-10909300I40000J0D01*
G01*
X18023200Y-11671300D02*
G75*
G02*
X17943200Y-11671300I-40000J0D01*
G01*
X17943200Y-11671300D02*
G75*
G02*
X18023200Y-11671300I40000J0D01*
G01*
X18251800Y-8102600D02*
G75*
G02*
X18171800Y-8102600I-40000J0D01*
G01*
X18171800Y-8102600D02*
G75*
G02*
X18251800Y-8102600I40000J0D01*
G01*
X18251800Y-8352600D02*
G75*
G02*
X18171800Y-8352600I-40000J0D01*
G01*
X18171800Y-8352600D02*
G75*
G02*
X18251800Y-8352600I40000J0D01*
G01*
X18277200Y-10909300D02*
G75*
G02*
X18197200Y-10909300I-40000J0D01*
G01*
X18197200Y-10909300D02*
G75*
G02*
X18277200Y-10909300I40000J0D01*
G01*
X18277200Y-11671300D02*
G75*
G02*
X18197200Y-11671300I-40000J0D01*
G01*
X18197200Y-11671300D02*
G75*
G02*
X18277200Y-11671300I40000J0D01*
G01*
X18632800Y-11264900D02*
G75*
G02*
X18552800Y-11264900I-40000J0D01*
G01*
X18552800Y-11264900D02*
G75*
G02*
X18632800Y-11264900I40000J0D01*
G01*
X18632800Y-11514900D02*
G75*
G02*
X18552800Y-11514900I-40000J0D01*
G01*
X18552800Y-11514900D02*
G75*
G02*
X18632800Y-11514900I40000J0D01*
G01*
D12*
X14071600Y-10506900D02*
X14071600Y-10625900D01*
X14012100Y-10566400D02*
X14131100Y-10566400D01*
X14071600Y-10760900D02*
X14071600Y-10879900D01*
X14012100Y-10820400D02*
X14131100Y-10820400D01*
X14071600Y-11014900D02*
X14071600Y-11133900D01*
X14012100Y-11074400D02*
X14131100Y-11074400D01*
X14071600Y-11268900D02*
X14071600Y-11387900D01*
X14012100Y-11328400D02*
X14131100Y-11328400D01*
X14071600Y-11522900D02*
X14071600Y-11641900D01*
X14012100Y-11582400D02*
X14131100Y-11582400D01*
X14071600Y-11776900D02*
X14071600Y-11895900D01*
X14012100Y-11836400D02*
X14131100Y-11836400D01*
X14084300Y-12629300D02*
X14084300Y-12748300D01*
X14024800Y-12688800D02*
X14143800Y-12688800D01*
X14084300Y-12883300D02*
X14084300Y-13002300D01*
X14024800Y-12942800D02*
X14143800Y-12942800D01*
X16535400Y-7187120D02*
X16535400Y-7306120D01*
X16475900Y-7246620D02*
X16594900Y-7246620D01*
X16789400Y-7187120D02*
X16789400Y-7306120D01*
X16729900Y-7246620D02*
X16848900Y-7246620D01*
X17043400Y-7187120D02*
X17043400Y-7306120D01*
X16983900Y-7246620D02*
X17102900Y-7246620D01*
X18237200Y-7306500D02*
X18237200Y-7425500D01*
X18177700Y-7366000D02*
X18296700Y-7366000D01*
X18237200Y-7560500D02*
X18237200Y-7679500D01*
X18177700Y-7620000D02*
X18296700Y-7620000D01*
X18237200Y-8706040D02*
X18237200Y-8825040D01*
X18177700Y-8765540D02*
X18296700Y-8765540D01*
X18237200Y-8960040D02*
X18237200Y-9079040D01*
X18177700Y-9019540D02*
X18296700Y-9019540D01*
X18237200Y-9214040D02*
X18237200Y-9333040D01*
X18177700Y-9273540D02*
X18296700Y-9273540D01*
X18237200Y-9468040D02*
X18237200Y-9587040D01*
X18177700Y-9527540D02*
X18296700Y-9527540D01*
X18237200Y-9722040D02*
X18237200Y-9841040D01*
X18177700Y-9781540D02*
X18296700Y-9781540D01*
X18237200Y-9976040D02*
X18237200Y-10095040D01*
X18177700Y-10035540D02*
X18296700Y-10035540D01*
X18237200Y-10230040D02*
X18237200Y-10349040D01*
X18177700Y-10289540D02*
X18296700Y-10289540D01*
X18237200Y-10484040D02*
X18237200Y-10603040D01*
X18177700Y-10543540D02*
X18296700Y-10543540D01*
X18237200Y-12056300D02*
X18237200Y-12175300D01*
X18177700Y-12115800D02*
X18296700Y-12115800D01*
X18237200Y-12310300D02*
X18237200Y-12429300D01*
X18177700Y-12369800D02*
X18296700Y-12369800D01*
X18237200Y-12564300D02*
X18237200Y-12683300D01*
X18177700Y-12623800D02*
X18296700Y-12623800D01*
X18237200Y-12818300D02*
X18237200Y-12937300D01*
X18177700Y-12877800D02*
X18296700Y-12877800D01*
D11*
X13412977Y-14083284D02*
X13412977Y-13883284D01*
X13412977Y-13883284D02*
X13460596Y-13883284D01*
X13460596Y-13883284D02*
X13489167Y-13892808D01*
X13489167Y-13892808D02*
X13508215Y-13911855D01*
X13508215Y-13911855D02*
X13517739Y-13930903D01*
X13517739Y-13930903D02*
X13527262Y-13968998D01*
X13527262Y-13968998D02*
X13527262Y-13997569D01*
X13527262Y-13997569D02*
X13517739Y-14035665D01*
X13517739Y-14035665D02*
X13508215Y-14054712D01*
X13508215Y-14054712D02*
X13489167Y-14073760D01*
X13489167Y-14073760D02*
X13460596Y-14083284D01*
X13460596Y-14083284D02*
X13412977Y-14083284D01*
X13612977Y-14083284D02*
X13612977Y-13949950D01*
X13612977Y-13988046D02*
X13622501Y-13968998D01*
X13622501Y-13968998D02*
X13632024Y-13959474D01*
X13632024Y-13959474D02*
X13651072Y-13949950D01*
X13651072Y-13949950D02*
X13670120Y-13949950D01*
X13736786Y-14083284D02*
X13736786Y-13949950D01*
X13736786Y-13883284D02*
X13727262Y-13892808D01*
X13727262Y-13892808D02*
X13736786Y-13902331D01*
X13736786Y-13902331D02*
X13746310Y-13892808D01*
X13746310Y-13892808D02*
X13736786Y-13883284D01*
X13736786Y-13883284D02*
X13736786Y-13902331D01*
X13860596Y-14083284D02*
X13841548Y-14073760D01*
X13841548Y-14073760D02*
X13832024Y-14054712D01*
X13832024Y-14054712D02*
X13832024Y-13883284D01*
X13965358Y-14083284D02*
X13946310Y-14073760D01*
X13946310Y-14073760D02*
X13936786Y-14054712D01*
X13936786Y-14054712D02*
X13936786Y-13883284D01*
X14193929Y-14083284D02*
X14193929Y-13883284D01*
X14193929Y-13883284D02*
X14260596Y-14026141D01*
X14260596Y-14026141D02*
X14327262Y-13883284D01*
X14327262Y-13883284D02*
X14327262Y-14083284D01*
X14508215Y-14083284D02*
X14508215Y-13978522D01*
X14508215Y-13978522D02*
X14498691Y-13959474D01*
X14498691Y-13959474D02*
X14479643Y-13949950D01*
X14479643Y-13949950D02*
X14441548Y-13949950D01*
X14441548Y-13949950D02*
X14422501Y-13959474D01*
X14508215Y-14073760D02*
X14489167Y-14083284D01*
X14489167Y-14083284D02*
X14441548Y-14083284D01*
X14441548Y-14083284D02*
X14422501Y-14073760D01*
X14422501Y-14073760D02*
X14412977Y-14054712D01*
X14412977Y-14054712D02*
X14412977Y-14035665D01*
X14412977Y-14035665D02*
X14422501Y-14016617D01*
X14422501Y-14016617D02*
X14441548Y-14007093D01*
X14441548Y-14007093D02*
X14489167Y-14007093D01*
X14489167Y-14007093D02*
X14508215Y-13997569D01*
X14603453Y-13949950D02*
X14603453Y-14149950D01*
X14603453Y-13959474D02*
X14622501Y-13949950D01*
X14622501Y-13949950D02*
X14660596Y-13949950D01*
X14660596Y-13949950D02*
X14679643Y-13959474D01*
X14679643Y-13959474D02*
X14689167Y-13968998D01*
X14689167Y-13968998D02*
X14698691Y-13988046D01*
X14698691Y-13988046D02*
X14698691Y-14045188D01*
X14698691Y-14045188D02*
X14689167Y-14064236D01*
X14689167Y-14064236D02*
X14679643Y-14073760D01*
X14679643Y-14073760D02*
X14660596Y-14083284D01*
X14660596Y-14083284D02*
X14622501Y-14083284D01*
X14622501Y-14083284D02*
X14603453Y-14073760D01*
X14784405Y-14064236D02*
X14793929Y-14073760D01*
X14793929Y-14073760D02*
X14784405Y-14083284D01*
X14784405Y-14083284D02*
X14774882Y-14073760D01*
X14774882Y-14073760D02*
X14784405Y-14064236D01*
X14784405Y-14064236D02*
X14784405Y-14083284D01*
X14784405Y-13959474D02*
X14793929Y-13968998D01*
X14793929Y-13968998D02*
X14784405Y-13978522D01*
X14784405Y-13978522D02*
X14774882Y-13968998D01*
X14774882Y-13968998D02*
X14784405Y-13959474D01*
X14784405Y-13959474D02*
X14784405Y-13978522D01*
D10*
X13077200Y-14374300D02*
X13152200Y-14449300D01*
X13152200Y-14374300D02*
X13077200Y-14449300D01*
D11*
X13451072Y-14303284D02*
X13470120Y-14303284D01*
X13470120Y-14303284D02*
X13489167Y-14312808D01*
X13489167Y-14312808D02*
X13498691Y-14322331D01*
X13498691Y-14322331D02*
X13508215Y-14341379D01*
X13508215Y-14341379D02*
X13517739Y-14379474D01*
X13517739Y-14379474D02*
X13517739Y-14427093D01*
X13517739Y-14427093D02*
X13508215Y-14465188D01*
X13508215Y-14465188D02*
X13498691Y-14484236D01*
X13498691Y-14484236D02*
X13489167Y-14493760D01*
X13489167Y-14493760D02*
X13470120Y-14503284D01*
X13470120Y-14503284D02*
X13451072Y-14503284D01*
X13451072Y-14503284D02*
X13432024Y-14493760D01*
X13432024Y-14493760D02*
X13422501Y-14484236D01*
X13422501Y-14484236D02*
X13412977Y-14465188D01*
X13412977Y-14465188D02*
X13403453Y-14427093D01*
X13403453Y-14427093D02*
X13403453Y-14379474D01*
X13403453Y-14379474D02*
X13412977Y-14341379D01*
X13412977Y-14341379D02*
X13422501Y-14322331D01*
X13422501Y-14322331D02*
X13432024Y-14312808D01*
X13432024Y-14312808D02*
X13451072Y-14303284D01*
X13603453Y-14484236D02*
X13612977Y-14493760D01*
X13612977Y-14493760D02*
X13603453Y-14503284D01*
X13603453Y-14503284D02*
X13593929Y-14493760D01*
X13593929Y-14493760D02*
X13603453Y-14484236D01*
X13603453Y-14484236D02*
X13603453Y-14503284D01*
X13679643Y-14303284D02*
X13812977Y-14303284D01*
X13812977Y-14303284D02*
X13727262Y-14503284D01*
X13984405Y-14303284D02*
X13889167Y-14303284D01*
X13889167Y-14303284D02*
X13879643Y-14398522D01*
X13879643Y-14398522D02*
X13889167Y-14388998D01*
X13889167Y-14388998D02*
X13908215Y-14379474D01*
X13908215Y-14379474D02*
X13955834Y-14379474D01*
X13955834Y-14379474D02*
X13974882Y-14388998D01*
X13974882Y-14388998D02*
X13984405Y-14398522D01*
X13984405Y-14398522D02*
X13993929Y-14417569D01*
X13993929Y-14417569D02*
X13993929Y-14465188D01*
X13993929Y-14465188D02*
X13984405Y-14484236D01*
X13984405Y-14484236D02*
X13974882Y-14493760D01*
X13974882Y-14493760D02*
X13955834Y-14503284D01*
X13955834Y-14503284D02*
X13908215Y-14503284D01*
X13908215Y-14503284D02*
X13889167Y-14493760D01*
X13889167Y-14493760D02*
X13879643Y-14484236D01*
X14117739Y-14303284D02*
X14136786Y-14303284D01*
X14136786Y-14303284D02*
X14155834Y-14312808D01*
X14155834Y-14312808D02*
X14165358Y-14322331D01*
X14165358Y-14322331D02*
X14174882Y-14341379D01*
X14174882Y-14341379D02*
X14184405Y-14379474D01*
X14184405Y-14379474D02*
X14184405Y-14427093D01*
X14184405Y-14427093D02*
X14174882Y-14465188D01*
X14174882Y-14465188D02*
X14165358Y-14484236D01*
X14165358Y-14484236D02*
X14155834Y-14493760D01*
X14155834Y-14493760D02*
X14136786Y-14503284D01*
X14136786Y-14503284D02*
X14117739Y-14503284D01*
X14117739Y-14503284D02*
X14098691Y-14493760D01*
X14098691Y-14493760D02*
X14089167Y-14484236D01*
X14089167Y-14484236D02*
X14079643Y-14465188D01*
X14079643Y-14465188D02*
X14070120Y-14427093D01*
X14070120Y-14427093D02*
X14070120Y-14379474D01*
X14070120Y-14379474D02*
X14079643Y-14341379D01*
X14079643Y-14341379D02*
X14089167Y-14322331D01*
X14089167Y-14322331D02*
X14098691Y-14312808D01*
X14098691Y-14312808D02*
X14117739Y-14303284D01*
X14270120Y-14503284D02*
X14270120Y-14369950D01*
X14270120Y-14388998D02*
X14279643Y-14379474D01*
X14279643Y-14379474D02*
X14298691Y-14369950D01*
X14298691Y-14369950D02*
X14327263Y-14369950D01*
X14327263Y-14369950D02*
X14346310Y-14379474D01*
X14346310Y-14379474D02*
X14355834Y-14398522D01*
X14355834Y-14398522D02*
X14355834Y-14503284D01*
X14355834Y-14398522D02*
X14365358Y-14379474D01*
X14365358Y-14379474D02*
X14384405Y-14369950D01*
X14384405Y-14369950D02*
X14412977Y-14369950D01*
X14412977Y-14369950D02*
X14432024Y-14379474D01*
X14432024Y-14379474D02*
X14441548Y-14398522D01*
X14441548Y-14398522D02*
X14441548Y-14503284D01*
X14536786Y-14503284D02*
X14536786Y-14369950D01*
X14536786Y-14388998D02*
X14546310Y-14379474D01*
X14546310Y-14379474D02*
X14565358Y-14369950D01*
X14565358Y-14369950D02*
X14593929Y-14369950D01*
X14593929Y-14369950D02*
X14612977Y-14379474D01*
X14612977Y-14379474D02*
X14622501Y-14398522D01*
X14622501Y-14398522D02*
X14622501Y-14503284D01*
X14622501Y-14398522D02*
X14632024Y-14379474D01*
X14632024Y-14379474D02*
X14651072Y-14369950D01*
X14651072Y-14369950D02*
X14679643Y-14369950D01*
X14679643Y-14369950D02*
X14698691Y-14379474D01*
X14698691Y-14379474D02*
X14708215Y-14398522D01*
X14708215Y-14398522D02*
X14708215Y-14503284D01*
X15098691Y-14293760D02*
X14927263Y-14550903D01*
X15355834Y-14303284D02*
X15374882Y-14303284D01*
X15374882Y-14303284D02*
X15393929Y-14312808D01*
X15393929Y-14312808D02*
X15403453Y-14322331D01*
X15403453Y-14322331D02*
X15412977Y-14341379D01*
X15412977Y-14341379D02*
X15422501Y-14379474D01*
X15422501Y-14379474D02*
X15422501Y-14427093D01*
X15422501Y-14427093D02*
X15412977Y-14465188D01*
X15412977Y-14465188D02*
X15403453Y-14484236D01*
X15403453Y-14484236D02*
X15393929Y-14493760D01*
X15393929Y-14493760D02*
X15374882Y-14503284D01*
X15374882Y-14503284D02*
X15355834Y-14503284D01*
X15355834Y-14503284D02*
X15336786Y-14493760D01*
X15336786Y-14493760D02*
X15327263Y-14484236D01*
X15327263Y-14484236D02*
X15317739Y-14465188D01*
X15317739Y-14465188D02*
X15308215Y-14427093D01*
X15308215Y-14427093D02*
X15308215Y-14379474D01*
X15308215Y-14379474D02*
X15317739Y-14341379D01*
X15317739Y-14341379D02*
X15327263Y-14322331D01*
X15327263Y-14322331D02*
X15336786Y-14312808D01*
X15336786Y-14312808D02*
X15355834Y-14303284D01*
X15508215Y-14484236D02*
X15517739Y-14493760D01*
X15517739Y-14493760D02*
X15508215Y-14503284D01*
X15508215Y-14503284D02*
X15498691Y-14493760D01*
X15498691Y-14493760D02*
X15508215Y-14484236D01*
X15508215Y-14484236D02*
X15508215Y-14503284D01*
X15641548Y-14303284D02*
X15660596Y-14303284D01*
X15660596Y-14303284D02*
X15679644Y-14312808D01*
X15679644Y-14312808D02*
X15689167Y-14322331D01*
X15689167Y-14322331D02*
X15698691Y-14341379D01*
X15698691Y-14341379D02*
X15708215Y-14379474D01*
X15708215Y-14379474D02*
X15708215Y-14427093D01*
X15708215Y-14427093D02*
X15698691Y-14465188D01*
X15698691Y-14465188D02*
X15689167Y-14484236D01*
X15689167Y-14484236D02*
X15679644Y-14493760D01*
X15679644Y-14493760D02*
X15660596Y-14503284D01*
X15660596Y-14503284D02*
X15641548Y-14503284D01*
X15641548Y-14503284D02*
X15622501Y-14493760D01*
X15622501Y-14493760D02*
X15612977Y-14484236D01*
X15612977Y-14484236D02*
X15603453Y-14465188D01*
X15603453Y-14465188D02*
X15593929Y-14427093D01*
X15593929Y-14427093D02*
X15593929Y-14379474D01*
X15593929Y-14379474D02*
X15603453Y-14341379D01*
X15603453Y-14341379D02*
X15612977Y-14322331D01*
X15612977Y-14322331D02*
X15622501Y-14312808D01*
X15622501Y-14312808D02*
X15641548Y-14303284D01*
X15784406Y-14322331D02*
X15793929Y-14312808D01*
X15793929Y-14312808D02*
X15812977Y-14303284D01*
X15812977Y-14303284D02*
X15860596Y-14303284D01*
X15860596Y-14303284D02*
X15879644Y-14312808D01*
X15879644Y-14312808D02*
X15889167Y-14322331D01*
X15889167Y-14322331D02*
X15898691Y-14341379D01*
X15898691Y-14341379D02*
X15898691Y-14360427D01*
X15898691Y-14360427D02*
X15889167Y-14388998D01*
X15889167Y-14388998D02*
X15774882Y-14503284D01*
X15774882Y-14503284D02*
X15898691Y-14503284D01*
X15993929Y-14503284D02*
X16032025Y-14503284D01*
X16032025Y-14503284D02*
X16051072Y-14493760D01*
X16051072Y-14493760D02*
X16060596Y-14484236D01*
X16060596Y-14484236D02*
X16079644Y-14455665D01*
X16079644Y-14455665D02*
X16089167Y-14417569D01*
X16089167Y-14417569D02*
X16089167Y-14341379D01*
X16089167Y-14341379D02*
X16079644Y-14322331D01*
X16079644Y-14322331D02*
X16070120Y-14312808D01*
X16070120Y-14312808D02*
X16051072Y-14303284D01*
X16051072Y-14303284D02*
X16012977Y-14303284D01*
X16012977Y-14303284D02*
X15993929Y-14312808D01*
X15993929Y-14312808D02*
X15984406Y-14322331D01*
X15984406Y-14322331D02*
X15974882Y-14341379D01*
X15974882Y-14341379D02*
X15974882Y-14388998D01*
X15974882Y-14388998D02*
X15984406Y-14408046D01*
X15984406Y-14408046D02*
X15993929Y-14417569D01*
X15993929Y-14417569D02*
X16012977Y-14427093D01*
X16012977Y-14427093D02*
X16051072Y-14427093D01*
X16051072Y-14427093D02*
X16070120Y-14417569D01*
X16070120Y-14417569D02*
X16079644Y-14408046D01*
X16079644Y-14408046D02*
X16089167Y-14388998D01*
X16270120Y-14303284D02*
X16174882Y-14303284D01*
X16174882Y-14303284D02*
X16165358Y-14398522D01*
X16165358Y-14398522D02*
X16174882Y-14388998D01*
X16174882Y-14388998D02*
X16193929Y-14379474D01*
X16193929Y-14379474D02*
X16241548Y-14379474D01*
X16241548Y-14379474D02*
X16260596Y-14388998D01*
X16260596Y-14388998D02*
X16270120Y-14398522D01*
X16270120Y-14398522D02*
X16279644Y-14417569D01*
X16279644Y-14417569D02*
X16279644Y-14465188D01*
X16279644Y-14465188D02*
X16270120Y-14484236D01*
X16270120Y-14484236D02*
X16260596Y-14493760D01*
X16260596Y-14493760D02*
X16241548Y-14503284D01*
X16241548Y-14503284D02*
X16193929Y-14503284D01*
X16193929Y-14503284D02*
X16174882Y-14493760D01*
X16174882Y-14493760D02*
X16165358Y-14484236D01*
X16355834Y-14303284D02*
X16355834Y-14341379D01*
X16432025Y-14303284D02*
X16432025Y-14341379D01*
X16727263Y-14579474D02*
X16717739Y-14569950D01*
X16717739Y-14569950D02*
X16698691Y-14541379D01*
X16698691Y-14541379D02*
X16689168Y-14522331D01*
X16689168Y-14522331D02*
X16679644Y-14493760D01*
X16679644Y-14493760D02*
X16670120Y-14446141D01*
X16670120Y-14446141D02*
X16670120Y-14408046D01*
X16670120Y-14408046D02*
X16679644Y-14360427D01*
X16679644Y-14360427D02*
X16689168Y-14331855D01*
X16689168Y-14331855D02*
X16698691Y-14312808D01*
X16698691Y-14312808D02*
X16717739Y-14284236D01*
X16717739Y-14284236D02*
X16727263Y-14274712D01*
X16889168Y-14303284D02*
X16851072Y-14303284D01*
X16851072Y-14303284D02*
X16832025Y-14312808D01*
X16832025Y-14312808D02*
X16822501Y-14322331D01*
X16822501Y-14322331D02*
X16803453Y-14350903D01*
X16803453Y-14350903D02*
X16793930Y-14388998D01*
X16793930Y-14388998D02*
X16793930Y-14465188D01*
X16793930Y-14465188D02*
X16803453Y-14484236D01*
X16803453Y-14484236D02*
X16812977Y-14493760D01*
X16812977Y-14493760D02*
X16832025Y-14503284D01*
X16832025Y-14503284D02*
X16870120Y-14503284D01*
X16870120Y-14503284D02*
X16889168Y-14493760D01*
X16889168Y-14493760D02*
X16898691Y-14484236D01*
X16898691Y-14484236D02*
X16908215Y-14465188D01*
X16908215Y-14465188D02*
X16908215Y-14417569D01*
X16908215Y-14417569D02*
X16898691Y-14398522D01*
X16898691Y-14398522D02*
X16889168Y-14388998D01*
X16889168Y-14388998D02*
X16870120Y-14379474D01*
X16870120Y-14379474D02*
X16832025Y-14379474D01*
X16832025Y-14379474D02*
X16812977Y-14388998D01*
X16812977Y-14388998D02*
X16803453Y-14398522D01*
X16803453Y-14398522D02*
X16793930Y-14417569D01*
X17146311Y-14503284D02*
X17146311Y-14303284D01*
X17232025Y-14503284D02*
X17232025Y-14398522D01*
X17232025Y-14398522D02*
X17222501Y-14379474D01*
X17222501Y-14379474D02*
X17203453Y-14369950D01*
X17203453Y-14369950D02*
X17174882Y-14369950D01*
X17174882Y-14369950D02*
X17155834Y-14379474D01*
X17155834Y-14379474D02*
X17146311Y-14388998D01*
X17355834Y-14503284D02*
X17336787Y-14493760D01*
X17336787Y-14493760D02*
X17327263Y-14484236D01*
X17327263Y-14484236D02*
X17317739Y-14465188D01*
X17317739Y-14465188D02*
X17317739Y-14408046D01*
X17317739Y-14408046D02*
X17327263Y-14388998D01*
X17327263Y-14388998D02*
X17336787Y-14379474D01*
X17336787Y-14379474D02*
X17355834Y-14369950D01*
X17355834Y-14369950D02*
X17384406Y-14369950D01*
X17384406Y-14369950D02*
X17403453Y-14379474D01*
X17403453Y-14379474D02*
X17412977Y-14388998D01*
X17412977Y-14388998D02*
X17422501Y-14408046D01*
X17422501Y-14408046D02*
X17422501Y-14465188D01*
X17422501Y-14465188D02*
X17412977Y-14484236D01*
X17412977Y-14484236D02*
X17403453Y-14493760D01*
X17403453Y-14493760D02*
X17384406Y-14503284D01*
X17384406Y-14503284D02*
X17355834Y-14503284D01*
X17536787Y-14503284D02*
X17517739Y-14493760D01*
X17517739Y-14493760D02*
X17508215Y-14474712D01*
X17508215Y-14474712D02*
X17508215Y-14303284D01*
X17689168Y-14493760D02*
X17670120Y-14503284D01*
X17670120Y-14503284D02*
X17632025Y-14503284D01*
X17632025Y-14503284D02*
X17612977Y-14493760D01*
X17612977Y-14493760D02*
X17603453Y-14474712D01*
X17603453Y-14474712D02*
X17603453Y-14398522D01*
X17603453Y-14398522D02*
X17612977Y-14379474D01*
X17612977Y-14379474D02*
X17632025Y-14369950D01*
X17632025Y-14369950D02*
X17670120Y-14369950D01*
X17670120Y-14369950D02*
X17689168Y-14379474D01*
X17689168Y-14379474D02*
X17698692Y-14398522D01*
X17698692Y-14398522D02*
X17698692Y-14417569D01*
X17698692Y-14417569D02*
X17603453Y-14436617D01*
X17774882Y-14493760D02*
X17793930Y-14503284D01*
X17793930Y-14503284D02*
X17832025Y-14503284D01*
X17832025Y-14503284D02*
X17851073Y-14493760D01*
X17851073Y-14493760D02*
X17860596Y-14474712D01*
X17860596Y-14474712D02*
X17860596Y-14465188D01*
X17860596Y-14465188D02*
X17851073Y-14446141D01*
X17851073Y-14446141D02*
X17832025Y-14436617D01*
X17832025Y-14436617D02*
X17803453Y-14436617D01*
X17803453Y-14436617D02*
X17784406Y-14427093D01*
X17784406Y-14427093D02*
X17774882Y-14408046D01*
X17774882Y-14408046D02*
X17774882Y-14398522D01*
X17774882Y-14398522D02*
X17784406Y-14379474D01*
X17784406Y-14379474D02*
X17803453Y-14369950D01*
X17803453Y-14369950D02*
X17832025Y-14369950D01*
X17832025Y-14369950D02*
X17851073Y-14379474D01*
X17927263Y-14579474D02*
X17936787Y-14569950D01*
X17936787Y-14569950D02*
X17955834Y-14541379D01*
X17955834Y-14541379D02*
X17965358Y-14522331D01*
X17965358Y-14522331D02*
X17974882Y-14493760D01*
X17974882Y-14493760D02*
X17984406Y-14446141D01*
X17984406Y-14446141D02*
X17984406Y-14408046D01*
X17984406Y-14408046D02*
X17974882Y-14360427D01*
X17974882Y-14360427D02*
X17965358Y-14331855D01*
X17965358Y-14331855D02*
X17955834Y-14312808D01*
X17955834Y-14312808D02*
X17936787Y-14284236D01*
X17936787Y-14284236D02*
X17927263Y-14274712D01*
D10*
X13152200Y-14675800D02*
G75*
G02*
X13072200Y-14675800I-40000J0D01*
G01*
X13072200Y-14675800D02*
G75*
G02*
X13152200Y-14675800I40000J0D01*
G01*
D11*
X13451072Y-14567284D02*
X13470120Y-14567284D01*
X13470120Y-14567284D02*
X13489167Y-14576808D01*
X13489167Y-14576808D02*
X13498691Y-14586331D01*
X13498691Y-14586331D02*
X13508215Y-14605379D01*
X13508215Y-14605379D02*
X13517739Y-14643474D01*
X13517739Y-14643474D02*
X13517739Y-14691093D01*
X13517739Y-14691093D02*
X13508215Y-14729188D01*
X13508215Y-14729188D02*
X13498691Y-14748236D01*
X13498691Y-14748236D02*
X13489167Y-14757760D01*
X13489167Y-14757760D02*
X13470120Y-14767284D01*
X13470120Y-14767284D02*
X13451072Y-14767284D01*
X13451072Y-14767284D02*
X13432024Y-14757760D01*
X13432024Y-14757760D02*
X13422501Y-14748236D01*
X13422501Y-14748236D02*
X13412977Y-14729188D01*
X13412977Y-14729188D02*
X13403453Y-14691093D01*
X13403453Y-14691093D02*
X13403453Y-14643474D01*
X13403453Y-14643474D02*
X13412977Y-14605379D01*
X13412977Y-14605379D02*
X13422501Y-14586331D01*
X13422501Y-14586331D02*
X13432024Y-14576808D01*
X13432024Y-14576808D02*
X13451072Y-14567284D01*
X13603453Y-14748236D02*
X13612977Y-14757760D01*
X13612977Y-14757760D02*
X13603453Y-14767284D01*
X13603453Y-14767284D02*
X13593929Y-14757760D01*
X13593929Y-14757760D02*
X13603453Y-14748236D01*
X13603453Y-14748236D02*
X13603453Y-14767284D01*
X13727262Y-14652998D02*
X13708215Y-14643474D01*
X13708215Y-14643474D02*
X13698691Y-14633950D01*
X13698691Y-14633950D02*
X13689167Y-14614903D01*
X13689167Y-14614903D02*
X13689167Y-14605379D01*
X13689167Y-14605379D02*
X13698691Y-14586331D01*
X13698691Y-14586331D02*
X13708215Y-14576808D01*
X13708215Y-14576808D02*
X13727262Y-14567284D01*
X13727262Y-14567284D02*
X13765358Y-14567284D01*
X13765358Y-14567284D02*
X13784405Y-14576808D01*
X13784405Y-14576808D02*
X13793929Y-14586331D01*
X13793929Y-14586331D02*
X13803453Y-14605379D01*
X13803453Y-14605379D02*
X13803453Y-14614903D01*
X13803453Y-14614903D02*
X13793929Y-14633950D01*
X13793929Y-14633950D02*
X13784405Y-14643474D01*
X13784405Y-14643474D02*
X13765358Y-14652998D01*
X13765358Y-14652998D02*
X13727262Y-14652998D01*
X13727262Y-14652998D02*
X13708215Y-14662522D01*
X13708215Y-14662522D02*
X13698691Y-14672046D01*
X13698691Y-14672046D02*
X13689167Y-14691093D01*
X13689167Y-14691093D02*
X13689167Y-14729188D01*
X13689167Y-14729188D02*
X13698691Y-14748236D01*
X13698691Y-14748236D02*
X13708215Y-14757760D01*
X13708215Y-14757760D02*
X13727262Y-14767284D01*
X13727262Y-14767284D02*
X13765358Y-14767284D01*
X13765358Y-14767284D02*
X13784405Y-14757760D01*
X13784405Y-14757760D02*
X13793929Y-14748236D01*
X13793929Y-14748236D02*
X13803453Y-14729188D01*
X13803453Y-14729188D02*
X13803453Y-14691093D01*
X13803453Y-14691093D02*
X13793929Y-14672046D01*
X13793929Y-14672046D02*
X13784405Y-14662522D01*
X13784405Y-14662522D02*
X13765358Y-14652998D01*
X13927262Y-14567284D02*
X13946310Y-14567284D01*
X13946310Y-14567284D02*
X13965358Y-14576808D01*
X13965358Y-14576808D02*
X13974882Y-14586331D01*
X13974882Y-14586331D02*
X13984405Y-14605379D01*
X13984405Y-14605379D02*
X13993929Y-14643474D01*
X13993929Y-14643474D02*
X13993929Y-14691093D01*
X13993929Y-14691093D02*
X13984405Y-14729188D01*
X13984405Y-14729188D02*
X13974882Y-14748236D01*
X13974882Y-14748236D02*
X13965358Y-14757760D01*
X13965358Y-14757760D02*
X13946310Y-14767284D01*
X13946310Y-14767284D02*
X13927262Y-14767284D01*
X13927262Y-14767284D02*
X13908215Y-14757760D01*
X13908215Y-14757760D02*
X13898691Y-14748236D01*
X13898691Y-14748236D02*
X13889167Y-14729188D01*
X13889167Y-14729188D02*
X13879643Y-14691093D01*
X13879643Y-14691093D02*
X13879643Y-14643474D01*
X13879643Y-14643474D02*
X13889167Y-14605379D01*
X13889167Y-14605379D02*
X13898691Y-14586331D01*
X13898691Y-14586331D02*
X13908215Y-14576808D01*
X13908215Y-14576808D02*
X13927262Y-14567284D01*
X14117739Y-14567284D02*
X14136786Y-14567284D01*
X14136786Y-14567284D02*
X14155834Y-14576808D01*
X14155834Y-14576808D02*
X14165358Y-14586331D01*
X14165358Y-14586331D02*
X14174882Y-14605379D01*
X14174882Y-14605379D02*
X14184405Y-14643474D01*
X14184405Y-14643474D02*
X14184405Y-14691093D01*
X14184405Y-14691093D02*
X14174882Y-14729188D01*
X14174882Y-14729188D02*
X14165358Y-14748236D01*
X14165358Y-14748236D02*
X14155834Y-14757760D01*
X14155834Y-14757760D02*
X14136786Y-14767284D01*
X14136786Y-14767284D02*
X14117739Y-14767284D01*
X14117739Y-14767284D02*
X14098691Y-14757760D01*
X14098691Y-14757760D02*
X14089167Y-14748236D01*
X14089167Y-14748236D02*
X14079643Y-14729188D01*
X14079643Y-14729188D02*
X14070120Y-14691093D01*
X14070120Y-14691093D02*
X14070120Y-14643474D01*
X14070120Y-14643474D02*
X14079643Y-14605379D01*
X14079643Y-14605379D02*
X14089167Y-14586331D01*
X14089167Y-14586331D02*
X14098691Y-14576808D01*
X14098691Y-14576808D02*
X14117739Y-14567284D01*
X14270120Y-14767284D02*
X14270120Y-14633950D01*
X14270120Y-14652998D02*
X14279643Y-14643474D01*
X14279643Y-14643474D02*
X14298691Y-14633950D01*
X14298691Y-14633950D02*
X14327263Y-14633950D01*
X14327263Y-14633950D02*
X14346310Y-14643474D01*
X14346310Y-14643474D02*
X14355834Y-14662522D01*
X14355834Y-14662522D02*
X14355834Y-14767284D01*
X14355834Y-14662522D02*
X14365358Y-14643474D01*
X14365358Y-14643474D02*
X14384405Y-14633950D01*
X14384405Y-14633950D02*
X14412977Y-14633950D01*
X14412977Y-14633950D02*
X14432024Y-14643474D01*
X14432024Y-14643474D02*
X14441548Y-14662522D01*
X14441548Y-14662522D02*
X14441548Y-14767284D01*
X14536786Y-14767284D02*
X14536786Y-14633950D01*
X14536786Y-14652998D02*
X14546310Y-14643474D01*
X14546310Y-14643474D02*
X14565358Y-14633950D01*
X14565358Y-14633950D02*
X14593929Y-14633950D01*
X14593929Y-14633950D02*
X14612977Y-14643474D01*
X14612977Y-14643474D02*
X14622501Y-14662522D01*
X14622501Y-14662522D02*
X14622501Y-14767284D01*
X14622501Y-14662522D02*
X14632024Y-14643474D01*
X14632024Y-14643474D02*
X14651072Y-14633950D01*
X14651072Y-14633950D02*
X14679643Y-14633950D01*
X14679643Y-14633950D02*
X14698691Y-14643474D01*
X14698691Y-14643474D02*
X14708215Y-14662522D01*
X14708215Y-14662522D02*
X14708215Y-14767284D01*
X15098691Y-14557760D02*
X14927263Y-14814903D01*
X15355834Y-14567284D02*
X15374882Y-14567284D01*
X15374882Y-14567284D02*
X15393929Y-14576808D01*
X15393929Y-14576808D02*
X15403453Y-14586331D01*
X15403453Y-14586331D02*
X15412977Y-14605379D01*
X15412977Y-14605379D02*
X15422501Y-14643474D01*
X15422501Y-14643474D02*
X15422501Y-14691093D01*
X15422501Y-14691093D02*
X15412977Y-14729188D01*
X15412977Y-14729188D02*
X15403453Y-14748236D01*
X15403453Y-14748236D02*
X15393929Y-14757760D01*
X15393929Y-14757760D02*
X15374882Y-14767284D01*
X15374882Y-14767284D02*
X15355834Y-14767284D01*
X15355834Y-14767284D02*
X15336786Y-14757760D01*
X15336786Y-14757760D02*
X15327263Y-14748236D01*
X15327263Y-14748236D02*
X15317739Y-14729188D01*
X15317739Y-14729188D02*
X15308215Y-14691093D01*
X15308215Y-14691093D02*
X15308215Y-14643474D01*
X15308215Y-14643474D02*
X15317739Y-14605379D01*
X15317739Y-14605379D02*
X15327263Y-14586331D01*
X15327263Y-14586331D02*
X15336786Y-14576808D01*
X15336786Y-14576808D02*
X15355834Y-14567284D01*
X15508215Y-14748236D02*
X15517739Y-14757760D01*
X15517739Y-14757760D02*
X15508215Y-14767284D01*
X15508215Y-14767284D02*
X15498691Y-14757760D01*
X15498691Y-14757760D02*
X15508215Y-14748236D01*
X15508215Y-14748236D02*
X15508215Y-14767284D01*
X15641548Y-14567284D02*
X15660596Y-14567284D01*
X15660596Y-14567284D02*
X15679644Y-14576808D01*
X15679644Y-14576808D02*
X15689167Y-14586331D01*
X15689167Y-14586331D02*
X15698691Y-14605379D01*
X15698691Y-14605379D02*
X15708215Y-14643474D01*
X15708215Y-14643474D02*
X15708215Y-14691093D01*
X15708215Y-14691093D02*
X15698691Y-14729188D01*
X15698691Y-14729188D02*
X15689167Y-14748236D01*
X15689167Y-14748236D02*
X15679644Y-14757760D01*
X15679644Y-14757760D02*
X15660596Y-14767284D01*
X15660596Y-14767284D02*
X15641548Y-14767284D01*
X15641548Y-14767284D02*
X15622501Y-14757760D01*
X15622501Y-14757760D02*
X15612977Y-14748236D01*
X15612977Y-14748236D02*
X15603453Y-14729188D01*
X15603453Y-14729188D02*
X15593929Y-14691093D01*
X15593929Y-14691093D02*
X15593929Y-14643474D01*
X15593929Y-14643474D02*
X15603453Y-14605379D01*
X15603453Y-14605379D02*
X15612977Y-14586331D01*
X15612977Y-14586331D02*
X15622501Y-14576808D01*
X15622501Y-14576808D02*
X15641548Y-14567284D01*
X15774882Y-14567284D02*
X15898691Y-14567284D01*
X15898691Y-14567284D02*
X15832025Y-14643474D01*
X15832025Y-14643474D02*
X15860596Y-14643474D01*
X15860596Y-14643474D02*
X15879644Y-14652998D01*
X15879644Y-14652998D02*
X15889167Y-14662522D01*
X15889167Y-14662522D02*
X15898691Y-14681569D01*
X15898691Y-14681569D02*
X15898691Y-14729188D01*
X15898691Y-14729188D02*
X15889167Y-14748236D01*
X15889167Y-14748236D02*
X15879644Y-14757760D01*
X15879644Y-14757760D02*
X15860596Y-14767284D01*
X15860596Y-14767284D02*
X15803453Y-14767284D01*
X15803453Y-14767284D02*
X15784406Y-14757760D01*
X15784406Y-14757760D02*
X15774882Y-14748236D01*
X16089167Y-14767284D02*
X15974882Y-14767284D01*
X16032025Y-14767284D02*
X16032025Y-14567284D01*
X16032025Y-14567284D02*
X16012977Y-14595855D01*
X16012977Y-14595855D02*
X15993929Y-14614903D01*
X15993929Y-14614903D02*
X15974882Y-14624427D01*
X16270120Y-14567284D02*
X16174882Y-14567284D01*
X16174882Y-14567284D02*
X16165358Y-14662522D01*
X16165358Y-14662522D02*
X16174882Y-14652998D01*
X16174882Y-14652998D02*
X16193929Y-14643474D01*
X16193929Y-14643474D02*
X16241548Y-14643474D01*
X16241548Y-14643474D02*
X16260596Y-14652998D01*
X16260596Y-14652998D02*
X16270120Y-14662522D01*
X16270120Y-14662522D02*
X16279644Y-14681569D01*
X16279644Y-14681569D02*
X16279644Y-14729188D01*
X16279644Y-14729188D02*
X16270120Y-14748236D01*
X16270120Y-14748236D02*
X16260596Y-14757760D01*
X16260596Y-14757760D02*
X16241548Y-14767284D01*
X16241548Y-14767284D02*
X16193929Y-14767284D01*
X16193929Y-14767284D02*
X16174882Y-14757760D01*
X16174882Y-14757760D02*
X16165358Y-14748236D01*
X16355834Y-14567284D02*
X16355834Y-14605379D01*
X16432025Y-14567284D02*
X16432025Y-14605379D01*
X16727263Y-14843474D02*
X16717739Y-14833950D01*
X16717739Y-14833950D02*
X16698691Y-14805379D01*
X16698691Y-14805379D02*
X16689168Y-14786331D01*
X16689168Y-14786331D02*
X16679644Y-14757760D01*
X16679644Y-14757760D02*
X16670120Y-14710141D01*
X16670120Y-14710141D02*
X16670120Y-14672046D01*
X16670120Y-14672046D02*
X16679644Y-14624427D01*
X16679644Y-14624427D02*
X16689168Y-14595855D01*
X16689168Y-14595855D02*
X16698691Y-14576808D01*
X16698691Y-14576808D02*
X16717739Y-14548236D01*
X16717739Y-14548236D02*
X16727263Y-14538712D01*
X16908215Y-14767284D02*
X16793930Y-14767284D01*
X16851072Y-14767284D02*
X16851072Y-14567284D01*
X16851072Y-14567284D02*
X16832025Y-14595855D01*
X16832025Y-14595855D02*
X16812977Y-14614903D01*
X16812977Y-14614903D02*
X16793930Y-14624427D01*
X17032025Y-14567284D02*
X17051072Y-14567284D01*
X17051072Y-14567284D02*
X17070120Y-14576808D01*
X17070120Y-14576808D02*
X17079644Y-14586331D01*
X17079644Y-14586331D02*
X17089168Y-14605379D01*
X17089168Y-14605379D02*
X17098691Y-14643474D01*
X17098691Y-14643474D02*
X17098691Y-14691093D01*
X17098691Y-14691093D02*
X17089168Y-14729188D01*
X17089168Y-14729188D02*
X17079644Y-14748236D01*
X17079644Y-14748236D02*
X17070120Y-14757760D01*
X17070120Y-14757760D02*
X17051072Y-14767284D01*
X17051072Y-14767284D02*
X17032025Y-14767284D01*
X17032025Y-14767284D02*
X17012977Y-14757760D01*
X17012977Y-14757760D02*
X17003453Y-14748236D01*
X17003453Y-14748236D02*
X16993930Y-14729188D01*
X16993930Y-14729188D02*
X16984406Y-14691093D01*
X16984406Y-14691093D02*
X16984406Y-14643474D01*
X16984406Y-14643474D02*
X16993930Y-14605379D01*
X16993930Y-14605379D02*
X17003453Y-14586331D01*
X17003453Y-14586331D02*
X17012977Y-14576808D01*
X17012977Y-14576808D02*
X17032025Y-14567284D01*
X17270120Y-14633950D02*
X17270120Y-14767284D01*
X17222501Y-14557760D02*
X17174882Y-14700617D01*
X17174882Y-14700617D02*
X17298691Y-14700617D01*
X17527263Y-14767284D02*
X17527263Y-14567284D01*
X17612977Y-14767284D02*
X17612977Y-14662522D01*
X17612977Y-14662522D02*
X17603453Y-14643474D01*
X17603453Y-14643474D02*
X17584406Y-14633950D01*
X17584406Y-14633950D02*
X17555834Y-14633950D01*
X17555834Y-14633950D02*
X17536787Y-14643474D01*
X17536787Y-14643474D02*
X17527263Y-14652998D01*
X17736787Y-14767284D02*
X17717739Y-14757760D01*
X17717739Y-14757760D02*
X17708215Y-14748236D01*
X17708215Y-14748236D02*
X17698692Y-14729188D01*
X17698692Y-14729188D02*
X17698692Y-14672046D01*
X17698692Y-14672046D02*
X17708215Y-14652998D01*
X17708215Y-14652998D02*
X17717739Y-14643474D01*
X17717739Y-14643474D02*
X17736787Y-14633950D01*
X17736787Y-14633950D02*
X17765358Y-14633950D01*
X17765358Y-14633950D02*
X17784406Y-14643474D01*
X17784406Y-14643474D02*
X17793930Y-14652998D01*
X17793930Y-14652998D02*
X17803453Y-14672046D01*
X17803453Y-14672046D02*
X17803453Y-14729188D01*
X17803453Y-14729188D02*
X17793930Y-14748236D01*
X17793930Y-14748236D02*
X17784406Y-14757760D01*
X17784406Y-14757760D02*
X17765358Y-14767284D01*
X17765358Y-14767284D02*
X17736787Y-14767284D01*
X17917739Y-14767284D02*
X17898692Y-14757760D01*
X17898692Y-14757760D02*
X17889168Y-14738712D01*
X17889168Y-14738712D02*
X17889168Y-14567284D01*
X18070120Y-14757760D02*
X18051073Y-14767284D01*
X18051073Y-14767284D02*
X18012977Y-14767284D01*
X18012977Y-14767284D02*
X17993930Y-14757760D01*
X17993930Y-14757760D02*
X17984406Y-14738712D01*
X17984406Y-14738712D02*
X17984406Y-14662522D01*
X17984406Y-14662522D02*
X17993930Y-14643474D01*
X17993930Y-14643474D02*
X18012977Y-14633950D01*
X18012977Y-14633950D02*
X18051073Y-14633950D01*
X18051073Y-14633950D02*
X18070120Y-14643474D01*
X18070120Y-14643474D02*
X18079644Y-14662522D01*
X18079644Y-14662522D02*
X18079644Y-14681569D01*
X18079644Y-14681569D02*
X17984406Y-14700617D01*
X18155834Y-14757760D02*
X18174882Y-14767284D01*
X18174882Y-14767284D02*
X18212977Y-14767284D01*
X18212977Y-14767284D02*
X18232025Y-14757760D01*
X18232025Y-14757760D02*
X18241549Y-14738712D01*
X18241549Y-14738712D02*
X18241549Y-14729188D01*
X18241549Y-14729188D02*
X18232025Y-14710141D01*
X18232025Y-14710141D02*
X18212977Y-14700617D01*
X18212977Y-14700617D02*
X18184406Y-14700617D01*
X18184406Y-14700617D02*
X18165358Y-14691093D01*
X18165358Y-14691093D02*
X18155834Y-14672046D01*
X18155834Y-14672046D02*
X18155834Y-14662522D01*
X18155834Y-14662522D02*
X18165358Y-14643474D01*
X18165358Y-14643474D02*
X18184406Y-14633950D01*
X18184406Y-14633950D02*
X18212977Y-14633950D01*
X18212977Y-14633950D02*
X18232025Y-14643474D01*
X18308215Y-14843474D02*
X18317739Y-14833950D01*
X18317739Y-14833950D02*
X18336787Y-14805379D01*
X18336787Y-14805379D02*
X18346311Y-14786331D01*
X18346311Y-14786331D02*
X18355834Y-14757760D01*
X18355834Y-14757760D02*
X18365358Y-14710141D01*
X18365358Y-14710141D02*
X18365358Y-14672046D01*
X18365358Y-14672046D02*
X18355834Y-14624427D01*
X18355834Y-14624427D02*
X18346311Y-14595855D01*
X18346311Y-14595855D02*
X18336787Y-14576808D01*
X18336787Y-14576808D02*
X18317739Y-14548236D01*
X18317739Y-14548236D02*
X18308215Y-14538712D01*
D12*
X13092700Y-14880300D02*
X13092700Y-14999300D01*
X13033200Y-14939800D02*
X13152200Y-14939800D01*
D11*
X13517739Y-15031284D02*
X13403453Y-15031284D01*
X13460596Y-15031284D02*
X13460596Y-14831284D01*
X13460596Y-14831284D02*
X13441548Y-14859855D01*
X13441548Y-14859855D02*
X13422501Y-14878903D01*
X13422501Y-14878903D02*
X13403453Y-14888427D01*
X13603453Y-15012236D02*
X13612977Y-15021760D01*
X13612977Y-15021760D02*
X13603453Y-15031284D01*
X13603453Y-15031284D02*
X13593929Y-15021760D01*
X13593929Y-15021760D02*
X13603453Y-15012236D01*
X13603453Y-15012236D02*
X13603453Y-15031284D01*
X13803453Y-15031284D02*
X13689167Y-15031284D01*
X13746310Y-15031284D02*
X13746310Y-14831284D01*
X13746310Y-14831284D02*
X13727262Y-14859855D01*
X13727262Y-14859855D02*
X13708215Y-14878903D01*
X13708215Y-14878903D02*
X13689167Y-14888427D01*
X13898691Y-15031284D02*
X13936786Y-15031284D01*
X13936786Y-15031284D02*
X13955834Y-15021760D01*
X13955834Y-15021760D02*
X13965358Y-15012236D01*
X13965358Y-15012236D02*
X13984405Y-14983665D01*
X13984405Y-14983665D02*
X13993929Y-14945569D01*
X13993929Y-14945569D02*
X13993929Y-14869379D01*
X13993929Y-14869379D02*
X13984405Y-14850331D01*
X13984405Y-14850331D02*
X13974882Y-14840808D01*
X13974882Y-14840808D02*
X13955834Y-14831284D01*
X13955834Y-14831284D02*
X13917739Y-14831284D01*
X13917739Y-14831284D02*
X13898691Y-14840808D01*
X13898691Y-14840808D02*
X13889167Y-14850331D01*
X13889167Y-14850331D02*
X13879643Y-14869379D01*
X13879643Y-14869379D02*
X13879643Y-14916998D01*
X13879643Y-14916998D02*
X13889167Y-14936046D01*
X13889167Y-14936046D02*
X13898691Y-14945569D01*
X13898691Y-14945569D02*
X13917739Y-14955093D01*
X13917739Y-14955093D02*
X13955834Y-14955093D01*
X13955834Y-14955093D02*
X13974882Y-14945569D01*
X13974882Y-14945569D02*
X13984405Y-14936046D01*
X13984405Y-14936046D02*
X13993929Y-14916998D01*
X14117739Y-14831284D02*
X14136786Y-14831284D01*
X14136786Y-14831284D02*
X14155834Y-14840808D01*
X14155834Y-14840808D02*
X14165358Y-14850331D01*
X14165358Y-14850331D02*
X14174882Y-14869379D01*
X14174882Y-14869379D02*
X14184405Y-14907474D01*
X14184405Y-14907474D02*
X14184405Y-14955093D01*
X14184405Y-14955093D02*
X14174882Y-14993188D01*
X14174882Y-14993188D02*
X14165358Y-15012236D01*
X14165358Y-15012236D02*
X14155834Y-15021760D01*
X14155834Y-15021760D02*
X14136786Y-15031284D01*
X14136786Y-15031284D02*
X14117739Y-15031284D01*
X14117739Y-15031284D02*
X14098691Y-15021760D01*
X14098691Y-15021760D02*
X14089167Y-15012236D01*
X14089167Y-15012236D02*
X14079643Y-14993188D01*
X14079643Y-14993188D02*
X14070120Y-14955093D01*
X14070120Y-14955093D02*
X14070120Y-14907474D01*
X14070120Y-14907474D02*
X14079643Y-14869379D01*
X14079643Y-14869379D02*
X14089167Y-14850331D01*
X14089167Y-14850331D02*
X14098691Y-14840808D01*
X14098691Y-14840808D02*
X14117739Y-14831284D01*
X14270120Y-15031284D02*
X14270120Y-14897950D01*
X14270120Y-14916998D02*
X14279643Y-14907474D01*
X14279643Y-14907474D02*
X14298691Y-14897950D01*
X14298691Y-14897950D02*
X14327263Y-14897950D01*
X14327263Y-14897950D02*
X14346310Y-14907474D01*
X14346310Y-14907474D02*
X14355834Y-14926522D01*
X14355834Y-14926522D02*
X14355834Y-15031284D01*
X14355834Y-14926522D02*
X14365358Y-14907474D01*
X14365358Y-14907474D02*
X14384405Y-14897950D01*
X14384405Y-14897950D02*
X14412977Y-14897950D01*
X14412977Y-14897950D02*
X14432024Y-14907474D01*
X14432024Y-14907474D02*
X14441548Y-14926522D01*
X14441548Y-14926522D02*
X14441548Y-15031284D01*
X14536786Y-15031284D02*
X14536786Y-14897950D01*
X14536786Y-14916998D02*
X14546310Y-14907474D01*
X14546310Y-14907474D02*
X14565358Y-14897950D01*
X14565358Y-14897950D02*
X14593929Y-14897950D01*
X14593929Y-14897950D02*
X14612977Y-14907474D01*
X14612977Y-14907474D02*
X14622501Y-14926522D01*
X14622501Y-14926522D02*
X14622501Y-15031284D01*
X14622501Y-14926522D02*
X14632024Y-14907474D01*
X14632024Y-14907474D02*
X14651072Y-14897950D01*
X14651072Y-14897950D02*
X14679643Y-14897950D01*
X14679643Y-14897950D02*
X14698691Y-14907474D01*
X14698691Y-14907474D02*
X14708215Y-14926522D01*
X14708215Y-14926522D02*
X14708215Y-15031284D01*
X15098691Y-14821760D02*
X14927263Y-15078903D01*
X15355834Y-14831284D02*
X15374882Y-14831284D01*
X15374882Y-14831284D02*
X15393929Y-14840808D01*
X15393929Y-14840808D02*
X15403453Y-14850331D01*
X15403453Y-14850331D02*
X15412977Y-14869379D01*
X15412977Y-14869379D02*
X15422501Y-14907474D01*
X15422501Y-14907474D02*
X15422501Y-14955093D01*
X15422501Y-14955093D02*
X15412977Y-14993188D01*
X15412977Y-14993188D02*
X15403453Y-15012236D01*
X15403453Y-15012236D02*
X15393929Y-15021760D01*
X15393929Y-15021760D02*
X15374882Y-15031284D01*
X15374882Y-15031284D02*
X15355834Y-15031284D01*
X15355834Y-15031284D02*
X15336786Y-15021760D01*
X15336786Y-15021760D02*
X15327263Y-15012236D01*
X15327263Y-15012236D02*
X15317739Y-14993188D01*
X15317739Y-14993188D02*
X15308215Y-14955093D01*
X15308215Y-14955093D02*
X15308215Y-14907474D01*
X15308215Y-14907474D02*
X15317739Y-14869379D01*
X15317739Y-14869379D02*
X15327263Y-14850331D01*
X15327263Y-14850331D02*
X15336786Y-14840808D01*
X15336786Y-14840808D02*
X15355834Y-14831284D01*
X15508215Y-15012236D02*
X15517739Y-15021760D01*
X15517739Y-15021760D02*
X15508215Y-15031284D01*
X15508215Y-15031284D02*
X15498691Y-15021760D01*
X15498691Y-15021760D02*
X15508215Y-15012236D01*
X15508215Y-15012236D02*
X15508215Y-15031284D01*
X15641548Y-14831284D02*
X15660596Y-14831284D01*
X15660596Y-14831284D02*
X15679644Y-14840808D01*
X15679644Y-14840808D02*
X15689167Y-14850331D01*
X15689167Y-14850331D02*
X15698691Y-14869379D01*
X15698691Y-14869379D02*
X15708215Y-14907474D01*
X15708215Y-14907474D02*
X15708215Y-14955093D01*
X15708215Y-14955093D02*
X15698691Y-14993188D01*
X15698691Y-14993188D02*
X15689167Y-15012236D01*
X15689167Y-15012236D02*
X15679644Y-15021760D01*
X15679644Y-15021760D02*
X15660596Y-15031284D01*
X15660596Y-15031284D02*
X15641548Y-15031284D01*
X15641548Y-15031284D02*
X15622501Y-15021760D01*
X15622501Y-15021760D02*
X15612977Y-15012236D01*
X15612977Y-15012236D02*
X15603453Y-14993188D01*
X15603453Y-14993188D02*
X15593929Y-14955093D01*
X15593929Y-14955093D02*
X15593929Y-14907474D01*
X15593929Y-14907474D02*
X15603453Y-14869379D01*
X15603453Y-14869379D02*
X15612977Y-14850331D01*
X15612977Y-14850331D02*
X15622501Y-14840808D01*
X15622501Y-14840808D02*
X15641548Y-14831284D01*
X15879644Y-14897950D02*
X15879644Y-15031284D01*
X15832025Y-14821760D02*
X15784406Y-14964617D01*
X15784406Y-14964617D02*
X15908215Y-14964617D01*
X16070120Y-14831284D02*
X16032025Y-14831284D01*
X16032025Y-14831284D02*
X16012977Y-14840808D01*
X16012977Y-14840808D02*
X16003453Y-14850331D01*
X16003453Y-14850331D02*
X15984406Y-14878903D01*
X15984406Y-14878903D02*
X15974882Y-14916998D01*
X15974882Y-14916998D02*
X15974882Y-14993188D01*
X15974882Y-14993188D02*
X15984406Y-15012236D01*
X15984406Y-15012236D02*
X15993929Y-15021760D01*
X15993929Y-15021760D02*
X16012977Y-15031284D01*
X16012977Y-15031284D02*
X16051072Y-15031284D01*
X16051072Y-15031284D02*
X16070120Y-15021760D01*
X16070120Y-15021760D02*
X16079644Y-15012236D01*
X16079644Y-15012236D02*
X16089167Y-14993188D01*
X16089167Y-14993188D02*
X16089167Y-14945569D01*
X16089167Y-14945569D02*
X16079644Y-14926522D01*
X16079644Y-14926522D02*
X16070120Y-14916998D01*
X16070120Y-14916998D02*
X16051072Y-14907474D01*
X16051072Y-14907474D02*
X16012977Y-14907474D01*
X16012977Y-14907474D02*
X15993929Y-14916998D01*
X15993929Y-14916998D02*
X15984406Y-14926522D01*
X15984406Y-14926522D02*
X15974882Y-14945569D01*
X16184406Y-15031284D02*
X16222501Y-15031284D01*
X16222501Y-15031284D02*
X16241548Y-15021760D01*
X16241548Y-15021760D02*
X16251072Y-15012236D01*
X16251072Y-15012236D02*
X16270120Y-14983665D01*
X16270120Y-14983665D02*
X16279644Y-14945569D01*
X16279644Y-14945569D02*
X16279644Y-14869379D01*
X16279644Y-14869379D02*
X16270120Y-14850331D01*
X16270120Y-14850331D02*
X16260596Y-14840808D01*
X16260596Y-14840808D02*
X16241548Y-14831284D01*
X16241548Y-14831284D02*
X16203453Y-14831284D01*
X16203453Y-14831284D02*
X16184406Y-14840808D01*
X16184406Y-14840808D02*
X16174882Y-14850331D01*
X16174882Y-14850331D02*
X16165358Y-14869379D01*
X16165358Y-14869379D02*
X16165358Y-14916998D01*
X16165358Y-14916998D02*
X16174882Y-14936046D01*
X16174882Y-14936046D02*
X16184406Y-14945569D01*
X16184406Y-14945569D02*
X16203453Y-14955093D01*
X16203453Y-14955093D02*
X16241548Y-14955093D01*
X16241548Y-14955093D02*
X16260596Y-14945569D01*
X16260596Y-14945569D02*
X16270120Y-14936046D01*
X16270120Y-14936046D02*
X16279644Y-14916998D01*
X16355834Y-14831284D02*
X16355834Y-14869379D01*
X16432025Y-14831284D02*
X16432025Y-14869379D01*
X16727263Y-15107474D02*
X16717739Y-15097950D01*
X16717739Y-15097950D02*
X16698691Y-15069379D01*
X16698691Y-15069379D02*
X16689168Y-15050331D01*
X16689168Y-15050331D02*
X16679644Y-15021760D01*
X16679644Y-15021760D02*
X16670120Y-14974141D01*
X16670120Y-14974141D02*
X16670120Y-14936046D01*
X16670120Y-14936046D02*
X16679644Y-14888427D01*
X16679644Y-14888427D02*
X16689168Y-14859855D01*
X16689168Y-14859855D02*
X16698691Y-14840808D01*
X16698691Y-14840808D02*
X16717739Y-14812236D01*
X16717739Y-14812236D02*
X16727263Y-14802712D01*
X16793930Y-14850331D02*
X16803453Y-14840808D01*
X16803453Y-14840808D02*
X16822501Y-14831284D01*
X16822501Y-14831284D02*
X16870120Y-14831284D01*
X16870120Y-14831284D02*
X16889168Y-14840808D01*
X16889168Y-14840808D02*
X16898691Y-14850331D01*
X16898691Y-14850331D02*
X16908215Y-14869379D01*
X16908215Y-14869379D02*
X16908215Y-14888427D01*
X16908215Y-14888427D02*
X16898691Y-14916998D01*
X16898691Y-14916998D02*
X16784406Y-15031284D01*
X16784406Y-15031284D02*
X16908215Y-15031284D01*
X17089168Y-14831284D02*
X16993930Y-14831284D01*
X16993930Y-14831284D02*
X16984406Y-14926522D01*
X16984406Y-14926522D02*
X16993930Y-14916998D01*
X16993930Y-14916998D02*
X17012977Y-14907474D01*
X17012977Y-14907474D02*
X17060596Y-14907474D01*
X17060596Y-14907474D02*
X17079644Y-14916998D01*
X17079644Y-14916998D02*
X17089168Y-14926522D01*
X17089168Y-14926522D02*
X17098691Y-14945569D01*
X17098691Y-14945569D02*
X17098691Y-14993188D01*
X17098691Y-14993188D02*
X17089168Y-15012236D01*
X17089168Y-15012236D02*
X17079644Y-15021760D01*
X17079644Y-15021760D02*
X17060596Y-15031284D01*
X17060596Y-15031284D02*
X17012977Y-15031284D01*
X17012977Y-15031284D02*
X16993930Y-15021760D01*
X16993930Y-15021760D02*
X16984406Y-15012236D01*
X17336787Y-15031284D02*
X17336787Y-14831284D01*
X17422501Y-15031284D02*
X17422501Y-14926522D01*
X17422501Y-14926522D02*
X17412977Y-14907474D01*
X17412977Y-14907474D02*
X17393930Y-14897950D01*
X17393930Y-14897950D02*
X17365358Y-14897950D01*
X17365358Y-14897950D02*
X17346311Y-14907474D01*
X17346311Y-14907474D02*
X17336787Y-14916998D01*
X17546311Y-15031284D02*
X17527263Y-15021760D01*
X17527263Y-15021760D02*
X17517739Y-15012236D01*
X17517739Y-15012236D02*
X17508215Y-14993188D01*
X17508215Y-14993188D02*
X17508215Y-14936046D01*
X17508215Y-14936046D02*
X17517739Y-14916998D01*
X17517739Y-14916998D02*
X17527263Y-14907474D01*
X17527263Y-14907474D02*
X17546311Y-14897950D01*
X17546311Y-14897950D02*
X17574882Y-14897950D01*
X17574882Y-14897950D02*
X17593930Y-14907474D01*
X17593930Y-14907474D02*
X17603453Y-14916998D01*
X17603453Y-14916998D02*
X17612977Y-14936046D01*
X17612977Y-14936046D02*
X17612977Y-14993188D01*
X17612977Y-14993188D02*
X17603453Y-15012236D01*
X17603453Y-15012236D02*
X17593930Y-15021760D01*
X17593930Y-15021760D02*
X17574882Y-15031284D01*
X17574882Y-15031284D02*
X17546311Y-15031284D01*
X17727263Y-15031284D02*
X17708215Y-15021760D01*
X17708215Y-15021760D02*
X17698692Y-15002712D01*
X17698692Y-15002712D02*
X17698692Y-14831284D01*
X17879644Y-15021760D02*
X17860596Y-15031284D01*
X17860596Y-15031284D02*
X17822501Y-15031284D01*
X17822501Y-15031284D02*
X17803453Y-15021760D01*
X17803453Y-15021760D02*
X17793930Y-15002712D01*
X17793930Y-15002712D02*
X17793930Y-14926522D01*
X17793930Y-14926522D02*
X17803453Y-14907474D01*
X17803453Y-14907474D02*
X17822501Y-14897950D01*
X17822501Y-14897950D02*
X17860596Y-14897950D01*
X17860596Y-14897950D02*
X17879644Y-14907474D01*
X17879644Y-14907474D02*
X17889168Y-14926522D01*
X17889168Y-14926522D02*
X17889168Y-14945569D01*
X17889168Y-14945569D02*
X17793930Y-14964617D01*
X17965358Y-15021760D02*
X17984406Y-15031284D01*
X17984406Y-15031284D02*
X18022501Y-15031284D01*
X18022501Y-15031284D02*
X18041549Y-15021760D01*
X18041549Y-15021760D02*
X18051073Y-15002712D01*
X18051073Y-15002712D02*
X18051073Y-14993188D01*
X18051073Y-14993188D02*
X18041549Y-14974141D01*
X18041549Y-14974141D02*
X18022501Y-14964617D01*
X18022501Y-14964617D02*
X17993930Y-14964617D01*
X17993930Y-14964617D02*
X17974882Y-14955093D01*
X17974882Y-14955093D02*
X17965358Y-14936046D01*
X17965358Y-14936046D02*
X17965358Y-14926522D01*
X17965358Y-14926522D02*
X17974882Y-14907474D01*
X17974882Y-14907474D02*
X17993930Y-14897950D01*
X17993930Y-14897950D02*
X18022501Y-14897950D01*
X18022501Y-14897950D02*
X18041549Y-14907474D01*
X18117739Y-15107474D02*
X18127263Y-15097950D01*
X18127263Y-15097950D02*
X18146311Y-15069379D01*
X18146311Y-15069379D02*
X18155834Y-15050331D01*
X18155834Y-15050331D02*
X18165358Y-15021760D01*
X18165358Y-15021760D02*
X18174882Y-14974141D01*
X18174882Y-14974141D02*
X18174882Y-14936046D01*
X18174882Y-14936046D02*
X18165358Y-14888427D01*
X18165358Y-14888427D02*
X18155834Y-14859855D01*
X18155834Y-14859855D02*
X18146311Y-14840808D01*
X18146311Y-14840808D02*
X18127263Y-14812236D01*
X18127263Y-14812236D02*
X18117739Y-14802712D01*
M02*
