%TF.GenerationSoftware,KiCad,Pcbnew,8.0.1*%
%TF.CreationDate,2024-06-15T11:09:31+01:00*%
%TF.ProjectId,MiniFilter3.2,4d696e69-4669-46c7-9465-72332e322e6b,rev?*%
%TF.SameCoordinates,Original*%
%TF.FileFunction,Soldermask,Bot*%
%TF.FilePolarity,Negative*%
%FSLAX46Y46*%
G04 Gerber Fmt 4.6, Leading zero omitted, Abs format (unit mm)*
G04 Created by KiCad (PCBNEW 8.0.1) date 2024-06-15 11:09:31*
%MOMM*%
%LPD*%
G01*
G04 APERTURE LIST*
G04 Aperture macros list*
%AMRoundRect*
0 Rectangle with rounded corners*
0 $1 Rounding radius*
0 $2 $3 $4 $5 $6 $7 $8 $9 X,Y pos of 4 corners*
0 Add a 4 corners polygon primitive as box body*
4,1,4,$2,$3,$4,$5,$6,$7,$8,$9,$2,$3,0*
0 Add four circle primitives for the rounded corners*
1,1,$1+$1,$2,$3*
1,1,$1+$1,$4,$5*
1,1,$1+$1,$6,$7*
1,1,$1+$1,$8,$9*
0 Add four rect primitives between the rounded corners*
20,1,$1+$1,$2,$3,$4,$5,0*
20,1,$1+$1,$4,$5,$6,$7,0*
20,1,$1+$1,$6,$7,$8,$9,0*
20,1,$1+$1,$8,$9,$2,$3,0*%
G04 Aperture macros list end*
%ADD10R,2.400000X1.600000*%
%ADD11O,2.400000X1.600000*%
%ADD12C,1.600000*%
%ADD13RoundRect,0.250000X-0.620000X-0.845000X0.620000X-0.845000X0.620000X0.845000X-0.620000X0.845000X0*%
%ADD14O,1.740000X2.190000*%
%ADD15O,1.600000X1.600000*%
%ADD16RoundRect,0.250000X-0.845000X0.620000X-0.845000X-0.620000X0.845000X-0.620000X0.845000X0.620000X0*%
%ADD17O,2.190000X1.740000*%
%ADD18R,1.500000X1.050000*%
%ADD19O,1.500000X1.050000*%
%ADD20RoundRect,0.250000X0.845000X-0.620000X0.845000X0.620000X-0.845000X0.620000X-0.845000X-0.620000X0*%
%ADD21C,2.700000*%
%ADD22R,1.600000X1.600000*%
%ADD23R,1.600000X2.400000*%
%ADD24O,1.600000X2.400000*%
%ADD25R,1.050000X1.500000*%
%ADD26O,1.050000X1.500000*%
G04 APERTURE END LIST*
D10*
%TO.C,IC5*%
X148285200Y-77952600D03*
D11*
X148285200Y-80492600D03*
X148285200Y-83032600D03*
X148285200Y-85572600D03*
X155905200Y-85572600D03*
X155905200Y-83032600D03*
X155905200Y-80492600D03*
X155905200Y-77952600D03*
%TD*%
D12*
%TO.C,C2*%
X139867000Y-123063000D03*
X142367000Y-123063000D03*
%TD*%
D13*
%TO.C,J6*%
X165354000Y-72466200D03*
D14*
X167894000Y-72466200D03*
X170434000Y-72466200D03*
%TD*%
D12*
%TO.C,C6*%
X166751000Y-80010000D03*
X166751000Y-77510000D03*
%TD*%
%TO.C,R11*%
X155956000Y-92456000D03*
D15*
X163576000Y-92456000D03*
%TD*%
D12*
%TO.C,R12*%
X153644600Y-92456000D03*
D15*
X146024600Y-92456000D03*
%TD*%
D12*
%TO.C,R10*%
X153619200Y-102108000D03*
D15*
X145999200Y-102108000D03*
%TD*%
D12*
%TO.C,R7*%
X163576000Y-89154000D03*
D15*
X155956000Y-89154000D03*
%TD*%
D12*
%TO.C,C12*%
X148310600Y-74980800D03*
X148310600Y-69980800D03*
%TD*%
D16*
%TO.C,J3*%
X182372000Y-121158000D03*
D17*
X182372000Y-123698000D03*
X182372000Y-126238000D03*
X182372000Y-128778000D03*
%TD*%
D18*
%TO.C,IC3*%
X167132000Y-85725000D03*
D19*
X167132000Y-84455000D03*
X167132000Y-83185000D03*
%TD*%
D20*
%TO.C,J1*%
X140843000Y-129428000D03*
D17*
X140843000Y-126888000D03*
%TD*%
D21*
%TO.C,H3*%
X189103000Y-134239000D03*
%TD*%
D12*
%TO.C,R6*%
X174752000Y-100584000D03*
D15*
X174752000Y-92964000D03*
%TD*%
D12*
%TO.C,R3*%
X145857600Y-123063000D03*
D15*
X145857600Y-130683000D03*
%TD*%
D12*
%TO.C,R13*%
X159740600Y-77978000D03*
D15*
X159740600Y-85598000D03*
%TD*%
D22*
%TO.C,C13*%
X157734000Y-95798000D03*
D12*
X157734000Y-98298000D03*
%TD*%
%TO.C,C4*%
X170815000Y-84455000D03*
X170815000Y-86955000D03*
%TD*%
%TO.C,R5*%
X171069000Y-100584000D03*
D15*
X171069000Y-92964000D03*
%TD*%
D12*
%TO.C,C3*%
X177165000Y-76200000D03*
X177165000Y-73700000D03*
%TD*%
%TO.C,R4*%
X146050000Y-109093000D03*
D15*
X146050000Y-116713000D03*
%TD*%
D12*
%TO.C,R14*%
X143230600Y-85598000D03*
D15*
X143230600Y-77978000D03*
%TD*%
D16*
%TO.C,J2*%
X182372000Y-73660000D03*
D17*
X182372000Y-76200000D03*
%TD*%
D12*
%TO.C,R9*%
X153644600Y-89154000D03*
D15*
X146024600Y-89154000D03*
%TD*%
D22*
%TO.C,C10*%
X155905200Y-72440800D03*
D12*
X153405200Y-72440800D03*
%TD*%
D22*
%TO.C,C1*%
X168275000Y-127142000D03*
D12*
X168275000Y-124642000D03*
%TD*%
D21*
%TO.C,H1*%
X135128000Y-68072000D03*
%TD*%
D12*
%TO.C,R8*%
X162788600Y-85598000D03*
D15*
X162788600Y-77978000D03*
%TD*%
D12*
%TO.C,R1*%
X152146000Y-123063000D03*
D15*
X152146000Y-130683000D03*
%TD*%
D23*
%TO.C,IC4*%
X149352000Y-116713000D03*
D24*
X151892000Y-116713000D03*
X154432000Y-116713000D03*
X156972000Y-116713000D03*
X159512000Y-116713000D03*
X162052000Y-116713000D03*
X164592000Y-116713000D03*
X167132000Y-116713000D03*
X169672000Y-116713000D03*
X172212000Y-116713000D03*
X174752000Y-116713000D03*
X177292000Y-116713000D03*
X179832000Y-116713000D03*
X182372000Y-116713000D03*
X182372000Y-109093000D03*
X179832000Y-109093000D03*
X177292000Y-109093000D03*
X174752000Y-109093000D03*
X172212000Y-109093000D03*
X169672000Y-109093000D03*
X167132000Y-109093000D03*
X164592000Y-109093000D03*
X162052000Y-109093000D03*
X159512000Y-109093000D03*
X156972000Y-109093000D03*
X154432000Y-109093000D03*
X151892000Y-109093000D03*
X149352000Y-109093000D03*
%TD*%
D12*
%TO.C,R16*%
X153644600Y-95631000D03*
D15*
X146024600Y-95631000D03*
%TD*%
D12*
%TO.C,C11*%
X159740600Y-74828400D03*
X159740600Y-69828400D03*
%TD*%
%TO.C,C7*%
X185928000Y-115149000D03*
X185928000Y-112649000D03*
%TD*%
D21*
%TO.C,H4*%
X189103000Y-68072000D03*
%TD*%
%TO.C,H2*%
X135128000Y-134366000D03*
%TD*%
D16*
%TO.C,J5*%
X182372000Y-87655400D03*
D17*
X182372000Y-90195400D03*
X182372000Y-92735400D03*
X182372000Y-95275400D03*
X182372000Y-97815400D03*
X182372000Y-100355400D03*
X182372000Y-102895400D03*
X182372000Y-105435400D03*
%TD*%
D12*
%TO.C,C9*%
X149392000Y-105664000D03*
X151892000Y-105664000D03*
%TD*%
D22*
%TO.C,C8*%
X169672000Y-104394000D03*
D12*
X167172000Y-104394000D03*
%TD*%
%TO.C,L1*%
X177165000Y-79248000D03*
D15*
X169545000Y-79248000D03*
%TD*%
D20*
%TO.C,J4*%
X140716000Y-118364000D03*
D17*
X140716000Y-115824000D03*
X140716000Y-113284000D03*
X140716000Y-110744000D03*
X140716000Y-108204000D03*
X140716000Y-105664000D03*
%TD*%
D12*
%TO.C,R15*%
X146024600Y-98856800D03*
D15*
X153644600Y-98856800D03*
%TD*%
D12*
%TO.C,R2*%
X149007200Y-130683000D03*
D15*
X149007200Y-123063000D03*
%TD*%
D23*
%TO.C,IC1*%
X163002600Y-123027200D03*
D24*
X160462600Y-123027200D03*
X157922600Y-123027200D03*
X155382600Y-123027200D03*
X155382600Y-130647200D03*
X157922600Y-130647200D03*
X160462600Y-130647200D03*
X163002600Y-130647200D03*
%TD*%
D12*
%TO.C,C5*%
X182118000Y-83526000D03*
X182118000Y-81026000D03*
%TD*%
D25*
%TO.C,IC2*%
X175895000Y-83566000D03*
D26*
X177165000Y-83566000D03*
X178435000Y-83566000D03*
%TD*%
M02*
